<svg width="70" height="70" viewBox="0 0 70 70" fill="none" xmlns="http://www.w3.org/2000/svg">
<rect width="70" height="70" rx="10" fill="#F8F2FF"/>
<path d="M36.3385 28.2355C35.5944 28.978 34.3884 28.978 33.6443 28.2355C32.9005 27.493 32.9005 26.2891 33.6443 25.5466C34.3884 24.8041 35.5944 24.8041 36.3385 25.5466C37.0824 26.2891 37.0824 27.493 36.3385 28.2355Z" fill="#9C4DF4"/>
<path d="M38.9407 31.1168C38.7086 31.1168 38.4765 31.0283 38.2998 30.8509C37.9464 30.497 37.9471 29.9237 38.3009 29.5705C39.018 28.8548 39.4129 27.9033 39.4129 26.8915C39.4129 25.8796 39.018 24.9281 38.3009 24.2124C37.9471 23.859 37.9464 23.2859 38.2998 22.9318C38.653 22.578 39.2263 22.5773 39.5802 22.9307C40.6401 23.9886 41.2238 25.395 41.2238 26.8915C41.2238 28.3877 40.6401 29.7944 39.5802 30.8523C39.4035 31.0287 39.1721 31.1168 38.9407 31.1168Z" fill="#9C4DF4"/>
<path d="M40.989 33.7824C40.7569 33.7824 40.5248 33.6938 40.3481 33.5167C39.9947 33.1626 39.9954 32.5895 40.3493 32.2361C41.7798 30.8083 42.5678 28.9102 42.5678 26.8912C42.5678 24.8723 41.7798 22.9741 40.3493 21.5464C39.9954 21.193 39.9947 20.6199 40.3481 20.2658C40.7015 19.9119 41.2747 19.9113 41.6285 20.2646C43.4019 22.0346 44.3788 24.388 44.3785 26.8912C44.3785 29.3945 43.4019 31.7481 41.6285 33.518C41.4518 33.6943 41.2204 33.7824 40.989 33.7824Z" fill="#9C4DF4"/>
<path d="M31.0372 31.116C30.8058 31.116 30.5744 31.0278 30.3975 30.8514C29.3376 29.7935 28.7539 28.3868 28.7539 26.8906C28.7539 25.3941 29.3376 23.9877 30.3975 22.9298C30.7514 22.5764 31.3247 22.5768 31.6779 22.9309C32.0313 23.2848 32.0306 23.8581 31.6767 24.2115C30.9596 24.9272 30.5648 25.8787 30.5648 26.8906C30.5648 27.9025 30.9596 28.8539 31.6767 29.5696C32.0306 29.9228 32.0313 30.4961 31.6779 30.85C31.5012 31.0272 31.2691 31.116 31.0372 31.116Z" fill="#9C4DF4"/>
<path d="M28.9894 33.7835C28.7577 33.7835 28.5263 33.6954 28.3496 33.5189C26.5762 31.749 25.5996 29.3956 25.5996 26.8923C25.5996 24.3888 26.5762 22.0355 28.3496 20.2655C28.7035 19.9123 29.2768 19.9128 29.63 20.2669C29.9834 20.6207 29.9827 21.1939 29.6289 21.5472C28.1983 22.975 27.4103 24.8731 27.4103 26.8921C27.4103 28.9111 28.1983 30.8094 29.6289 32.2372C29.9827 32.5906 29.9834 33.1637 29.63 33.5178C29.4533 33.6949 29.2212 33.7835 28.9894 33.7835Z" fill="#9C4DF4"/>
<path d="M46.9226 35.3477H23.0556C21.8858 35.3477 20.9375 36.2959 20.9375 37.4655V47.8817C20.9375 49.0515 21.8858 49.9997 23.0556 49.9997H46.9224C48.0922 49.9997 49.0405 49.0515 49.0405 47.8817V37.4655C49.0405 36.2959 48.0922 35.3477 46.9226 35.3477V35.3477ZM27.9026 47.2822H24.5666C24.0668 47.2822 23.6614 46.8769 23.6614 46.3768V38.9706C23.6614 38.4707 24.0668 38.0652 24.5666 38.0652C25.0667 38.0652 25.4721 38.4705 25.4721 38.9706V45.4713H27.9026C28.4027 45.4713 28.808 45.8767 28.808 46.3768C28.808 46.8769 28.4027 47.2822 27.9026 47.2822ZM31.6132 46.3768C31.6132 46.8769 31.2079 47.2822 30.7078 47.2822C30.2077 47.2822 29.8023 46.8769 29.8023 46.3768V38.9706C29.8023 38.4707 30.2077 38.0652 30.7078 38.0652C31.2079 38.0652 31.6132 38.4705 31.6132 38.9706V46.3768ZM39.2313 39.2325L36.9954 46.6384C36.9951 46.6391 36.9949 46.6397 36.9947 46.6404C36.7518 47.4692 35.5138 47.4488 35.2625 46.6404C35.2623 46.6397 35.262 46.6391 35.2618 46.6384L33.0259 39.2325C32.8814 38.7536 33.1522 38.2485 33.631 38.1038C34.1094 37.9594 34.615 38.2302 34.7594 38.709L36.1286 43.2438L37.4978 38.709C37.6424 38.2302 38.1475 37.9592 38.6264 38.1038C39.105 38.2485 39.376 38.7536 39.2313 39.2325V39.2325ZM44.8016 41.302C45.3017 41.302 45.707 41.7074 45.707 42.2075C45.707 42.7073 45.3017 43.1129 44.8016 43.1129H42.2322V45.4713H45.2893C45.7894 45.4713 46.1948 45.8767 46.1948 46.3768C46.1948 46.8769 45.7894 47.2822 45.2893 47.2822H41.3267C40.8266 47.2822 40.4213 46.8769 40.4213 46.3768V38.9706C40.4213 38.4707 40.8266 38.0652 41.3267 38.0652H45.4113C45.9112 38.0652 46.3168 38.4705 46.3168 38.9706C46.3168 39.4707 45.9112 39.8761 45.4113 39.8761H42.2319V41.302H44.8016Z" fill="#9C4DF4"/>
</svg>
