<svg width="62" height="69" viewBox="0 0 62 69" fill="none" xmlns="http://www.w3.org/2000/svg">
<path d="M25.1699 68.8888C25.1699 68.8888 9.61162 51.0715 3.74278 33.2541C-2.12605 15.4367 0.661643 17.4807 0.661643 17.4807C0.661643 17.4807 8.58458 34.79 14.606 43.1468C20.6216 51.5095 31.3381 63.7731 31.3381 63.7731L25.1699 68.8888Z" fill="#455A64"/>
<path d="M28.2687 20.2599C27.764 19.3898 26.4318 19.8395 26.5785 20.8322C27.5293 27.0925 29.5775 41.7739 29.4953 51.3046C29.3897 63.6792 29.5012 68.462 29.5012 68.462H35.9745C35.9745 68.462 34.8242 42.8835 33.3629 35.0815C32.3417 29.6154 30.1644 23.5419 28.2687 20.2599Z" fill="#455A64"/>
<path d="M31.8018 66.3832C31.8018 66.3832 35.8748 57.857 37.1307 47.1467C37.6648 42.5916 36.714 36.4365 35.2996 28.2198C34.613 24.2429 34.4604 21.212 34.4839 19.1155C34.5015 17.527 36.6025 17.0131 37.3831 18.3972C38.1636 19.7871 40.429 24.5232 40.9982 27.4956C42.5652 35.6072 44.3435 39.6601 42.9819 47.357C41.6262 55.0539 36.6084 66.9029 36.6084 66.9029L31.8018 66.3832Z" fill="#455A64"/>
<path d="M37.6295 66.9029C37.6295 66.9029 54.7078 30.3746 55.8933 24.9611C57.0788 19.5417 61.1048 7.05613 61.5743 7.76275C62.0497 8.46937 62.7598 15.0684 59.6787 22.6076C56.6034 30.1469 43.4572 68.0183 43.4572 68.0183H37.6236" fill="#455A64"/>
<path d="M29.9292 65.2684C29.9233 65.2801 29.759 65.1633 29.448 64.9413C29.1428 64.7136 28.685 64.3924 28.1275 63.9369C26.9889 63.0492 25.3926 61.6944 23.5381 59.9074C19.8113 56.3451 15.1691 50.8498 11.149 44.0814C7.11707 37.313 4.40568 30.6965 2.69199 25.8494C1.83514 23.4259 1.20715 21.4403 0.802203 20.0563C0.590925 19.3672 0.450062 18.8299 0.350292 18.462C0.250522 18.0941 0.203582 17.9014 0.21532 17.9014C0.227058 17.8955 0.297505 18.0824 0.420751 18.4445C0.549865 18.8358 0.720028 19.3613 0.937175 20.0154C1.38321 21.3819 2.0464 23.35 2.93847 25.7618C4.71085 30.5738 7.45158 37.1554 11.4659 43.8946C15.4743 50.6337 20.0578 56.129 23.7259 59.7205C25.5511 61.5309 27.118 62.9033 28.2272 63.826C28.773 64.299 29.2191 64.6377 29.5067 64.883C29.7884 65.1282 29.9351 65.2567 29.9292 65.2684Z" fill="#263238"/>
<path d="M31.7963 47.742C31.7728 47.742 31.72 47.3624 31.6437 46.6675C31.5615 45.9083 31.4559 44.9272 31.3268 43.7417C31.0568 41.2715 30.6342 37.861 30.0297 34.1176C29.4252 30.3743 28.7503 27.0047 28.228 24.5753C27.9756 23.4074 27.7643 22.4379 27.6059 21.6963C27.4592 21.0189 27.3888 20.6393 27.4122 20.6334C27.4357 20.6276 27.5531 20.9955 27.7409 21.6671C27.9346 22.3387 28.1869 23.3139 28.4804 24.5228C29.0673 26.9405 29.7833 30.3101 30.3877 34.0651C30.9922 37.8201 31.3737 41.2364 31.5791 43.7184C31.6847 44.9564 31.7493 45.9667 31.7787 46.6617C31.8197 47.3566 31.8256 47.742 31.7963 47.742Z" fill="#263238"/>
<path d="M35.7984 18.1052C35.8101 18.0993 35.8806 18.2628 35.9979 18.5665C36.1271 18.9111 36.2972 19.3607 36.5085 19.9213C36.7374 20.5112 36.9956 21.2353 37.2421 22.0938C37.4945 22.9522 37.8231 23.9158 38.0696 25.0195C38.2046 25.5685 38.3455 26.1408 38.4922 26.7365C38.633 27.3321 38.7386 27.9687 38.8677 28.6169C39.1494 29.9133 39.3196 31.3207 39.525 32.7982C39.8596 35.759 40.0415 39.0352 39.9359 42.4807C39.795 45.9204 39.3783 49.179 38.8325 52.1106C38.5215 53.5706 38.2457 54.9605 37.8759 56.2335C37.6999 56.8701 37.5531 57.4949 37.3653 58.0848C37.1775 58.6688 36.9956 59.2294 36.8195 59.7666C36.4909 60.847 36.0977 61.7872 35.7808 62.6223C35.4698 63.4633 35.1587 64.1699 34.8946 64.7364C34.6423 65.2795 34.4427 65.7175 34.2842 66.0503C34.1434 66.3482 34.0612 66.5058 34.0495 66.5C34.0378 66.4942 34.0964 66.3306 34.2197 66.0211C34.3605 65.6824 34.5366 65.2327 34.7655 64.678C35.012 64.0998 35.3054 63.3874 35.593 62.5464C35.8864 61.7055 36.2679 60.7594 36.5789 59.6791C36.7433 59.1418 36.9193 58.5812 37.1013 57.9972C37.2773 57.4132 37.4182 56.7883 37.5884 56.1518C37.9464 54.8787 38.2046 53.4946 38.5098 52.0405C39.0321 49.1206 39.4429 45.8795 39.5779 42.4632C39.6835 39.041 39.5133 35.7824 39.2023 32.8333C39.0027 31.3616 38.8443 29.9659 38.5802 28.6694C38.4569 28.0212 38.3631 27.3905 38.2281 26.7949C38.0872 26.1992 37.9581 25.6269 37.829 25.0779C37.6001 23.98 37.2891 23.0106 37.0543 22.1522C36.8254 21.2879 36.5848 20.5579 36.3853 19.9622C36.1975 19.3899 36.0507 18.9344 35.9392 18.584C35.8336 18.2804 35.7867 18.111 35.7984 18.1052Z" fill="#263238"/>
<path d="M61.3808 8.49315C61.3867 8.49315 61.3808 8.55155 61.369 8.65667C61.3514 8.78514 61.3221 8.94282 61.2927 9.12969C61.2165 9.54432 61.1225 10.1633 60.9582 10.9459C60.6296 12.5168 60.0779 14.7768 59.2269 17.5216C58.3759 20.2663 57.208 23.484 55.823 27.0171C54.4438 30.5561 52.8416 34.4046 51.3275 38.5041C49.7899 42.5979 48.6043 46.5923 47.4893 50.2189C46.3859 53.8454 45.3354 57.104 44.326 59.7962C43.3224 62.4884 42.3599 64.6083 41.6263 66.0449C41.2742 66.769 40.9631 67.3063 40.7577 67.68C40.6638 67.8494 40.5816 67.9837 40.5171 68.1005C40.4643 68.1939 40.4291 68.2406 40.4232 68.2348C40.4173 68.229 40.4408 68.1822 40.4819 68.083C40.5406 67.9662 40.6051 67.8202 40.6873 67.6508C40.8692 67.2712 41.1627 66.7223 41.4913 65.9865C42.178 64.5382 43.1052 62.4125 44.0736 59.7145C45.0537 57.0223 46.0749 53.7637 47.1606 50.1313C48.2581 46.5047 49.4377 42.4927 50.9812 38.3873C52.5012 34.2761 54.1152 30.4276 55.5061 26.9003C56.9029 23.3789 58.0942 20.1787 58.9746 17.4515C59.8607 14.7243 60.4418 12.4818 60.8174 10.9225C61.0052 10.1458 61.1226 9.53264 61.2223 9.12385C61.2693 8.93697 61.3045 8.78514 61.3338 8.65667C61.3573 8.54571 61.3749 8.49315 61.3808 8.49315Z" fill="#263238"/>
<path d="M8.71356 0.42214C7.63956 -0.640712 5.8496 0.468858 6.28976 1.91714C6.74166 3.38294 7.4283 5.27505 8.43774 7.40659C10.7853 12.3705 17.6812 30.1878 20.9149 39.9754C24.1427 49.7572 28.6911 68.0125 28.6911 68.0125L35.587 66.8971C35.587 66.8971 29.278 36.9037 23.1157 26.0941C18.1624 17.4161 13.2091 4.8721 8.71356 0.42214Z" fill="#455A64"/>
<path d="M22.7983 46.0953C22.8218 46.0894 22.9451 46.3814 23.1564 46.9187C23.3618 47.456 23.6376 48.2443 23.9486 49.2196C24.5825 51.1759 25.363 53.909 26.1436 56.9457C26.9241 59.9824 27.5756 62.7447 28.0275 64.7536C28.2329 65.6996 28.409 66.4997 28.544 67.1304C28.6613 67.691 28.7083 68.0064 28.6848 68.0122C28.6613 68.018 28.5616 67.7144 28.4031 67.1596C28.2329 66.5347 28.0216 65.7463 27.7693 64.812C27.2411 62.7505 26.5485 60.035 25.7797 57.0333C24.9992 54.0024 24.2597 51.2635 23.6904 49.2897C23.4204 48.3611 23.1916 47.5786 23.0096 46.9537C22.857 46.4106 22.7748 46.1011 22.7983 46.0953Z" fill="#263238"/>
<path d="M32.1531 67.458C32.1473 67.458 32.1356 67.3938 32.1121 67.277C32.0886 67.1368 32.0651 66.9558 32.0358 66.7339C31.9654 66.2609 31.9008 65.5542 31.7541 64.6549C31.5017 62.8504 31.0498 60.2575 30.3104 57.0865C29.5768 53.9154 28.5028 50.1896 27.0825 46.1251C25.6681 42.0605 23.8957 37.669 21.8827 33.1256C17.8273 24.0446 13.772 15.9915 11.1134 10.0348C9.76948 7.06234 8.72483 4.6388 8.03818 2.95109C7.68605 2.11015 7.43956 1.44441 7.26349 1.00058C7.1872 0.790345 7.12263 0.626826 7.06981 0.48667C7.02873 0.369873 7.01114 0.311476 7.01701 0.305636C7.02288 0.305636 7.0522 0.358194 7.10502 0.469151C7.16371 0.603467 7.24001 0.766987 7.32804 0.965541C7.53345 1.43273 7.80928 2.07512 8.16728 2.88686C8.89501 4.55705 9.96902 6.96306 11.3423 9.91802C14.0655 15.8396 18.1501 23.8753 22.2114 32.9679C24.2244 37.5171 25.9909 41.9262 27.3935 46.0083C28.7962 50.0903 29.8467 53.8337 30.5568 57.0222C31.267 60.2049 31.6837 62.8154 31.8891 64.6315C32.0123 65.5367 32.0534 66.2434 32.1062 66.7222C32.1238 66.9441 32.1356 67.1252 32.1473 67.2653C32.159 67.3938 32.159 67.458 32.1531 67.458Z" fill="#263238"/>
<path d="M35.5872 66.9029C35.5637 66.9087 35.4816 66.4941 35.3524 65.7525C35.2175 64.9466 35.0355 63.8837 34.8184 62.5989C34.343 59.9418 33.6153 56.2802 32.5765 52.2975C31.5436 48.3088 30.3816 44.7582 29.4836 42.212C29.0435 40.9857 28.6796 39.9695 28.4038 39.1987C28.1455 38.4862 28.0164 38.0891 28.0399 38.0833C28.0634 38.0716 28.2394 38.4512 28.5387 39.152C28.8381 39.8469 29.2489 40.863 29.7301 42.1303C30.6867 44.6589 31.8957 48.2096 32.9345 52.2099C33.9791 56.2102 34.6658 59.8893 35.0825 62.5639C35.2762 63.9012 35.4287 64.9874 35.505 65.7408C35.5755 66.4824 35.6107 66.8971 35.5872 66.9029Z" fill="#263238"/>
</svg>
