<svg width="50" height="50" viewBox="0 0 50 50" fill="none" xmlns="http://www.w3.org/2000/svg">
<path d="M25 50C38.8071 50 50 38.8071 50 25C50 11.1929 38.8071 0 25 0C11.1929 0 0 11.1929 0 25C0 38.8071 11.1929 50 25 50Z" fill="#07E5CA"/>
<path d="M25.2108 33.4381L21.9441 30.5407L18.3864 35.4604L31.9485 49.0212C40.3553 46.5936 46.9399 39.8729 49.1757 31.3864L31.9346 14.1455L16.1582 18.4884L23.0847 25.3999L22.7307 26.9756L28.1715 32.2373C28.1715 32.2372 26.302 33.6398 25.2108 33.4381V33.4381Z" fill="#00B59B"/>
<path d="M31.9346 14.1448C30.3679 12.3988 27.7512 11.3564 24.9348 11.3564C24.3641 11.3564 23.7917 11.4089 23.2335 11.5123L23.0615 11.544C21.3478 11.8606 19.7954 12.6483 18.5718 13.8218C17.3728 14.9724 16.5719 16.4175 16.2553 18.0008L16.1581 18.4876L21.9439 18.9254L22.0616 18.6213C22.397 17.7551 23.2054 17.106 24.1713 16.9273L24.3432 16.8956C25.4345 16.694 26.5551 17.0621 27.2683 17.857C28.2141 18.9106 28.1197 20.6033 27.062 21.5534C26.5497 22.0138 24.0278 22.5453 23.1889 22.5104L22.7306 22.4907V26.9749L23.1889 26.9553C24.0334 26.9198 26.5499 27.452 27.0621 27.9122C28.1197 28.8623 28.2141 30.555 27.2682 31.6087C26.5551 32.4035 25.4344 32.7717 24.3431 32.57L24.1714 32.5383C23.2054 32.3597 22.397 31.7105 22.0616 30.8443L21.9439 30.5402L16.1581 30.978L16.2553 31.4648C16.5718 33.0481 17.3727 34.4933 18.5719 35.6439C19.7953 36.8174 21.3478 37.605 23.0615 37.9216L23.2333 37.9533C23.7917 38.0567 24.3641 38.1092 24.9348 38.1092C27.7512 38.1092 30.3679 37.0668 31.9345 35.3209C34.5743 32.3793 34.4499 27.806 31.7092 24.7328C34.4499 21.6597 34.5744 17.0863 31.9346 14.1448V14.1448Z" fill="#F8FFFB"/>
<path d="M31.709 24.7324C34.4502 27.8057 34.5742 32.3789 31.9346 35.3213C30.3799 37.0527 27.792 38.0928 25 38.1084V32.623C25.8672 32.6064 26.6992 32.2441 27.2686 31.6084C28.2139 30.5547 28.1201 28.8623 27.0625 27.9121C26.7793 27.6582 25.8857 27.3818 25 27.1914V22.2734C25.8857 22.083 26.7793 21.8076 27.0625 21.5537C28.1201 20.6035 28.2139 18.9111 27.2686 17.8574C26.6992 17.2217 25.8672 16.8594 25 16.8428V11.3574C27.792 11.373 30.3799 12.4121 31.9346 14.1445C34.5742 17.0859 34.4502 21.6592 31.709 24.7324Z" fill="#D8D8D8"/>
</svg>
