<svg width="70" height="1134" viewBox="0 0 70 1134" fill="none" xmlns="http://www.w3.org/2000/svg">
<rect y="1063.63" width="70" height="70" rx="10" fill="#F8F2FF"/>
<g clip-path="url(#clip0_138_1250)">
<path d="M36.3385 3.85687C35.5944 4.20457 34.3884 4.20457 33.6443 3.85687C32.9005 3.50917 32.9005 2.94539 33.6443 2.59769C34.3884 2.24999 35.5944 2.24999 36.3385 2.59769C37.0824 2.94539 37.0824 3.50917 36.3385 3.85687Z" fill="#9C4DF4"/>
<path d="M38.9409 5.20547C38.7088 5.20547 38.4767 5.16399 38.3 5.08093C37.9467 4.91522 37.9473 4.64673 38.3012 4.48135C39.0183 4.14619 39.4131 3.70063 39.4131 3.22677C39.4131 2.75292 39.0183 2.30736 38.3012 1.9722C37.9473 1.80671 37.9467 1.53832 38.3 1.37251C38.6532 1.20681 39.2266 1.20649 39.5804 1.37198C40.6404 1.86738 41.224 2.52601 41.224 3.22677C41.224 3.92743 40.6404 4.58617 39.5804 5.08157C39.4037 5.16421 39.1723 5.20547 38.9409 5.20547Z" fill="#9C4DF4"/>
<path d="M40.989 6.45414C40.7569 6.45414 40.5248 6.41266 40.3481 6.3297C39.9947 6.16389 39.9954 5.89551 40.3493 5.73002C41.7798 5.06141 42.5678 4.17254 42.5678 3.22708C42.5678 2.28163 41.7798 1.39276 40.3493 0.724153C39.9954 0.558663 39.9947 0.290278 40.3481 0.124466C40.7015 -0.0412383 41.2747 -0.0415599 41.6285 0.12393C43.4019 0.952774 44.3788 2.05483 44.3785 3.22708C44.3785 4.39934 43.4019 5.5015 41.6285 6.33035C41.4518 6.41288 41.2204 6.45414 40.989 6.45414Z" fill="#9C4DF4"/>
<path d="M31.0375 5.20551C30.8061 5.20551 30.5747 5.16425 30.3978 5.08161C29.3378 4.58621 28.7542 3.92747 28.7542 3.22681C28.7542 2.52605 29.3378 1.86742 30.3978 1.37202C30.7516 1.20653 31.325 1.20674 31.6781 1.37255C32.0315 1.53826 32.0308 1.80675 31.677 1.97224C30.9599 2.3074 30.5651 2.75296 30.5651 3.22681C30.5651 3.70067 30.9599 4.14623 31.677 4.48139C32.0308 4.64677 32.0315 4.91526 31.6781 5.08097C31.5014 5.16393 31.2693 5.20551 31.0375 5.20551Z" fill="#9C4DF4"/>
<path d="M28.9894 6.4542C28.7577 6.4542 28.5263 6.41293 28.3496 6.33029C26.5762 5.50145 25.5996 4.3994 25.5996 3.22714C25.5996 2.05477 26.5762 0.952721 28.3496 0.123877C28.7035 -0.0415063 29.2768 -0.0412919 29.63 0.12452C29.9834 0.290224 29.9827 0.55861 29.6289 0.7241C28.1983 1.39271 27.4103 2.28157 27.4103 3.22703C27.4103 4.17249 28.1983 5.06146 29.6289 5.73007C29.9827 5.89556 29.9834 6.16394 29.63 6.32976C29.4533 6.41272 29.2212 6.4542 28.9894 6.4542Z" fill="#9C4DF4"/>
<path d="M46.9226 7.1875H23.0556C21.8858 7.1875 20.9375 7.63156 20.9375 8.17926V13.057C20.9375 13.6048 21.8858 14.0489 23.0556 14.0489H46.9224C48.0922 14.0489 49.0405 13.6048 49.0405 13.057V8.17926C49.0405 7.63156 48.0922 7.1875 46.9226 7.1875V7.1875ZM27.9026 12.7763H24.5666C24.0668 12.7763 23.6614 12.5865 23.6614 12.3523V8.88409C23.6614 8.65001 24.0668 8.46008 24.5666 8.46008C25.0667 8.46008 25.4721 8.6499 25.4721 8.88409V11.9283H27.9026C28.4027 11.9283 28.808 12.1181 28.808 12.3523C28.808 12.5865 28.4027 12.7763 27.9026 12.7763ZM31.6132 12.3523C31.6132 12.5865 31.2079 12.7763 30.7078 12.7763C30.2077 12.7763 29.8023 12.5865 29.8023 12.3523V8.88409C29.8023 8.65001 30.2077 8.46008 30.7078 8.46008C31.2079 8.46008 31.6132 8.6499 31.6132 8.88409V12.3523ZM39.2313 9.00671L36.9954 12.4748C36.9951 12.4751 36.9949 12.4755 36.9947 12.4758C36.7518 12.8639 35.5138 12.8543 35.2625 12.4758C35.2623 12.4755 35.262 12.4751 35.2618 12.4748L33.0259 9.00671C32.8814 8.78248 33.1522 8.54593 33.631 8.47819C34.1094 8.41056 34.615 8.53736 34.7594 8.76158L36.1286 10.8852L37.4978 8.76158C37.6424 8.53736 38.1475 8.41045 38.6264 8.47819C39.105 8.54593 39.376 8.78248 39.2313 9.00671V9.00671ZM44.8016 9.97585C45.3017 9.97585 45.707 10.1657 45.707 10.3999C45.707 10.634 45.3017 10.8239 44.8016 10.8239H42.2322V11.9283H45.2893C45.7894 11.9283 46.1948 12.1181 46.1948 12.3523C46.1948 12.5865 45.7894 12.7763 45.2893 12.7763H41.3267C40.8266 12.7763 40.4213 12.5865 40.4213 12.3523V8.88409C40.4213 8.65001 40.8266 8.46008 41.3267 8.46008H45.4113C45.9112 8.46008 46.3168 8.6499 46.3168 8.88409C46.3168 9.11829 45.9112 9.30811 45.4113 9.30811H42.2319V9.97585H44.8016Z" fill="#9C4DF4"/>
</g>
<defs>
<clipPath id="clip0_138_1250">
<rect width="30" height="14.0487" fill="white" transform="translate(20)"/>
</clipPath>
</defs>
</svg>
