<svg width="50" height="24" viewBox="0 0 50 24" fill="none" xmlns="http://www.w3.org/2000/svg">
<g clip-path="url(#clip0_138_1060)">
<path d="M25 23.4144C38.8071 23.4144 50 18.1729 50 11.7072C50 5.2415 38.8071 0 25 0C11.1929 0 0 5.2415 0 11.7072C0 18.1729 11.1929 23.4144 25 23.4144Z" fill="#424242"/>
<path d="M27.6941 23.3464C38.4397 22.8071 47.1468 19.0798 49.4188 14.2238L33.2989 6.67506C33.2989 6.67506 20.1108 6.5044 15.3472 10.1734L22.367 13.469L16.1159 17.9584L27.6941 23.3464Z" fill="#232323"/>
<path d="M35.3983 17.9586H16.1161V14.9106L28.4996 10.5203C30.07 9.96353 29.6915 9.18724 29.5382 8.96257C29.3905 8.74617 28.7616 8.03788 26.8716 8.01204C26.8295 8.01149 26.7554 8.01117 26.7257 8.01108H24.5361C21.3106 8.01108 21.06 9.66623 21.06 10.1735H15.3474C15.3474 7.3252 19.1259 5.33594 24.5361 5.33594L26.7581 5.33598C26.7581 5.33598 26.9448 5.33676 27.0377 5.338C30.7317 5.38853 33.8488 6.49152 34.9796 8.14796C36.1249 9.82574 34.9349 11.5941 31.9479 12.6531L24.5288 15.2834H35.3984V17.9586H35.3983Z" fill="#F8FFFB"/>
<path d="M31.9477 12.6529L25.3783 14.9821V11.6266L28.4995 10.5201C30.0695 9.96344 29.6913 9.18715 29.5385 8.96257C29.3908 8.7458 28.7614 8.03779 26.8713 8.012C26.829 8.01154 26.7551 8.01108 26.7255 8.01108H25.3782V5.33594H26.7581C26.7581 5.33594 26.9442 5.33685 27.0377 5.33777C30.7312 5.38848 33.8485 6.49129 34.9793 8.14805C36.1248 9.82552 34.935 11.5939 31.9477 12.6529V12.6529Z" fill="#D8D8D8"/>
<path d="M25.3792 15.2832H35.3989V17.9583H25.3792V15.2832Z" fill="#D8D8D8"/>
</g>
<defs>
<clipPath id="clip0_138_1060">
<rect width="50" height="23.4144" fill="white"/>
</clipPath>
</defs>
</svg>
