<svg width="124" height="86" viewBox="0 0 124 86" fill="none" xmlns="http://www.w3.org/2000/svg">
<path d="M117.144 1.57332H96.7931V25.6448H117.144V1.57332Z" fill="#F5F5F5"/>
<path d="M97.5013 0H5.544V27.1533H97.5013V0Z" fill="#E0E0E0"/>
<path d="M117.758 2.28363H95.031V0H117.758C118.391 0 118.906 0.512664 118.906 1.14183C118.906 1.77681 118.391 2.28363 117.758 2.28363Z" fill="#E0E0E0"/>
<path d="M117.758 27.1538H95.031V24.8702H117.758C118.391 24.8702 118.906 25.3828 118.906 26.012C118.906 26.647 118.391 27.1538 117.758 27.1538Z" fill="#E0E0E0"/>
<path d="M90.2708 0H79.4048V27.1533H90.2708V0Z" fill="#EBEBEB"/>
<path d="M25.151 0.302937H14.285V27.4562H25.151V0.302937Z" fill="#EBEBEB"/>
<path d="M117.144 5.55175C117.144 5.61584 112.741 5.6741 107.308 5.6741C101.875 5.6741 97.4723 5.62166 97.4723 5.55175C97.4723 5.48767 101.875 5.42942 107.308 5.42942C112.741 5.42942 117.144 5.48767 117.144 5.55175Z" fill="#E0E0E0"/>
<path d="M117.144 9.16355C117.144 9.22763 112.741 9.28588 107.308 9.28588C101.875 9.28588 97.4723 9.23345 97.4723 9.16355C97.4723 9.09946 101.875 9.04121 107.308 9.04121C112.741 9.04121 117.144 9.09364 117.144 9.16355Z" fill="#E0E0E0"/>
<path d="M117.144 13.6089C117.144 13.673 112.741 13.7312 107.308 13.7312C101.875 13.7312 97.4723 13.6788 97.4723 13.6089C97.4723 13.5448 101.875 13.4866 107.308 13.4866C112.741 13.4866 117.144 13.539 117.144 13.6089Z" fill="#E0E0E0"/>
<path d="M117.144 18.0484C117.144 18.1125 112.741 18.1708 107.308 18.1708C101.875 18.1708 97.4723 18.1183 97.4723 18.0484C97.4723 17.9843 101.875 17.9261 107.308 17.9261C112.741 17.9319 117.144 17.9843 117.144 18.0484Z" fill="#E0E0E0"/>
<path d="M117.144 22.4928C117.144 22.5569 112.741 22.6151 107.308 22.6151C101.875 22.6151 97.4723 22.5627 97.4723 22.4928C97.4723 22.4287 101.875 22.3705 107.308 22.3705C112.741 22.3763 117.144 22.4287 117.144 22.4928Z" fill="#E0E0E0"/>
<path d="M73.5621 11.1618H32.1939V16.0495H73.5621V11.1618Z" fill="#EBEBEB"/>
<path d="M116.939 27.6894H96.2781V42.3584H116.939V27.6894Z" fill="#FAFAFA"/>
<path d="M96.5121 27.1539H8.58852V42.8831H96.5121V27.1539Z" fill="#F5F5F5"/>
<path d="M95.8679 28.2201H118.074C118.367 28.2201 118.607 27.9812 118.607 27.6899C118.607 27.3987 118.367 27.1598 118.074 27.1598H95.8679V28.2201Z" fill="#F5F5F5"/>
<path d="M95.8679 42.889H118.361C118.496 42.889 118.607 42.7783 118.607 42.6444V42.0676C118.607 41.9336 118.496 41.8229 118.361 41.8229H95.8679V42.889V42.889Z" fill="#F5F5F5"/>
<path d="M116.939 30.4747C116.939 30.5388 112.366 30.5971 106.722 30.5971C101.079 30.5971 96.5063 30.5446 96.5063 30.4747C96.5063 30.4106 101.079 30.3524 106.722 30.3524C112.36 30.3524 116.939 30.4106 116.939 30.4747Z" fill="#E0E0E0"/>
<path d="M116.939 33.2471C116.939 33.3111 112.366 33.3694 106.722 33.3694C101.079 33.3694 96.5063 33.317 96.5063 33.2471C96.5063 33.183 101.079 33.1247 106.722 33.1247C112.36 33.1306 116.939 33.183 116.939 33.2471Z" fill="#E0E0E0"/>
<path d="M116.939 36.0263C116.939 36.0903 112.366 36.1486 106.722 36.1486C101.079 36.1486 96.5063 36.0962 96.5063 36.0263C96.5063 35.9622 101.079 35.9039 106.722 35.9039C112.36 35.9039 116.939 35.9564 116.939 36.0263Z" fill="#E0E0E0"/>
<path d="M116.939 38.7996C116.939 38.8637 112.366 38.9219 106.722 38.9219C101.079 38.9219 96.5063 38.8695 96.5063 38.7996C96.5063 38.7355 101.079 38.6773 106.722 38.6773C112.36 38.6773 116.939 38.7297 116.939 38.7996Z" fill="#E0E0E0"/>
<path d="M120.071 44.2865H98.9826V84.0464H120.071V44.2865Z" fill="#EBEBEB"/>
<path d="M98.9828 42.8901H0V85.9997H98.9828V42.8901Z" fill="#E0E0E0"/>
<path d="M121.722 85.9917H96.2781V83.1954H121.722C122.501 83.1954 123.127 83.8187 123.127 84.5936C123.127 85.3684 122.495 85.9917 121.722 85.9917Z" fill="#E0E0E0"/>
<path d="M122.483 45.6786H96.2781V42.8822H122.483C122.84 42.8822 123.127 43.1677 123.127 43.5231V45.0377C123.127 45.3931 122.834 45.6786 122.483 45.6786Z" fill="#E0E0E0"/>
<path d="M120.071 49.6106C120.071 49.6747 115.352 49.7329 109.527 49.7329C103.701 49.7329 98.9826 49.6805 98.9826 49.6106C98.9826 49.5465 103.701 49.4882 109.527 49.4882C115.352 49.4941 120.071 49.5465 120.071 49.6106Z" fill="#E0E0E0"/>
<path d="M120.071 54.7146C120.071 54.7786 115.352 54.8369 109.527 54.8369C103.701 54.8369 98.9826 54.7845 98.9826 54.7146C98.9826 54.6505 103.701 54.5922 109.527 54.5922C115.352 54.5922 120.071 54.6447 120.071 54.7146Z" fill="#E0E0E0"/>
<path d="M120.071 59.8117C120.071 59.8758 115.352 59.9341 109.527 59.9341C103.701 59.9341 98.9826 59.8816 98.9826 59.8117C98.9826 59.7477 103.701 59.6894 109.527 59.6894C115.352 59.6894 120.071 59.7477 120.071 59.8117Z" fill="#E0E0E0"/>
<path d="M120.071 64.9089C120.071 64.973 115.352 65.0312 109.527 65.0312C103.701 65.0312 98.9826 64.9788 98.9826 64.9089C98.9826 64.8448 103.701 64.7866 109.527 64.7866C115.352 64.7924 120.071 64.8448 120.071 64.9089Z" fill="#E0E0E0"/>
<path d="M120.071 70.0129C120.071 70.077 115.352 70.1353 109.527 70.1353C103.701 70.1353 98.9826 70.0828 98.9826 70.0129C98.9826 69.9488 103.701 69.8906 109.527 69.8906C115.352 69.8906 120.071 69.943 120.071 70.0129Z" fill="#E0E0E0"/>
<path d="M120.071 75.1101C120.071 75.1742 115.352 75.2324 109.527 75.2324C103.701 75.2324 98.9826 75.18 98.9826 75.1101C98.9826 75.046 103.701 74.9877 109.527 74.9877C115.352 74.9877 120.071 75.046 120.071 75.1101Z" fill="#E0E0E0"/>
<path d="M120.071 80.2072C120.071 80.2713 115.352 80.3296 109.527 80.3296C103.701 80.3296 98.9826 80.2772 98.9826 80.2072C98.9826 80.1432 103.701 80.0849 109.527 80.0849C115.352 80.0907 120.071 80.1432 120.071 80.2072Z" fill="#E0E0E0"/>
<path d="M33.8684 66.7974V69.1976C33.8684 72.0871 32.4165 73.7357 29.618 73.7357C26.8195 73.7357 25.3676 72.0871 25.3676 69.1976V59.8066C25.3676 56.9171 26.8195 55.2685 29.618 55.2685C32.4165 55.2685 33.8684 56.9171 33.8684 59.8066V61.5602H31.1753V59.6261C31.1753 58.3386 30.6074 57.8492 29.6999 57.8492C28.7925 57.8492 28.2246 58.3386 28.2246 59.6261V69.3781C28.2246 70.6656 28.7925 71.1317 29.6999 71.1317C30.6074 71.1317 31.1753 70.6656 31.1753 69.3781V66.7974H33.8684Z" fill="#EBEBEB"/>
<path d="M35.3728 59.8125C35.3728 56.923 36.9009 55.2743 39.6993 55.2743C42.4978 55.2743 44.0258 56.923 44.0258 59.8125V69.2034C44.0258 72.0929 42.4978 73.7416 39.6993 73.7416C36.9009 73.7416 35.3728 72.0929 35.3728 69.2034V59.8125ZM38.224 69.3782C38.224 70.6656 38.7919 71.155 39.6993 71.155C40.6068 71.155 41.1747 70.6656 41.1747 69.3782V59.6319C41.1747 58.3444 40.6068 57.8551 39.6993 57.8551C38.7919 57.8551 38.224 58.3444 38.224 59.6319V69.3782Z" fill="#EBEBEB"/>
<path d="M45.8645 55.4786H48.7156V70.9514H53.4051V73.5322H45.8645V55.4786V55.4786Z" fill="#EBEBEB"/>
<path d="M54.4181 59.8125C54.4181 56.923 55.9461 55.2743 58.7446 55.2743C61.543 55.2743 63.0711 56.923 63.0711 59.8125V69.2034C63.0711 72.0929 61.543 73.7416 58.7446 73.7416C55.9461 73.7416 54.4181 72.0929 54.4181 69.2034V59.8125ZM57.2692 69.3782C57.2692 70.6656 57.8371 71.155 58.7446 71.155C59.652 71.155 60.2199 70.6656 60.2199 69.3782V59.6319C60.2199 58.3444 59.652 57.8551 58.7446 57.8551C57.8371 57.8551 57.2692 58.3444 57.2692 59.6319V69.3782V69.3782Z" fill="#EBEBEB"/>
<path d="M67.6372 55.4786V69.4077C67.6372 70.6951 68.2051 71.1612 69.1126 71.1612C70.02 71.1612 70.5879 70.6951 70.5879 69.4077V55.4786H73.281V69.2271C73.281 72.1166 71.8291 73.7652 69.0306 73.7652C66.2322 73.7652 64.7802 72.1166 64.7802 69.2271V55.4786H67.6372Z" fill="#EBEBEB"/>
<path d="M81.1905 73.5322C81.0324 73.0661 80.9329 72.7865 80.9329 71.3126V68.4755C80.9329 66.7978 80.365 66.1802 79.0653 66.1802H78.0817V73.5322H75.2306V55.4786H79.5337C82.4902 55.4786 83.7606 56.8476 83.7606 59.6322V61.0479C83.7606 62.9062 83.1635 64.118 81.893 64.7122C83.3216 65.3064 83.7841 66.6696 83.7841 68.5571V71.3418C83.7841 72.2214 83.8075 72.8622 84.0944 73.5322H81.1905ZM78.0817 58.0593V63.6053H79.1941C80.2596 63.6053 80.9036 63.1393 80.9036 61.6945V59.9177C80.9036 58.6302 80.4645 58.0593 79.4517 58.0593H78.0817Z" fill="#EBEBEB"/>
<path d="M33.2538 33.3519H31.1754L31.2867 32.8159H36.0581L35.941 33.3519H33.8685L32.7971 38.6765H32.1824L33.2538 33.3519Z" fill="#E0E0E0"/>
<path d="M40.0622 34.272L36.8305 39.2471C36.2861 40.086 35.8704 40.3423 35.2322 40.3423C34.8224 40.3423 34.4009 40.2025 34.1784 39.9462L34.5004 39.5092C34.6936 39.7073 34.9454 39.8296 35.2849 39.8296C35.6655 39.8296 35.9582 39.6549 36.3036 39.1189L36.6139 38.6529L35.5133 34.272H36.1163L37.0354 38.0237L39.4534 34.272H40.0622Z" fill="#E0E0E0"/>
<path d="M44.9807 36.0953C44.9807 37.6099 43.921 38.7168 42.475 38.7168C41.6319 38.7168 41.0465 38.3731 40.7889 37.7556L40.2854 40.3014H39.6882L40.8942 34.2718H41.468L41.3275 34.9767C41.749 34.5107 42.3403 34.2427 43.0546 34.2427C44.1845 34.2369 44.9807 34.9418 44.9807 36.0953ZM44.3777 36.1302C44.3777 35.268 43.8449 34.7554 42.9199 34.7554C41.8193 34.7554 41.0113 35.6176 41.0113 36.8235C41.0113 37.6857 41.5441 38.1867 42.4691 38.1867C43.5698 38.1925 44.3777 37.3303 44.3777 36.1302Z" fill="#E0E0E0"/>
<path d="M45.6773 36.8526C45.6773 35.3554 46.7487 34.2427 48.2358 34.2427C49.4652 34.2427 50.2497 34.965 50.2497 36.101C50.2497 37.6099 49.1783 38.7226 47.6913 38.7226C46.4618 38.7167 45.6773 37.9827 45.6773 36.8526ZM49.6526 36.1302C49.6526 35.268 49.1198 34.7553 48.1948 34.7553C47.0941 34.7553 46.2745 35.6234 46.2745 36.8234C46.2745 37.6856 46.8073 38.1866 47.7323 38.1866C48.8329 38.1924 49.6526 37.3303 49.6526 36.1302Z" fill="#E0E0E0"/>
<path d="M55.9756 34.2718L55.2028 38.14C54.8925 39.6954 54.067 40.342 52.6268 40.342C51.7955 40.342 51.1105 40.109 50.6597 39.6779L51.0109 39.2235C51.3622 39.5847 51.9594 39.8119 52.6678 39.8119C53.786 39.8119 54.3773 39.2993 54.5881 38.239L54.6876 37.7497C54.2661 38.2215 53.6689 38.507 52.9195 38.507C51.7486 38.507 50.9641 37.8312 50.9641 36.7302C50.9641 35.3145 52.0179 34.2368 53.4874 34.2368C54.3012 34.2368 54.9628 34.5689 55.2145 35.2388L55.4019 34.2659H55.9756V34.2718ZM54.9686 36.0369C54.9686 35.233 54.4241 34.7553 53.505 34.7553C52.3868 34.7553 51.5788 35.5767 51.5788 36.6952C51.5788 37.4992 52.1175 37.9768 53.0425 37.9768C54.1548 37.9827 54.9686 37.1613 54.9686 36.0369Z" fill="#E0E0E0"/>
<path d="M59.8802 34.2368L59.769 34.8135C59.7104 34.8135 59.6694 34.8019 59.5992 34.8019C58.6566 34.8019 58.0243 35.3378 57.8077 36.4331L57.3627 38.6701H56.7656L57.6438 34.2659H58.2175L58.0653 35.0699C58.4575 34.499 59.0371 34.2368 59.8802 34.2368Z" fill="#E0E0E0"/>
<path d="M64.9558 34.2718L64.0717 38.676H63.498L63.6385 37.9827C63.217 38.443 62.6315 38.7168 61.9114 38.7168C60.7756 38.7168 59.9853 38.0119 59.9853 36.8526C59.9853 35.3437 61.0449 34.2427 62.4851 34.2427C63.3282 34.2427 63.9137 34.5864 64.1654 35.1981L64.3527 34.2776H64.9558V34.2718ZM63.9605 36.1302C63.9605 35.268 63.4277 34.7553 62.5027 34.7553C61.4021 34.7553 60.5824 35.6234 60.5824 36.8234C60.5824 37.6856 61.1152 38.1866 62.0402 38.1866C63.1467 38.1925 63.9605 37.3303 63.9605 36.1302Z" fill="#E0E0E0"/>
<path d="M70.6994 36.0953C70.6994 37.6099 69.6397 38.7168 68.1936 38.7168C67.3506 38.7168 66.7651 38.3731 66.5075 37.7556L66.004 40.3014H65.4069L66.6129 34.2718H67.1866L67.0461 34.9767C67.4677 34.5107 68.059 34.2427 68.7732 34.2427C69.8973 34.2369 70.6994 34.9418 70.6994 36.0953ZM70.0963 36.1302C70.0963 35.268 69.5636 34.7554 68.6386 34.7554C67.5379 34.7554 66.73 35.6176 66.73 36.8235C66.73 37.6857 67.2627 38.1867 68.1878 38.1867C69.2884 38.1925 70.0963 37.3303 70.0963 36.1302Z" fill="#E0E0E0"/>
<path d="M76.0565 35.6701C76.0565 35.8274 76.0389 35.9963 76.0038 36.1711L75.5003 38.6761H74.9032L75.4067 36.1653C75.4301 36.0255 75.4476 35.8915 75.4476 35.7633C75.4476 35.1341 75.0671 34.7729 74.306 34.7729C73.3634 34.7729 72.7136 35.2856 72.5028 36.3109L72.0344 38.6703H71.4373L72.6843 32.4544H73.2814L72.7838 34.9244C73.2053 34.4467 73.7967 34.2312 74.4758 34.2312C75.4769 34.237 76.0565 34.773 76.0565 35.6701Z" fill="#E0E0E0"/>
<path d="M81.6533 34.272L78.4216 39.2471C77.8772 40.086 77.4615 40.3423 76.8233 40.3423C76.4135 40.3423 75.992 40.2025 75.7695 39.9462L76.0915 39.5092C76.2847 39.7073 76.5365 39.8296 76.876 39.8296C77.2566 39.8296 77.5493 39.6549 77.8947 39.1189L78.205 38.6529L77.1043 34.272H77.7074L78.6265 38.0237L81.0445 34.272H81.6533Z" fill="#E0E0E0"/>
</svg>
