<svg width="44" height="44" viewBox="0 0 44 44" fill="none" xmlns="http://www.w3.org/2000/svg">
<rect width="44" height="44" rx="6" fill="#F2E6FF"/>
<path d="M18.46 21.29L24.12 15.64C24.213 15.5463 24.3236 15.4719 24.4454 15.4211C24.5673 15.3704 24.698 15.3442 24.83 15.3442C24.962 15.3442 25.0927 15.3704 25.2146 15.4211C25.3365 15.4719 25.4471 15.5463 25.54 15.64C25.7263 15.8274 25.8308 16.0809 25.8308 16.345C25.8308 16.6092 25.7263 16.8627 25.54 17.05L20.59 22.05L25.54 27C25.7263 27.1874 25.8308 27.4409 25.8308 27.705C25.8308 27.9692 25.7263 28.2227 25.54 28.41C25.4474 28.5045 25.337 28.5797 25.2151 28.6312C25.0932 28.6827 24.9623 28.7095 24.83 28.71C24.6977 28.7095 24.5668 28.6827 24.445 28.6312C24.3231 28.5797 24.2126 28.5045 24.12 28.41L18.46 22.76C18.3585 22.6664 18.2775 22.5527 18.2221 22.4262C18.1667 22.2997 18.1381 22.1631 18.1381 22.025C18.1381 21.8869 18.1667 21.7503 18.2221 21.6238C18.2775 21.4973 18.3585 21.3837 18.46 21.29V21.29Z" fill="#9C4DF4"/>
</svg>
