<svg width="44" height="44" viewBox="0 0 44 44" fill="none" xmlns="http://www.w3.org/2000/svg">
<rect width="44" height="44" rx="6" transform="matrix(-1 0 0 1 44 0)" fill="#9C4DF4"/>
<path d="M29 17H26V16C26 14.9391 25.5786 13.9217 24.8284 13.1716C24.0783 12.4214 23.0609 12 22 12C20.9391 12 19.9217 12.4214 19.1716 13.1716C18.4214 13.9217 18 14.9391 18 16V17H15C14.7348 17 14.4804 17.1054 14.2929 17.2929C14.1054 17.4804 14 17.7348 14 18V29C14 29.7956 14.3161 30.5587 14.8787 31.1213C15.4413 31.6839 16.2044 32 17 32H27C27.7956 32 28.5587 31.6839 29.1213 31.1213C29.6839 30.5587 30 29.7956 30 29V18C30 17.7348 29.8946 17.4804 29.7071 17.2929C29.5196 17.1054 29.2652 17 29 17ZM20 16C20 15.4696 20.2107 14.9609 20.5858 14.5858C20.9609 14.2107 21.4696 14 22 14C22.5304 14 23.0391 14.2107 23.4142 14.5858C23.7893 14.9609 24 15.4696 24 16V17H20V16ZM28 29C28 29.2652 27.8946 29.5196 27.7071 29.7071C27.5196 29.8946 27.2652 30 27 30H17C16.7348 30 16.4804 29.8946 16.2929 29.7071C16.1054 29.5196 16 29.2652 16 29V19H18V20C18 20.2652 18.1054 20.5196 18.2929 20.7071C18.4804 20.8946 18.7348 21 19 21C19.2652 21 19.5196 20.8946 19.7071 20.7071C19.8946 20.5196 20 20.2652 20 20V19H24V20C24 20.2652 24.1054 20.5196 24.2929 20.7071C24.4804 20.8946 24.7348 21 25 21C25.2652 21 25.5196 20.8946 25.7071 20.7071C25.8946 20.5196 26 20.2652 26 20V19H28V29Z" fill="white"/>
</svg>
