<svg width="50" height="24" viewBox="0 0 50 24" fill="none" xmlns="http://www.w3.org/2000/svg">
<g clip-path="url(#clip0_138_1027)">
<path d="M25 23.4144C38.8071 23.4144 50 18.1729 50 11.7072C50 5.2415 38.8071 0 25 0C11.1929 0 0 5.2415 0 11.7072C0 18.1729 11.1929 23.4144 25 23.4144Z" fill="#07E5CA"/>
<path d="M30.9623 23.0788C41.228 21.9025 49.0052 17.758 49.9104 12.6977L34.4463 5.45605L19.493 6.20454L15.4856 12.2938L21.6319 15.0958L17.8489 16.957L30.9623 23.0788Z" fill="#00B59B"/>
<path d="M22.8601 8.10847L22.3259 9.57461L24.5808 9.52477C27.1492 9.4676 29.6873 9.82751 31.5447 10.6603C35.1267 12.2664 35.4314 14.9165 32.238 16.6931C30.3806 17.7267 27.6589 18.3061 24.8357 18.3061C24.2146 18.3061 23.5886 18.2782 22.9656 18.2206L22.7673 18.2023C20.8884 18.029 19.1873 17.5982 17.8484 16.957C16.5388 16.3296 15.6677 15.5448 15.323 14.6837L21.0496 14.4674C21.4939 15.0404 22.5603 15.4799 23.863 15.6002L24.0613 15.6185C25.4919 15.7506 26.9646 15.5078 27.9041 14.9851C29.1794 14.2758 29.0583 13.2176 27.6277 12.576C26.8855 12.243 25.8718 12.0661 24.8464 12.088L15.4851 12.2938L18.1296 5.45605H34.4458V8.10847H22.8601V8.10847Z" fill="#F8FFFB"/>
<path d="M31.5449 10.6598C35.127 12.2659 35.4316 14.916 32.2383 16.6927C30.417 17.7061 27.7646 18.2832 25 18.3047V15.6518C26.1104 15.6308 27.1699 15.393 27.9043 14.9846C29.1797 14.2753 29.0586 13.2171 27.6279 12.5755C26.9229 12.259 25.9727 12.0834 25 12.0857V9.5188C27.4238 9.50782 29.7881 9.8723 31.5449 10.6598V10.6598Z" fill="#D8D8D8"/>
<path d="M25 5.45605H34.4463V8.10847H25V5.45605Z" fill="#D8D8D8"/>
</g>
<defs>
<clipPath id="clip0_138_1027">
<rect width="50" height="23.4144" fill="white"/>
</clipPath>
</defs>
</svg>
