<svg width="190" height="190" viewBox="0 0 190 190" fill="none" xmlns="http://www.w3.org/2000/svg">
<g filter="url(#filter0_d_28_1865)">
<rect x="70" y="45" width="50" height="50" rx="5" fill="white"/>
</g>
<g clip-path="url(#clip0_28_1865)">
<path d="M94.8516 60.5588C93.4654 61.5337 91.8943 62.6387 91.0525 64.4669C89.5903 67.6565 94.0444 71.1356 94.2348 71.2822C94.279 71.3162 94.332 71.3332 94.3848 71.3332C94.4408 71.3332 94.497 71.3141 94.5426 71.2758C94.631 71.2019 94.6561 71.0763 94.603 70.974C94.5869 70.9429 92.9881 67.8374 93.0475 65.6096C93.0685 64.8336 94.1544 63.9534 95.304 63.0214C96.357 62.1678 97.5505 61.2004 98.2489 60.0686C99.7819 57.5775 98.078 55.1279 98.0606 55.1034C97.9929 55.0083 97.868 54.9739 97.7612 55.0208C97.6545 55.0679 97.5954 55.1832 97.6197 55.2973C97.6232 55.3136 97.9545 56.9334 97.0325 58.6024C96.6527 59.292 95.8181 59.879 94.8516 60.5588Z" fill="#DB380E"/>
<path d="M100.692 61.6577C100.79 61.584 100.818 61.4497 100.759 61.3424C100.7 61.2352 100.571 61.1879 100.457 61.2314C100.221 61.3209 94.6899 63.453 94.6899 66.0291C94.6899 67.8049 95.4485 68.743 96.0024 69.4281C96.2197 69.6968 96.4072 69.9288 96.469 70.1269C96.6431 70.6978 96.2308 71.7296 96.0574 72.0791C96.0074 72.1795 96.0319 72.3013 96.1169 72.3746C96.1629 72.4143 96.2202 72.4345 96.2777 72.4345C96.3265 72.4345 96.3756 72.4199 96.4181 72.3904C96.5132 72.3243 98.7423 70.7482 98.3425 68.8494C98.1936 68.1276 97.8389 67.6003 97.526 67.1349C97.0411 66.4139 96.691 65.8931 97.2222 64.9313C97.8446 63.8093 100.663 61.679 100.692 61.6577Z" fill="#DB380E"/>
<path d="M86.2941 72.4752C86.1993 72.7591 86.2441 73.0407 86.4234 73.2899C87.023 74.1223 89.1469 74.5806 92.404 74.5806C92.4042 74.5806 92.4043 74.5806 92.4044 74.5806C92.8457 74.5806 93.3117 74.5719 93.7889 74.5548C98.9964 74.3684 100.928 72.7461 101.008 72.6771C101.094 72.602 101.118 72.4768 101.064 72.3756C101.01 72.2744 100.893 72.2235 100.782 72.2541C98.9479 72.7549 95.5233 72.9327 93.1479 72.9327C90.4899 72.9327 89.1363 72.7412 88.8049 72.5998C88.9749 72.3663 90.0237 71.9493 91.3234 71.6937C91.4476 71.6693 91.533 71.5546 91.5207 71.4286C91.5084 71.3026 91.4026 71.2065 91.2759 71.2065C90.5141 71.2065 86.6935 71.2677 86.2941 72.4752Z" fill="#73A1FB"/>
<path d="M103.719 70.8042C102.645 70.8042 101.627 71.3426 101.584 71.3654C101.485 71.4186 101.434 71.5325 101.461 71.6419C101.489 71.7512 101.587 71.828 101.7 71.8281C101.723 71.8281 103.991 71.8467 104.196 73.1427C104.378 74.2608 102.05 76.0724 101.138 76.6762C101.039 76.7414 101.001 76.8674 101.047 76.9764C101.086 77.0691 101.176 77.1271 101.273 77.1271C101.29 77.1271 101.307 77.1254 101.325 77.1217C101.541 77.0754 106.622 75.9558 106.085 72.9977C105.757 71.1848 104.617 70.8042 103.719 70.8042Z" fill="#73A1FB"/>
<path d="M100.235 76.3144C100.253 76.2197 100.214 76.1233 100.135 76.0679L98.9164 75.2146C98.857 75.173 98.7819 75.1599 98.7122 75.1784C98.6995 75.1816 97.4255 75.5166 95.576 75.7219C94.8419 75.8042 94.0197 75.8477 93.1981 75.8477C91.349 75.8477 90.14 75.6305 89.9639 75.4711C89.9406 75.4263 89.948 75.406 89.9521 75.3947C89.9841 75.3057 90.1556 75.2 90.2661 75.1582C90.3881 75.113 90.4539 74.9805 90.416 74.856C90.3781 74.7314 90.2497 74.6581 90.123 74.6885C88.901 74.9834 88.3035 75.3958 88.3469 75.9142C88.4242 76.8333 90.553 77.305 92.3527 77.4297C92.6115 77.4474 92.8914 77.4564 93.1845 77.4564C93.1846 77.4564 93.1848 77.4564 93.1849 77.4564C96.1776 77.4564 100.014 76.5174 100.052 76.5078C100.146 76.485 100.217 76.4093 100.235 76.3144Z" fill="#73A1FB"/>
<path d="M91.0507 78.2867C91.143 78.2267 91.1838 78.1127 91.1511 78.0076C91.1185 77.9025 91.0202 77.8335 90.9098 77.835C90.746 77.8393 89.3073 77.9042 89.2066 78.8202C89.1761 79.094 89.2545 79.3441 89.4397 79.5636C89.9563 80.1758 91.3507 80.5396 93.7019 80.6759C93.9801 80.6926 94.2626 80.701 94.5418 80.701C97.531 80.701 99.5442 79.7651 99.6285 79.7252C99.7102 79.6866 99.7641 79.6062 99.7689 79.516C99.7737 79.4258 99.7287 79.3402 99.6516 79.293L98.112 78.3531C98.0586 78.3206 97.9946 78.3098 97.9337 78.3223C97.924 78.3243 96.9464 78.527 95.4712 78.7273C95.1921 78.7653 94.8425 78.7846 94.4324 78.7846C92.9587 78.7846 91.3196 78.5438 91.0053 78.3861C91.0007 78.3567 91.0065 78.3193 91.0507 78.2867Z" fill="#73A1FB"/>
<path d="M93.1489 83.5268C99.9959 83.521 103.671 82.3033 104.379 81.5371C104.629 81.2661 104.656 81.0094 104.635 80.8418C104.582 80.4293 104.207 80.1767 104.164 80.1493C104.061 80.0832 103.923 80.1005 103.843 80.193C103.763 80.2854 103.761 80.4205 103.842 80.5129C103.885 80.5685 103.91 80.6615 103.783 80.7879C103.5 81.0522 100.646 81.8545 95.8935 82.0956C95.2424 82.1294 94.5596 82.1466 93.864 82.1467C89.6087 82.1467 86.4945 81.5638 86.0857 81.2242C86.2433 80.9978 87.3448 80.6361 88.5163 80.4315C88.6483 80.4085 88.7375 80.2841 88.717 80.1517C88.6966 80.0193 88.5745 79.9282 88.4411 79.9455C88.4081 79.95 88.2959 79.9567 88.1661 79.9646C86.2332 80.0826 83.9995 80.3457 83.883 81.3416C83.8476 81.645 83.9378 81.9205 84.1511 82.1603C84.6731 82.7468 86.1735 83.5267 93.1487 83.5267C93.1488 83.5268 93.1488 83.5268 93.1489 83.5268Z" fill="#73A1FB"/>
<path d="M105.724 81.7527C105.627 81.708 105.512 81.7306 105.44 81.8085C105.43 81.8194 104.401 82.8958 101.306 83.5279C100.121 83.7653 97.8964 83.8857 94.6947 83.8857C91.4869 83.8857 88.4346 83.7595 88.4042 83.7582C88.2767 83.752 88.1676 83.8447 88.1503 83.9702C88.1329 84.0956 88.2138 84.2139 88.3369 84.2432C88.3686 84.2507 91.5674 85.0001 95.9411 85.0001C98.0389 85.0001 100.08 84.8298 102.008 84.4935C105.604 83.8632 105.856 82.0805 105.864 82.0049C105.877 81.8992 105.82 81.7975 105.724 81.7527Z" fill="#73A1FB"/>
</g>
<defs>
<filter id="filter0_d_28_1865" x="0" y="0" width="190" height="190" filterUnits="userSpaceOnUse" color-interpolation-filters="sRGB">
<feFlood flood-opacity="0" result="BackgroundImageFix"/>
<feColorMatrix in="SourceAlpha" type="matrix" values="0 0 0 0 0 0 0 0 0 0 0 0 0 0 0 0 0 0 127 0" result="hardAlpha"/>
<feOffset dy="25"/>
<feGaussianBlur stdDeviation="35"/>
<feColorMatrix type="matrix" values="0 0 0 0 0.0392157 0 0 0 0 0.0117647 0 0 0 0 0.235294 0 0 0 0.15 0"/>
<feBlend mode="normal" in2="BackgroundImageFix" result="effect1_dropShadow_28_1865"/>
<feBlend mode="normal" in="SourceGraphic" in2="effect1_dropShadow_28_1865" result="shape"/>
</filter>
<clipPath id="clip0_28_1865">
<rect width="30" height="30" fill="white" transform="translate(80 55)"/>
</clipPath>
</defs>
</svg>
