<svg width="144" height="157" viewBox="0 0 144 157" fill="none" xmlns="http://www.w3.org/2000/svg">
<path d="M115.652 74.9021C115.652 74.9021 123.703 78.8056 126.535 88.8881C129.367 98.9706 138.022 125.227 138.022 125.227C138.022 125.227 142.971 131.021 143.505 135.31C144.033 139.598 142.977 149.978 141.382 151.916C139.793 153.853 137.524 153.532 137.524 153.532L116.69 151.565L108.487 96.9051L115.652 74.9021Z" fill="#FF6652"/>
<path d="M46.7647 73.9505C46.7647 73.9505 31.8708 78.6008 28.159 82.6443L40.3556 139.108L40.1621 156.921H110.785C110.785 156.04 111.418 97.7739 111.418 97.7739L115.664 74.9074L90.5611 70.5079L85.6121 66.6395L57.683 68.0456L53.4377 72.27L46.7647 73.9505Z" fill="#FF6652"/>
<g opacity="0.3">
<path opacity="0.3" d="M52.4239 122.934C52.2069 122.455 51.8961 121.936 51.3801 121.831C50.5299 121.656 49.9611 122.659 49.6738 123.471C47.381 129.935 44.3436 135.881 40.3973 141.494L40.2155 150.165C44.3319 146.716 48.3896 143.023 51.0166 138.349C53.6318 133.676 54.6404 127.812 52.4239 122.934Z" fill="black"/>
</g>
<path d="M28.1535 82.645C28.1535 82.645 23.2455 89.3025 21.205 93.6495C19.1644 97.9964 2.27678 134.499 1.26235 138.268C0.24206 142.037 -2.37904 153.911 5.33766 156.665H21.205L37.1309 124.615L37.946 87.4179L28.1535 82.645Z" fill="#FF6652"/>
<path d="M22.225 133.513C22.2016 133.536 21.8732 133.203 21.1402 132.789C20.4131 132.381 19.2756 131.908 17.8096 131.587C17.0767 131.43 16.2616 131.301 15.382 131.249C14.5025 131.196 13.5584 131.208 12.5967 131.43C10.6734 131.856 8.76184 133.069 7.25486 134.767C5.72442 136.465 4.78622 138.472 4.22917 140.363C3.66625 142.259 3.42583 144.039 3.27337 145.527C3.12678 147.02 3.06814 148.234 3.01536 149.074C2.99191 149.465 2.96846 149.786 2.95673 150.043C2.93914 150.264 2.92741 150.381 2.91568 150.381C2.90395 150.381 2.89809 150.264 2.89809 150.043C2.89809 149.786 2.89809 149.465 2.90395 149.074C2.92154 148.234 2.945 147.014 3.06228 145.509C3.18541 144.01 3.40824 142.212 3.95943 140.281C4.50476 138.361 5.46055 136.302 7.02617 134.563C8.56834 132.824 10.5386 131.581 12.5381 131.155C13.5349 130.934 14.5083 130.928 15.3996 130.998C16.2909 131.062 17.1177 131.202 17.8565 131.377C19.3401 131.727 20.4776 132.235 21.1989 132.684C21.5566 132.912 21.8204 133.116 21.9846 133.268C22.1488 133.419 22.2309 133.507 22.225 133.513Z" fill="#263238"/>
<path d="M14.7021 127.129C14.7021 127.106 14.8898 127.076 15.2357 127.041C15.5817 127.001 16.0859 126.989 16.7075 127.024C17.3291 127.053 18.0679 127.158 18.8712 127.345C19.6687 127.543 20.5365 127.835 21.3985 128.238C22.2546 128.652 23.0287 129.136 23.6854 129.632C24.3363 130.14 24.8816 130.641 25.2979 131.108C25.7143 131.569 26.025 131.966 26.2068 132.258C26.3944 132.549 26.4941 132.713 26.4765 132.724C26.4296 132.759 26.0016 132.123 25.1396 131.254C24.7115 130.816 24.1604 130.338 23.5153 129.86C22.8586 129.387 22.1022 128.92 21.2637 128.518C20.4193 128.121 19.5808 127.835 18.8009 127.625C18.0151 127.426 17.2997 127.304 16.6899 127.251C15.4703 127.123 14.7021 127.187 14.7021 127.129Z" fill="#263238"/>
<path d="M29.0449 125.372C29.0391 125.396 28.7811 125.372 28.312 125.314C27.8429 125.256 27.1627 125.185 26.3242 125.121C24.6471 124.993 22.3133 124.964 19.7568 125.267C17.206 125.576 14.9426 126.154 13.3418 126.668C12.5385 126.924 11.8935 127.152 11.4537 127.321C11.0139 127.484 10.7617 127.566 10.7559 127.549C10.75 127.531 10.9787 127.409 11.4126 127.21C11.8407 127.006 12.474 126.749 13.2773 126.463C14.8723 125.891 17.1474 125.273 19.7274 124.964C22.3016 124.66 24.6647 124.725 26.3476 124.905C27.192 124.993 27.8722 125.098 28.3354 125.191C28.7987 125.296 29.0508 125.355 29.0449 125.372Z" fill="#263238"/>
<path d="M74.2482 94.1857C74.2423 94.1915 74.1896 94.1273 74.084 93.9931C73.9726 93.8414 73.826 93.6489 73.6501 93.4155C73.2631 92.8787 72.7236 92.1376 72.0552 91.2157C70.6831 89.2903 68.7773 86.6121 66.5257 83.4555L66.7719 83.4205C65.9158 85.9178 64.9718 88.6776 63.9808 91.5775L63.9163 91.7584L63.758 91.6533C63.6524 91.5892 63.541 91.5133 63.4296 91.4433C62.1161 90.6148 60.9551 89.617 59.9758 88.5376C58.9966 87.4523 58.1815 86.297 57.5072 85.1417C56.1586 82.8253 55.3435 80.5439 54.7923 78.6126C54.2411 76.6754 53.9538 75.065 53.7661 73.9623C53.6723 73.4313 53.602 73.0112 53.5433 72.6903C53.514 72.5444 53.4847 72.4394 53.4671 72.3635C53.4378 72.2994 53.426 72.2585 53.4319 72.2585C53.4964 72.2293 53.6665 72.842 53.8834 73.9448C54.1121 75.0417 54.4287 76.6404 55.0034 78.5601C55.578 80.4739 56.4048 82.732 57.7535 85.0075C58.4278 86.1453 59.2312 87.2773 60.1987 88.345C61.1721 89.4011 62.3096 90.3814 63.5938 91.1924C63.7052 91.2624 63.8166 91.3324 63.9163 91.3966L63.6935 91.4783C64.6962 88.5784 65.6461 85.8244 66.5081 83.3329L66.596 83.0704L66.7543 83.2979C68.965 86.4779 70.8414 89.1794 72.1901 91.1224C72.8351 92.0618 73.3452 92.8203 73.7205 93.3688C73.8847 93.6138 74.0137 93.8122 74.1192 93.9698C74.2072 94.1098 74.2541 94.1798 74.2482 94.1857Z" fill="#263238"/>
<g opacity="0.3">
<path opacity="0.3" d="M92.6313 121.136C91.9746 127.666 93.4229 134.387 96.7125 140.07C99.9962 145.759 104.816 150.824 110.815 153.549C111.008 147.755 110.727 140.928 110.92 135.134L92.6313 121.136Z" fill="black"/>
</g>
<path d="M91.9683 113.511C91.9683 113.511 89.4059 114.217 91.3292 119.45C93.2525 124.678 93.8916 124.363 95.1758 129.259C96.46 134.148 97.9552 138.618 100.201 141.383C102.447 144.149 110.785 149.785 110.785 149.785L118.267 142.766C118.267 142.766 117.036 137.532 117.329 133.979C117.622 130.426 118.373 121.703 118.267 120.215C118.162 118.727 116.555 115.109 116.555 115.109V112.635L112.708 100.855C112.708 100.855 110.568 99.898 109.823 103.3L108.539 99.688C108.539 99.688 106.51 99.367 105.977 103.516C105.443 107.664 106.405 113.406 106.405 113.406L105.338 120.641L103.737 125.53L102.347 125.74C102.347 125.74 100.254 125.174 99.1104 121.253C97.9552 117.338 94.8533 112.659 91.9683 113.511Z" fill="#FFBE9D"/>
<path d="M115.758 132.007C115.752 132.007 115.74 131.913 115.722 131.738C115.711 131.534 115.693 131.277 115.67 130.956C115.629 130.244 115.576 129.258 115.511 128.027C115.394 125.489 115.236 121.953 115.048 117.828L115.083 117.916C114.737 117.507 114.127 117.385 113.57 117.525C113.002 117.659 112.497 118.009 112.181 118.534C111.53 119.578 111.489 120.944 111.289 122.262C110.885 125.244 110.498 128.08 110.146 130.67C109.97 131.96 109.782 133.191 109.524 134.329C109.278 135.467 108.932 136.505 108.598 137.433C108.27 138.361 107.976 139.201 107.795 139.959C107.613 140.718 107.537 141.383 107.554 141.932C107.578 143.028 107.9 143.589 107.847 143.6C107.836 143.606 107.777 143.466 107.666 143.192C107.578 142.912 107.454 142.492 107.431 141.937C107.396 141.383 107.454 140.695 107.625 139.924C107.795 139.154 108.076 138.302 108.393 137.369C108.715 136.435 109.044 135.414 109.278 134.282C109.518 133.156 109.694 131.931 109.864 130.641C110.21 128.051 110.586 125.215 110.984 122.233C111.078 121.568 111.149 120.915 111.266 120.255C111.383 119.602 111.565 118.948 111.928 118.388C112.269 117.816 112.867 117.396 113.5 117.25C114.127 117.093 114.872 117.233 115.3 117.746L115.329 117.787V117.834C115.47 121.959 115.593 125.495 115.681 128.039C115.711 129.27 115.74 130.256 115.758 130.974C115.763 131.295 115.763 131.551 115.763 131.756C115.769 131.919 115.763 132.007 115.758 132.007Z" fill="#EB996E"/>
<path d="M111.665 118.604C111.647 118.61 111.53 118.377 111.348 117.939C111.172 117.502 110.938 116.854 110.721 116.031C110.504 115.214 110.298 114.217 110.181 113.102C110.123 112.542 110.081 111.947 110.152 111.328C110.216 110.71 110.398 110.056 110.797 109.502C111.137 109.024 111.618 108.639 112.163 108.481L112.28 108.446L112.339 108.551C113.424 110.453 114.362 112.134 115.025 113.341C115.33 113.907 115.582 114.38 115.793 114.771C115.969 115.109 116.057 115.296 116.039 115.308C116.021 115.319 115.904 115.144 115.699 114.823C115.47 114.45 115.189 113.989 114.855 113.441C114.145 112.256 113.172 110.599 112.075 108.703L112.251 108.773C111.782 108.913 111.354 109.245 111.049 109.683C110.691 110.185 110.515 110.78 110.451 111.363C110.386 111.953 110.416 112.53 110.463 113.079C110.562 114.182 110.738 115.168 110.932 115.985C111.119 116.801 111.319 117.455 111.459 117.904C111.606 118.348 111.688 118.599 111.665 118.604Z" fill="#EB996E"/>
<path d="M109.876 119.567C109.852 119.567 109.829 119.328 109.806 118.89C109.788 118.388 109.759 117.77 109.729 117.041C109.677 115.477 109.63 113.318 109.594 110.932C109.577 108.545 109.483 106.38 109.688 104.811C109.788 104.029 109.946 103.405 110.087 102.99C110.228 102.57 110.345 102.36 110.363 102.366C110.415 102.384 110.034 103.288 109.899 104.84C109.753 106.386 109.876 108.545 109.894 110.932C109.929 113.318 109.94 115.477 109.94 117.041C109.935 117.77 109.923 118.388 109.917 118.896C109.911 119.322 109.899 119.561 109.876 119.567Z" fill="#EB996E"/>
<path d="M103.549 139.178C103.508 139.143 103.972 138.595 104.552 137.597C104.845 137.101 105.144 136.483 105.42 135.783C105.684 135.071 105.924 134.271 106.088 133.414C106.241 132.55 106.294 131.722 106.294 130.963C106.282 130.205 106.217 129.522 106.118 128.962C105.924 127.83 105.678 127.153 105.731 127.135C105.748 127.13 105.824 127.293 105.942 127.596C106.065 127.9 106.2 128.355 106.329 128.921C106.458 129.493 106.546 130.187 106.575 130.957C106.593 131.733 106.54 132.585 106.387 133.466C106.223 134.347 105.971 135.164 105.684 135.882C105.385 136.594 105.056 137.218 104.734 137.708C104.417 138.198 104.13 138.577 103.907 138.817C103.696 139.062 103.567 139.19 103.549 139.178Z" fill="#EB996E"/>
<path d="M116.684 135.519L123.175 137.76C123.175 137.76 129.373 134.568 133.648 137.76C137.923 140.951 141.634 149.359 140.462 152.761C140.462 152.761 137.512 156.384 135.266 156.915C133.021 157.446 124.295 155.346 120.666 154.582C117.024 153.817 110.773 149.774 110.773 149.774L116.684 135.519Z" fill="#FFBE9D"/>
<path d="M117.482 145.036C117.458 145.036 117.435 144.831 117.412 144.464C117.388 144.026 117.353 143.507 117.318 142.906C117.247 141.587 117.159 139.767 117.13 137.748C117.101 135.729 117.159 133.903 117.283 132.584C117.341 131.925 117.412 131.394 117.476 131.026C117.541 130.659 117.587 130.46 117.611 130.466C117.658 130.472 117.558 131.283 117.494 132.596C117.429 133.909 117.406 135.729 117.435 137.742C117.47 139.714 117.505 141.5 117.529 142.9C117.535 143.559 117.535 144.096 117.523 144.464C117.523 144.831 117.505 145.036 117.482 145.036Z" fill="#EB996E"/>
<path d="M138.89 137.504C138.843 137.55 138.175 136.629 136.732 135.567C135.307 134.505 132.997 133.373 130.265 133.221C127.526 133.075 125.104 133.945 123.574 134.843C122.02 135.742 121.258 136.582 121.217 136.535C121.205 136.524 121.387 136.308 121.75 135.958C122.12 135.607 122.689 135.141 123.463 134.662C124.993 133.7 127.468 132.766 130.282 132.923C133.097 133.081 135.454 134.277 136.867 135.397C137.583 135.958 138.104 136.489 138.427 136.874C138.749 137.265 138.908 137.498 138.89 137.504Z" fill="#263238"/>
<path d="M138.058 132.118C138.017 132.182 137.149 131.307 135.355 130.636C133.59 129.947 130.851 129.632 128.043 130.42C126.641 130.811 125.357 131.365 124.261 131.983C123.164 132.608 122.249 133.29 121.522 133.909C120.795 134.527 120.238 135.07 119.857 135.443C119.476 135.823 119.265 136.027 119.247 136.015C119.235 136.004 119.417 135.77 119.775 135.362C120.132 134.959 120.666 134.393 121.387 133.746C122.103 133.098 123.017 132.386 124.126 131.738C125.234 131.097 126.536 130.519 127.966 130.122C130.846 129.317 133.654 129.679 135.437 130.431C136.34 130.799 137.008 131.225 137.436 131.552C137.659 131.709 137.806 131.861 137.911 131.954C138.011 132.059 138.064 132.112 138.058 132.118Z" fill="#263238"/>
<path d="M138.111 127.45C138.093 127.508 136.961 127.164 135.073 126.913C134.129 126.779 132.998 126.703 131.743 126.703C130.488 126.72 129.11 126.825 127.679 127.065C126.254 127.321 124.923 127.695 123.733 128.103C122.554 128.529 121.516 128.984 120.678 129.434C118.995 130.315 118.045 131.021 118.01 130.974C117.998 130.956 118.227 130.776 118.661 130.455C118.872 130.291 119.142 130.105 119.464 129.906C119.787 129.708 120.15 129.463 120.572 129.247C121.405 128.774 122.449 128.296 123.633 127.846C124.829 127.421 126.178 127.035 127.62 126.773C129.069 126.528 130.464 126.429 131.737 126.429C133.009 126.446 134.153 126.545 135.097 126.709C135.572 126.767 135.994 126.878 136.369 126.954C136.744 127.03 137.061 127.117 137.313 127.193C137.835 127.339 138.117 127.432 138.111 127.45Z" fill="#263238"/>
<path d="M88.3681 70.3157C88.3681 70.3157 88.6671 70.8758 88.8196 72.0311C88.9779 73.1805 88.9545 74.9076 88.5733 77.0432C88.3798 78.1109 88.1218 79.2837 87.7348 80.5382C87.3302 81.7927 86.7204 83.0763 86.0285 84.4183C84.6329 87.1024 82.8679 90.0256 80.8332 93.1472L80.5928 93.5148V93.0772C80.5869 91.0175 80.5869 88.8528 80.581 86.6006L80.8097 86.7114C79.0623 88.1118 77.227 89.588 75.333 91.1109L75.3799 91.0408C74.1133 95.0435 73.2748 99.5013 72.9464 104.14C72.4128 111.241 72.8409 118.033 73.181 124.194C73.4683 130.362 73.6559 135.922 73.8494 140.584C74.0371 145.252 74.2071 149.021 74.3479 151.629C74.4241 152.919 74.4827 153.928 74.5238 154.628C74.5472 154.961 74.5648 155.218 74.5765 155.41C74.5883 155.585 74.5824 155.679 74.5824 155.679C74.5824 155.679 74.5648 155.591 74.5414 155.416C74.5238 155.229 74.4945 154.967 74.4593 154.64C74.3948 153.957 74.3127 152.942 74.2247 151.641C74.0488 149.033 73.8436 145.264 73.6325 140.596C73.4214 135.928 73.1751 130.373 72.8937 124.212C72.5418 118.056 72.102 111.247 72.6356 104.122C72.9699 99.4663 73.8084 94.9852 75.0926 90.9591L75.1043 90.9183L75.1395 90.8891C77.0335 89.3721 78.8747 87.9017 80.6221 86.5014L80.8508 86.3205V86.6122C80.8449 88.8586 80.8449 91.0233 80.839 93.0889L80.5986 93.0188C84.627 86.8048 87.9049 81.4018 88.4091 77.0315C88.8137 74.9135 88.8606 73.2039 88.7258 72.0544C88.6671 71.4768 88.5557 71.0508 88.4854 70.7591C88.4033 70.4615 88.3681 70.3157 88.3681 70.3157Z" fill="#263238"/>
<path d="M77.8489 145.579L77.6378 145.573C76.7875 145.596 76.0311 146.367 76.0311 147.213C76.0311 148.059 76.7817 148.835 77.626 148.864C78.4763 148.893 79.2796 148.17 79.3324 147.329C79.3969 146.483 78.6933 145.661 77.8489 145.579Z" fill="white"/>
<path d="M77.8489 123.092L77.6378 123.086C76.7875 123.11 76.0311 123.88 76.0311 124.726C76.0311 125.572 76.7817 126.348 77.626 126.377C78.4763 126.406 79.2796 125.683 79.3324 124.842C79.3969 123.996 78.6933 123.174 77.8489 123.092Z" fill="white"/>
<path d="M77.6319 102.973C78.4822 103.002 79.2855 102.279 79.3383 101.439C79.3969 100.598 78.6933 99.7756 77.8489 99.6939L77.6378 99.6881C76.7875 99.7114 76.0311 100.482 76.0311 101.328C76.0311 102.168 76.7817 102.944 77.6319 102.973Z" fill="white"/>
<path d="M52.3119 43.9659C50.2537 41.702 48.1838 39.4089 46.6827 36.7482C45.1816 34.0875 44.2903 30.9776 44.7887 27.9668C45.0761 26.2047 45.8325 24.5302 45.9498 22.7505C46.1139 20.2999 45.0819 17.7385 45.9498 15.4454C47.316 11.857 52.1712 11.3027 55.1148 8.82289C57.4075 6.89158 58.5216 3.7583 61.0489 2.13039C63.2537 0.712536 66.0859 0.741709 68.6835 1.1093C71.2812 1.47689 73.8964 2.13039 76.4999 1.7803C78.3528 1.5294 80.1002 0.788388 81.918 0.339109C83.7358 -0.11017 85.7588 -0.226868 87.3772 0.706699C88.9955 1.64027 89.9044 3.92751 88.8431 5.46206C91.8571 4.07921 95.6861 6.41896 96.5129 9.61643C97.3397 12.8139 95.6861 16.2739 93.1295 18.3803C90.5729 20.4925 87.2716 21.4727 84.0113 22.0854C74.7759 23.8183 64.7607 22.8381 56.8035 17.8668" fill="#263238"/>
<path d="M84.7794 74.8556C84.3279 71.3781 83.9585 68.4782 83.935 68.1164C83.935 68.1164 95.6156 65.5025 94.9706 53.7512C94.6598 48.0739 93.059 36.4219 91.4934 25.9017C89.8105 14.6056 79.6721 6.4952 68.2202 7.25372L67.0826 7.32957C54.8508 8.85829 49.3272 20.0494 51.2036 32.1741L57.8003 72.8251C57.8003 72.8251 60.6149 81.8165 66.6428 83.3744L74.2423 94.1805L75.4971 89.5301L81.1615 84.6231C81.1615 84.6231 82.4632 83.2227 83.9526 80.4862C85.184 78.2515 84.926 75.9467 84.7794 74.8556Z" fill="#FFBE9D"/>
<path d="M83.9409 67.9471C83.9409 67.9471 76.5233 69.0499 68.2613 64.6213C68.2613 64.6213 72.4656 72.8308 84.1696 70.987L83.9409 67.9471Z" fill="#EB996E"/>
<path d="M89.3476 31.835C89.1541 32.0684 87.8113 31.2106 85.9994 31.339C84.1875 31.4382 82.9151 32.4535 82.704 32.2492C82.5984 32.1559 82.786 31.7474 83.3372 31.2923C83.8826 30.8372 84.8266 30.3646 85.9583 30.2946C87.0901 30.2246 88.0693 30.5746 88.644 30.9656C89.2303 31.3448 89.4414 31.7299 89.3476 31.835Z" fill="#263238"/>
<path d="M71.545 33.3579C71.3515 33.5913 70.0087 32.7336 68.1968 32.8619C66.3849 32.9611 65.1125 33.9764 64.9014 33.7722C64.7958 33.6788 64.9835 33.2704 65.5347 32.8153C66.0742 32.3602 67.0241 31.8875 68.1499 31.8175C69.2816 31.7475 70.2609 32.0976 70.8355 32.4885C71.4219 32.8678 71.6389 33.2529 71.545 33.3579Z" fill="#263238"/>
<path d="M79.021 46.3053C79.0034 46.2062 80.1176 45.9319 81.9295 45.5818C82.3868 45.506 82.8208 45.3834 82.8794 45.0625C82.9674 44.7241 82.7387 44.2398 82.4807 43.7147C81.9705 42.6294 81.4369 41.4916 80.874 40.2955C78.634 35.4235 76.9804 31.4091 77.1798 31.3216C77.3792 31.2341 79.3494 35.1084 81.5894 39.9804C82.1288 41.1824 82.6448 42.326 83.1374 43.423C83.3485 43.9364 83.6886 44.5082 83.501 45.2142C83.4013 45.5643 83.0788 45.8386 82.7856 45.9377C82.4924 46.0486 82.2344 46.0719 82.0057 46.1011C80.1762 46.3228 79.0386 46.4045 79.021 46.3053Z" fill="#263238"/>
<path d="M71.5333 26.252C71.3867 26.7538 69.5631 26.6429 67.4521 27.0397C65.3353 27.3956 63.6583 28.1308 63.3475 27.7049C63.2067 27.5007 63.4765 27.0222 64.1391 26.4971C64.7958 25.9778 65.863 25.4526 67.1296 25.2251C68.3962 25.0034 69.5807 25.1259 70.3781 25.3885C71.1756 25.6569 71.5978 26.0186 71.5333 26.252Z" fill="#263238"/>
<path d="M88.327 26.6542C88.0338 27.0859 86.7555 26.7417 85.2544 26.8234C83.7474 26.8525 82.4984 27.2843 82.1759 26.8759C82.0352 26.6775 82.2052 26.2516 82.7388 25.8256C83.2607 25.4055 84.1579 25.0263 85.1899 24.9854C86.2219 24.9504 87.1425 25.2596 87.6937 25.6447C88.2566 26.0357 88.456 26.4441 88.327 26.6542Z" fill="#263238"/>
<path d="M52.7516 40.8099C52.5464 40.7341 44.4838 38.9603 45.2812 46.9773C46.0787 54.9885 54.804 52.3803 54.7981 52.1469C54.7864 51.9135 52.7516 40.8099 52.7516 40.8099Z" fill="#FFBE9D"/>
<path d="M51.2273 49.5155C51.1921 49.4921 51.0983 49.6263 50.8696 49.7605C50.6468 49.8889 50.2598 49.9998 49.8258 49.8831C48.9463 49.6555 48.096 48.3835 47.9143 46.9423C47.8204 46.213 47.9084 45.507 48.1078 44.906C48.2954 44.2933 48.6355 43.8499 49.0577 43.7332C49.474 43.5932 49.8024 43.8207 49.9255 44.0366C50.0545 44.2525 50.0193 44.4159 50.0663 44.4217C50.0897 44.4392 50.2246 44.27 50.1307 43.9433C50.0838 43.7857 49.9666 43.6107 49.7613 43.4706C49.5503 43.3306 49.2629 43.2839 48.9639 43.3423C48.3482 43.4473 47.8439 44.0716 47.6211 44.731C47.3631 45.3961 47.2517 46.1955 47.3572 47.0123C47.5683 48.6227 48.5475 50.0523 49.7496 50.2682C50.3301 50.3615 50.7875 50.1456 51.0103 49.9297C51.2331 49.708 51.2566 49.5271 51.2273 49.5155Z" fill="#EB996E"/>
<path d="M90.9015 14.9557C90.3503 18.1473 83.8474 21.0647 78.4586 20.913C73.4921 20.7671 71.0352 18.3165 67.4231 16.5719C65.1362 15.4691 65.1362 15.4691 62.0401 15.9709C59.5305 16.3794 58.2346 19.3201 56.8273 21.4265C59.507 27.2437 58.4222 34.0063 57.2905 40.3078C57.1674 41.0022 57.009 41.7549 56.4754 42.2217C55.5724 43.0152 54.1006 42.5426 53.2152 41.7315C51.7903 40.4362 51.1394 38.5049 50.6762 36.6436C49.6149 32.3959 49.2044 27.9439 49.8787 23.6145C50.5531 19.2851 52.3532 15.084 55.3262 11.8516C59.0379 7.81388 64.4677 5.48579 69.9621 5.20572C75.4564 4.92565 80.9742 6.61774 85.5714 9.61683C87.6999 10.9997 89.6936 12.7209 90.9015 14.9557Z" fill="#263238"/>
<path d="M80.2117 50.3607C78.8454 49.7247 77.4733 49.0888 76.1071 48.4586C75.8725 48.3477 75.6204 48.2369 75.3624 48.2719C75.0692 48.3127 74.8405 48.5286 74.6529 48.7503C73.7029 49.8998 73.4625 51.6269 74.1955 52.9222C74.9343 54.2175 76.6641 54.9002 78.048 54.3284C79.5022 53.7274 80.2117 52.047 80.3231 50.4833L80.2117 50.3607Z" fill="#EB996E"/>
<path d="M78.1772 54.6198C78.1889 54.6548 77.9895 54.7715 77.5791 54.859C77.1745 54.9348 76.5412 54.9699 75.8141 54.7306C75.0929 54.5031 74.2778 53.9429 73.7735 53.0444C73.2634 52.1692 73.0757 50.938 73.5214 49.8236C73.7325 49.2693 74.0667 48.7791 74.4713 48.394C74.6765 48.2015 74.8935 48.0381 75.1398 47.8922C75.2688 47.8222 75.4271 47.7522 75.6147 47.7405C75.7965 47.7289 75.9607 47.7755 76.0897 47.8339C76.3594 47.9506 76.5295 48.079 76.7288 48.1957C76.9224 48.3124 77.1041 48.429 77.2859 48.5399C77.6377 48.7616 77.972 48.9658 78.2827 49.1642C79.5024 49.9344 80.2295 50.4421 80.1884 50.5179C80.1474 50.5879 79.3382 50.2087 78.0658 49.5377C77.7433 49.3626 77.3973 49.1759 77.0279 48.9775C76.8403 48.8725 76.6468 48.7675 76.4533 48.6624C76.2598 48.5574 76.0428 48.4232 75.8728 48.359C75.6851 48.2948 75.603 48.3007 75.4212 48.3999C75.2395 48.5107 75.046 48.6624 74.8818 48.8258C74.5417 49.1584 74.2661 49.5727 74.0843 50.0453C73.709 50.9847 73.8439 52.0058 74.2602 52.7818C74.6707 53.5637 75.3333 54.0771 75.9548 54.3339C76.5823 54.5964 77.1569 54.6314 77.5439 54.6314C77.9426 54.6139 78.1596 54.5789 78.1772 54.6198Z" fill="#263238"/>
<path d="M76.8807 36.2059C76.8338 36.2118 76.8866 35.4591 76.5582 34.1754C76.2357 32.921 75.3913 31.0713 73.4915 29.636C72.5474 28.9358 71.3629 28.3465 69.9966 28.1073C68.6421 27.8797 67.1058 27.9205 65.6516 28.4748C64.9186 28.7316 64.2091 29.1108 63.5641 29.5951C62.9074 30.0677 62.3093 30.6571 61.8167 31.3397C60.8023 32.6876 60.2276 34.4147 60.21 36.1943C60.2276 37.9739 60.7964 39.7068 61.8167 41.0547C62.3093 41.7373 62.9074 42.3266 63.5641 42.8051C64.215 43.2894 64.9186 43.6745 65.6516 43.9254C67.1058 44.4797 68.6421 44.5205 69.9966 44.293C71.3629 44.0537 72.5474 43.4644 73.4915 42.7642C75.3913 41.3347 76.2357 39.4851 76.5582 38.2248C76.8866 36.947 76.8338 36.2001 76.8807 36.2059C76.8866 36.2059 76.8866 36.2526 76.8866 36.3401C76.8866 36.451 76.8807 36.5794 76.8807 36.7369C76.8807 36.912 76.8748 37.1278 76.8279 37.3846C76.7927 37.6413 76.7634 37.933 76.6696 38.2598C76.5347 38.9133 76.2357 39.6893 75.7607 40.5179C75.2799 41.3406 74.5821 42.2041 73.6204 42.9393C72.6646 43.6686 71.4509 44.2871 70.0436 44.5439C68.648 44.7889 67.0648 44.7539 65.5578 44.1938C64.7955 43.937 64.0625 43.5403 63.3882 43.0443C62.708 42.5542 62.0865 41.9474 61.5763 41.2414C60.5208 39.8469 59.9227 38.0556 59.9051 36.2059C59.9227 34.3563 60.5208 32.565 61.5763 31.1705C62.0865 30.4645 62.708 29.8577 63.3882 29.3676C64.0625 28.8716 64.7955 28.4748 65.5578 28.2181C67.0706 27.6521 68.648 27.6171 70.0436 27.868C71.4509 28.1248 72.6646 28.7491 73.6204 29.4726C74.5821 30.2078 75.2799 31.0713 75.7607 31.894C76.2357 32.7226 76.5347 33.4986 76.6696 34.1521C76.7634 34.473 76.7927 34.7706 76.8279 35.0273C76.869 35.284 76.8807 35.4999 76.8807 35.675C76.8807 35.8325 76.8866 35.9667 76.8866 36.0717C76.8866 36.1593 76.8866 36.2059 76.8807 36.2059Z" fill="#263238"/>
<path d="M96.9585 35.4183C96.9116 35.4241 96.9644 34.689 96.6419 33.4403C96.3252 32.215 95.5043 30.4121 93.6514 29.0234C92.7366 28.3407 91.5815 27.7631 90.2504 27.5355C88.9311 27.3138 87.4358 27.3546 86.0168 27.8973C85.3014 28.1423 84.6153 28.5157 83.9821 28.9884C83.3429 29.4493 82.7624 30.027 82.2816 30.6921C81.2906 32.005 80.7335 33.6854 80.716 35.4241C80.7335 37.1629 81.2906 38.8433 82.2757 40.1562C82.7565 40.8213 83.337 41.3931 83.9762 41.8599C84.6095 42.3325 85.2955 42.706 86.0109 42.951C87.4299 43.4878 88.9193 43.5345 90.2445 43.3128C91.5756 43.0794 92.7308 42.5018 93.6455 41.8249C95.4985 40.4304 96.3194 38.6333 96.6302 37.408C96.9644 36.1477 96.9116 35.4125 96.9585 35.4183C96.9703 35.4183 96.9703 35.5992 96.9644 35.9376C96.9644 36.1068 96.9585 36.3227 96.9175 36.5678C96.8823 36.8187 96.853 37.1046 96.765 37.4197C96.4777 38.6683 95.6744 40.5296 93.7921 41.9825C92.8598 42.6943 91.6753 43.3011 90.3032 43.5462C88.9428 43.7854 87.4006 43.7504 85.9288 43.2019C85.19 42.951 84.4746 42.5659 83.8179 42.0758C83.1553 41.5974 82.5513 41.0081 82.0529 40.3195C81.0209 38.96 80.4404 37.2154 80.4286 35.4125C80.4462 33.6095 81.0267 31.8649 82.0588 30.5054C82.5572 29.8169 83.1611 29.2218 83.8237 28.7491C84.4805 28.2649 85.1958 27.8798 85.9347 27.6289C87.4065 27.0804 88.9487 27.0454 90.309 27.2846C91.6812 27.5355 92.8656 28.1423 93.798 28.8483C95.6802 30.3012 96.4836 32.1567 96.7709 33.4111C96.8588 33.7262 96.894 34.0121 96.9233 34.263C96.9644 34.5081 96.9761 34.724 96.9702 34.8932C96.9702 35.2374 96.9703 35.4183 96.9585 35.4183Z" fill="#263238"/>
<path d="M80.5747 33.5736C80.5395 33.6086 80.346 33.4452 79.9942 33.276C79.6424 33.1068 79.1146 32.9434 78.5165 32.9551C77.9243 32.9609 77.3965 33.1477 77.0506 33.3285C76.6987 33.5094 76.517 33.6786 76.4818 33.6494C76.4525 33.6261 76.5873 33.3927 76.9392 33.1477C77.2851 32.9026 77.848 32.6634 78.5107 32.6517C79.1674 32.64 79.742 32.8559 80.0997 33.0893C80.4515 33.3227 80.5981 33.5503 80.5747 33.5736Z" fill="#263238"/>
<path d="M60.5683 35.0149C60.621 35.0849 58.9733 36.3919 56.8917 37.9323C54.81 39.4785 53.0861 40.6747 53.0333 40.6105C52.9805 40.5405 54.6283 39.2335 56.7099 37.6931C58.7915 36.1469 60.5213 34.9449 60.5683 35.0149Z" fill="#263238"/>
<g opacity="0.3">
<path opacity="0.3" d="M53.6317 72.9877C52.8166 80.9055 55.8424 89.2667 62.2221 94.0629C62.7205 94.4422 63.3538 94.8098 63.9402 94.5997C64.3506 94.4539 64.6145 94.0629 64.8315 93.6837C66.6492 90.5504 67.2591 87.0903 66.7372 83.5078C65.7286 86.1568 64.8608 88.7533 63.8405 91.5248C58.2758 88.1698 54.8103 81.028 53.6317 72.9877Z" fill="black"/>
</g>
<path opacity="0.3" d="M75.2398 90.994L79.9249 89.2902L80.6989 97.1731C80.6989 97.1731 85.7535 88.0066 87.8468 83.823C89.9402 79.6395 88.8613 72.2585 88.8613 72.2585C88.8613 72.2585 89.6118 78.6884 84.5455 86.8863L80.7224 93.0712V86.5946L75.2398 90.994Z" fill="black"/>
<g opacity="0.3">
<path opacity="0.3" d="M20.7532 131.056C18.6657 130.076 16.2616 129.942 13.9689 130.21C11.5472 130.49 9.1137 131.231 7.21384 132.754C5.31399 134.277 4.02983 136.681 4.26438 139.097L4.49893 139.132C6.13491 134.732 9.38342 131.529 13.576 131.138C17.7686 130.753 21.8556 132.608 24.7347 135.666C24.4532 133.379 22.8466 132.037 20.7532 131.056Z" fill="black"/>
</g>
<g opacity="0.3">
<path opacity="0.3" d="M139.195 135.554C137.624 133.868 135.419 132.847 133.144 132.45C129.151 131.756 124.864 132.993 121.856 135.7L122.748 134.976C125.017 133.652 127.632 132.87 130.265 132.946C132.892 133.022 135.525 133.99 137.43 135.793C139.184 137.45 140.233 139.697 141.236 141.885C141.635 139.627 140.767 137.24 139.195 135.554Z" fill="black"/>
</g>
<path d="M109.003 98.947C108.985 98.9412 109.062 98.7137 109.214 98.3111C109.396 97.8501 109.619 97.2841 109.882 96.6131C110.451 95.1836 111.225 93.2056 112.052 91.0117C112.873 88.812 113.583 86.8107 114.093 85.3578C114.333 84.681 114.538 84.1092 114.703 83.6424C114.849 83.2398 114.943 83.0181 114.961 83.0239C114.978 83.0297 114.925 83.2631 114.814 83.6774C114.702 84.0917 114.527 84.6927 114.298 85.4278C113.841 86.8982 113.16 88.917 112.339 91.1168C111.518 93.3165 110.703 95.2828 110.088 96.6948C109.777 97.4008 109.519 97.9668 109.331 98.3577C109.138 98.7428 109.021 98.9587 109.003 98.947Z" fill="#263238"/>
<path d="M35.0788 99.5185C34.9967 99.536 34.3576 96.7586 33.654 93.3161C32.9503 89.8736 32.446 87.0729 32.5281 87.0554C32.6102 87.0379 33.2493 89.8152 33.953 93.2577C34.6566 96.7003 35.1609 99.501 35.0788 99.5185Z" fill="#263238"/>
<path d="M33.9706 134.231C34.1582 134.324 31.8244 116.049 31.8244 116.049C31.8244 116.049 33.2962 102.18 34.123 101.538L34.1465 96.643C34.1465 96.643 36.4275 95.2659 37.0373 97.489C37.0373 97.489 39.0603 95.7444 39.4121 99.8988C39.764 104.059 39.8402 108.307 39.8402 108.307L44.3377 119.498L45.0765 119.871C45.0765 119.871 46.0441 111.102 46.607 109.812C47.1699 108.523 47.5569 105.383 49.6854 105.856C51.8199 106.329 51.9958 108.085 51.6146 110.944C51.2335 113.803 50.7527 116.755 50.9344 118.605C51.1103 120.455 51.9547 124.522 51.6967 127.748C51.4387 130.981 49.662 134.388 47.7914 136.781C45.9268 139.173 42.3616 144.121 40.4207 145.614C39.7405 146.14 33.9706 134.231 33.9706 134.231Z" fill="#FFBE9D"/>
<path d="M36.2455 119.358C36.222 119.358 36.2279 119.078 36.2572 118.576C36.2983 118.016 36.3452 117.304 36.4038 116.453C36.5387 114.661 36.7498 112.187 37.0019 109.457C37.1309 108.097 37.254 106.796 37.3655 105.612C37.4241 105.022 37.4593 104.468 37.383 103.96C37.3127 103.453 37.1133 103.015 36.8201 102.7C36.2279 102.058 35.4597 101.895 34.9848 101.901C34.4864 101.895 34.2284 102.029 34.2166 102C34.2108 101.988 34.2753 101.959 34.3984 101.906C34.5274 101.86 34.7209 101.801 34.9789 101.784C35.4832 101.749 36.3041 101.877 36.9784 102.56C37.3127 102.898 37.5472 103.388 37.6293 103.925C37.7231 104.468 37.688 105.046 37.641 105.641C37.5355 106.831 37.4182 108.126 37.301 109.492C37.0488 112.222 36.8025 114.69 36.6149 116.476C36.5152 117.322 36.4331 118.034 36.3686 118.588C36.31 119.084 36.2631 119.358 36.2455 119.358Z" fill="#EB996E"/>
<path d="M38.6615 111.883C38.7084 111.918 38.2041 112.356 37.864 113.325C37.5005 114.276 37.3715 115.711 37.1135 117.269C36.8731 118.833 36.6326 120.245 36.4509 121.26C36.2632 122.281 36.1284 122.905 36.0873 122.9C36.0463 122.894 36.1049 122.252 36.2398 121.225C36.3688 120.198 36.574 118.78 36.8144 117.216C37.0666 115.664 37.2308 114.223 37.6647 113.237C37.8699 112.747 38.1162 112.391 38.3155 112.169C38.509 111.959 38.6498 111.872 38.6615 111.883Z" fill="#EB996E"/>
<path d="M37.0079 97.2501C37.0313 97.2443 37.0841 97.4485 37.1662 97.8278C37.2483 98.2012 37.348 98.7438 37.4594 99.4206C37.6822 100.768 37.9285 102.641 38.0868 104.724C38.2393 106.808 38.2744 108.698 38.251 110.063C38.2393 110.746 38.2217 111.3 38.1924 111.68C38.1689 112.059 38.1454 112.269 38.122 112.269C38.0751 112.269 38.0692 111.423 38.034 110.063C37.9989 108.698 37.9343 106.819 37.7819 104.748C37.6294 102.676 37.4183 100.804 37.2483 99.4498C37.0782 98.0903 36.9668 97.256 37.0079 97.2501Z" fill="#EB996E"/>
<path d="M49.9843 114.381C50.0312 114.451 49.3275 114.772 48.4714 114.509C47.6094 114.252 47.2107 113.593 47.2869 113.564C47.3573 113.505 47.8029 114.001 48.5594 114.223C49.3099 114.456 49.9608 114.293 49.9843 114.381Z" fill="#EB996E"/>
<path d="M34.2227 131.956L22.3369 136.927H15.2535C15.2535 136.927 8.25214 139.103 7.17321 145.632C6.09428 152.167 5.94183 155.528 9.0203 156.333C12.0988 157.139 20.7947 157.232 25.1046 155.808C29.4144 154.385 40.708 145.317 40.708 145.317L41.7987 138.759L34.2227 131.956Z" fill="#FFBE9D"/>
<path d="M37.0081 139.179C36.9905 139.191 36.8733 139.086 36.668 138.87C36.4569 138.665 36.1989 138.327 35.894 137.895C35.3076 137.02 34.6626 135.696 34.2346 134.155C33.7889 132.615 33.6013 131.174 33.5016 130.135C33.4136 129.096 33.4136 128.449 33.4547 128.443C33.5016 128.437 33.572 129.079 33.7127 130.106C33.8651 131.133 34.088 132.551 34.5219 134.068C34.9441 135.591 35.5422 136.892 36.0699 137.779C36.6153 138.66 37.0492 139.138 37.0081 139.179Z" fill="#EB996E"/>
<path d="M42.1853 141.25C42.1208 141.227 42.6544 140.328 42.8597 138.712C42.9594 137.912 42.9476 136.938 42.7189 135.894C42.4903 134.849 41.9918 133.776 41.2647 132.772C40.5435 131.763 39.7284 130.887 39.0482 130.041C38.3563 129.195 37.8051 128.373 37.4416 127.626C37.078 126.879 36.908 126.219 36.8435 125.759C36.7848 125.298 36.8083 125.041 36.8259 125.041C36.8845 125.029 36.8669 126.085 37.6351 127.526C38.0104 128.244 38.5733 129.038 39.2652 129.86C39.9571 130.689 40.778 131.564 41.5169 132.591C42.2616 133.612 42.7835 134.744 43.0004 135.824C43.2232 136.903 43.2056 137.912 43.0766 138.729C42.9476 139.552 42.7189 140.188 42.5313 140.608C42.4433 140.818 42.3554 140.976 42.2909 141.081C42.2264 141.203 42.1912 141.256 42.1853 141.25Z" fill="#EB996E"/>
<path d="M23.8614 112.775C23.7852 112.816 22.4893 110.465 20.9647 107.53C19.4402 104.595 18.2674 102.185 18.3378 102.144C18.414 102.103 19.7099 104.455 21.2345 107.39C22.759 110.325 23.9376 112.734 23.8614 112.775Z" fill="white"/>
<path d="M43.0824 91.4847C43.0062 91.4497 43.8095 89.495 44.8709 87.1144C45.9381 84.7338 46.8645 82.8317 46.9408 82.8667C47.017 82.9017 46.2137 84.8564 45.1523 87.237C44.0851 89.6176 43.1587 91.5197 43.0824 91.4847Z" fill="white"/>
<path d="M61.9056 105.301C61.8411 105.353 60.6332 104.011 59.2142 102.302C57.7893 100.592 56.6927 99.1627 56.7572 99.1101C56.8217 99.0576 58.0297 100.4 59.4487 102.109C60.8677 103.819 61.9701 105.248 61.9056 105.301Z" fill="white"/>
<path d="M57.5722 124.305C57.5018 124.259 58.4107 122.893 59.6011 121.259C60.7914 119.626 61.8117 118.342 61.8762 118.395C61.9465 118.441 61.0377 119.807 59.8473 121.44C58.6628 123.074 57.6426 124.358 57.5722 124.305Z" fill="white"/>
<path d="M51.7434 151.151C51.7082 151.169 51.4385 150.725 51.0574 149.978C50.6704 149.231 50.1719 148.187 49.6735 147.014C49.1693 145.836 48.7647 144.756 48.4891 143.963C48.2193 143.169 48.0786 142.667 48.1196 142.656C48.1607 142.644 48.3718 143.117 48.6943 143.887C49.0637 144.762 49.4859 145.777 49.955 146.897C50.4358 148.012 50.8756 149.016 51.2567 149.891C51.5851 150.649 51.7845 151.128 51.7434 151.151Z" fill="white"/>
<path d="M68.3032 139.738C68.2856 139.82 66.6907 139.581 64.7439 139.207C62.7913 138.834 61.2257 138.46 61.2432 138.379C61.2608 138.297 62.8558 138.536 64.8025 138.91C66.7552 139.283 68.3208 139.656 68.3032 139.738Z" fill="white"/>
<path d="M81.1505 114.654C81.086 114.596 82.6105 112.869 84.5456 110.786C86.4806 108.708 88.1049 107.069 88.1635 107.127C88.228 107.185 86.7034 108.913 84.7684 110.996C82.8275 113.073 81.2091 114.712 81.1505 114.654Z" fill="white"/>
<path d="M94.0682 148.105C94.0037 148.158 92.1097 145.976 89.8346 143.227C87.5594 140.479 85.771 138.209 85.8355 138.157C85.9 138.104 87.794 140.287 90.0691 143.035C92.3443 145.783 94.1327 148.053 94.0682 148.105Z" fill="white"/>
<path d="M13.8637 133.851C13.9047 133.933 12.1749 134.808 10.2868 136.249C8.3928 137.679 7.08518 139.114 7.01482 139.05C6.9855 139.026 7.27282 138.636 7.81229 138.058C8.34589 137.486 9.14336 136.739 10.0991 136.01C11.0549 135.286 11.9931 134.72 12.6909 134.353C13.3887 133.991 13.8461 133.816 13.8637 133.851Z" fill="white"/>
<path d="M18.6957 120.956C18.7661 121.003 18.1504 122.047 17.3177 123.29C16.485 124.533 15.7579 125.501 15.6876 125.455C15.6172 125.408 16.2329 124.364 17.0656 123.121C17.8923 121.878 18.6253 120.909 18.6957 120.956Z" fill="white"/>
<path d="M29.5786 133.617C29.514 133.657 28.8983 132.636 28.5817 131.219C28.2533 129.807 28.3647 128.622 28.441 128.628C28.5348 128.628 28.5641 129.777 28.8808 131.149C29.1857 132.526 29.6606 133.576 29.5786 133.617Z" fill="white"/>
<path d="M31.1913 93.4039C31.2031 93.4856 30.1945 93.7015 28.9338 93.8766C27.6731 94.0574 26.641 94.1333 26.6293 94.0516C26.6176 93.9699 27.6262 93.754 28.8869 93.579C30.1476 93.3981 31.1796 93.3222 31.1913 93.4039Z" fill="white"/>
<path d="M39.3651 78.9751C39.4062 79.051 38.5208 79.6169 37.3891 80.2413C36.2573 80.8656 35.3015 81.3149 35.2605 81.239C35.2195 81.1632 36.1049 80.5972 37.2366 79.9729C38.3742 79.3485 39.3241 78.9051 39.3651 78.9751Z" fill="white"/>
<path d="M62.3573 85.0711C62.2928 85.1236 61.2784 83.91 60.0939 82.3637C58.9094 80.8175 58.0064 79.528 58.0768 79.4755C58.1413 79.423 59.1557 80.6366 60.3402 82.1829C61.5188 83.7232 62.4277 85.0186 62.3573 85.0711Z" fill="white"/>
<path d="M91.541 99.5767C91.4824 99.6292 90.4152 98.5381 89.4301 96.951C88.4333 95.364 87.9231 93.9344 87.9935 93.9053C88.0756 93.8703 88.7089 95.2298 89.6881 96.7935C90.6673 98.3572 91.6114 99.5184 91.541 99.5767Z" fill="white"/>
<path d="M102.682 103.23C102.758 103.265 102.219 104.619 101.474 106.246C100.729 107.88 100.067 109.176 99.9845 109.141C99.9082 109.106 100.448 107.752 101.192 106.124C101.937 104.49 102.606 103.195 102.682 103.23Z" fill="white"/>
<path d="M104.242 88.1001C104.177 88.1526 102.852 86.6764 101.28 84.7976C99.7088 82.9188 98.4892 81.3492 98.5537 81.2967C98.6182 81.2442 99.9434 82.7204 101.515 84.5992C103.081 86.4838 104.306 88.0475 104.242 88.1001Z" fill="white"/>
<path d="M87.2251 75.8119C87.143 75.8177 87.0198 74.5516 86.9612 72.982C86.8967 71.4183 86.9202 70.1463 87.0023 70.1405C87.0843 70.1346 87.2075 71.4008 87.2661 72.9704C87.3306 74.5399 87.313 75.8119 87.2251 75.8119Z" fill="white"/>
<path d="M101.099 75.0481C101.111 75.1298 99.4864 75.4157 97.481 75.6841C95.4697 75.9525 93.8337 76.0983 93.822 76.0166C93.8102 75.935 95.4287 75.6491 97.4399 75.3807C99.4453 75.1123 101.087 74.9664 101.099 75.0481Z" fill="white"/>
<path d="M122.947 91.0173C122.871 91.0523 121.897 89.2027 120.765 86.8863C119.64 84.5699 118.784 82.6561 118.86 82.621C118.936 82.586 119.909 84.4357 121.041 86.7521C122.167 89.0685 123.023 90.9823 122.947 91.0173Z" fill="white"/>
<path d="M119.265 104.816C119.183 104.799 119.411 103.311 119.775 101.496C120.138 99.676 120.502 98.2173 120.584 98.2348C120.666 98.2523 120.437 99.7402 120.074 101.555C119.71 103.369 119.353 104.834 119.265 104.816Z" fill="white"/>
<path d="M129.403 115.693C129.321 115.722 128.547 113.715 127.662 111.212C126.782 108.709 126.131 106.655 126.213 106.626C126.296 106.597 127.07 108.604 127.955 111.107C128.835 113.616 129.48 115.664 129.403 115.693Z" fill="white"/>
<path d="M127.99 122.058C127.972 122.134 126.571 121.842 125.029 121.002C123.481 120.173 122.466 119.164 122.525 119.111C122.583 119.041 123.662 119.928 125.175 120.739C126.676 121.55 128.019 121.97 127.99 122.058Z" fill="white"/>
<path d="M140.972 136.564C140.896 136.599 140.427 135.712 139.922 134.586C139.418 133.46 139.072 132.52 139.148 132.485C139.224 132.45 139.694 133.337 140.198 134.463C140.702 135.589 141.048 136.529 140.972 136.564Z" fill="white"/>
<path d="M64.2976 156.799C64.2155 156.811 64.0102 155.65 63.8402 154.214C63.6701 152.779 63.6056 151.606 63.6877 151.594C63.7698 151.583 63.9751 152.744 64.1451 154.179C64.3152 155.615 64.3797 156.787 64.2976 156.799Z" fill="white"/>
<path d="M104.13 155.795C104.048 155.778 104.218 154.646 104.511 153.269C104.805 151.892 105.109 150.789 105.192 150.807C105.274 150.824 105.104 151.956 104.81 153.333C104.517 154.71 104.212 155.813 104.13 155.795Z" fill="white"/>
</svg>
