<svg width="32" height="48" viewBox="0 0 32 48" fill="none" xmlns="http://www.w3.org/2000/svg">
<path d="M23.6262 3.96563C19.043 1.04598 12.6877 0.987588 8.22776 4.0941C3.99086 7.04295 1.84306 12.4034 2.03085 17.542C2.21863 22.6806 4.71853 28.9579 9.40142 31.6615L23.1332 31.6089C27.5168 28.3973 30.4862 23.2295 30.6916 17.8165C30.8911 12.3976 28.2093 6.88528 23.6262 3.96563Z" fill="#455A64"/>
<path d="M16.86 32.1522C16.8307 32.1522 16.8014 31.7317 16.772 30.9785C16.7485 30.1376 16.7192 29.0632 16.6781 27.7727C16.6077 25.0691 16.5021 21.3319 16.3202 17.2035C16.1382 13.0751 15.9152 9.34383 15.7451 6.64607C15.6688 5.36142 15.6042 4.28699 15.5514 3.44612C15.5103 2.68701 15.5045 2.27243 15.5338 2.26659C15.5631 2.26659 15.6277 2.68118 15.7216 3.42861C15.8155 4.18188 15.927 5.27383 16.0502 6.62271C16.2967 9.32047 16.5725 13.0576 16.7544 17.186C16.9363 21.3144 16.995 25.0574 16.9833 27.7668C16.9774 29.1216 16.9598 30.2193 16.9363 30.9726C16.9187 31.7317 16.8894 32.1522 16.86 32.1522Z" fill="#263238"/>
<path d="M3.41027 16.374C3.39853 16.4966 2.65326 16.5317 1.74368 16.4557C0.834094 16.3798 0.100556 16.2222 0.112293 16.1054C0.12403 15.9827 0.869302 15.9477 1.77889 16.0236C2.68847 16.0937 3.42201 16.2513 3.41027 16.374Z" fill="#263238"/>
<path d="M3.66795 11.7611C3.621 11.872 2.97549 11.691 2.23021 11.364C1.48494 11.037 0.921586 10.6808 0.968532 10.5699C1.01548 10.4589 1.66099 10.6341 2.40626 10.967C3.15154 11.294 3.71489 11.6501 3.66795 11.7611Z" fill="#263238"/>
<path d="M6.05053 8.33918C5.98598 8.43845 5.26418 8.09977 4.51304 7.4808C3.7619 6.86183 3.28657 6.21949 3.37459 6.13774C3.46261 6.05599 4.06118 6.5465 4.78885 7.14211C5.51652 7.74356 6.11508 8.23407 6.05053 8.33918Z" fill="#263238"/>
<path d="M8.45068 5.10996C8.33918 5.15668 7.99295 4.61946 7.67606 3.90707C7.35918 3.19468 7.189 2.5757 7.30049 2.52899C7.41199 2.48228 7.75822 3.01949 8.07511 3.73188C8.392 4.44427 8.55631 5.06325 8.45068 5.10996Z" fill="#263238"/>
<path d="M12.2123 2.821C12.1067 2.87355 11.7311 2.29546 11.4846 1.50132C11.2323 0.707174 11.2147 0.0239914 11.332 0.000634279C11.4553 -0.0227229 11.6607 0.602078 11.9013 1.36702C12.136 2.13781 12.3238 2.76845 12.2123 2.821Z" fill="#263238"/>
<path d="M18.4855 0.233875C18.597 0.27475 18.5325 0.76525 18.3271 1.32583C18.1275 1.89224 17.8693 2.31267 17.7578 2.27764C17.6463 2.23676 17.7109 1.74626 17.9163 1.18569C18.1158 0.619273 18.374 0.193 18.4855 0.233875Z" fill="#263238"/>
<path d="M23.145 2.22465C23.2271 2.31224 22.9279 2.72099 22.476 3.13559C22.0242 3.55018 21.5958 3.81295 21.5136 3.72536C21.4315 3.63777 21.7307 3.229 22.1826 2.81441C22.6286 2.39982 23.0628 2.13706 23.145 2.22465Z" fill="#263238"/>
<path d="M27.2412 4.85943C27.3117 4.95869 26.9478 5.32073 26.4255 5.67109C25.9091 6.02144 25.4338 6.21997 25.3634 6.1207C25.293 6.02143 25.6568 5.65941 26.1791 5.30906C26.7013 4.95871 27.1767 4.76016 27.2412 4.85943Z" fill="#263238"/>
<path d="M30.1514 8.78241C30.1983 8.89336 29.6233 9.24373 28.8721 9.56489C28.1151 9.88604 27.4637 10.0554 27.4168 9.94443C27.3698 9.83349 27.9449 9.48314 28.7019 9.16198C29.4531 8.84666 30.1045 8.67147 30.1514 8.78241Z" fill="#263238"/>
<path d="M31.3016 13.0687C31.3192 13.1855 30.7324 13.3607 29.9988 13.4483C29.2653 13.5417 28.655 13.5125 28.6433 13.3958C28.6257 13.279 29.2125 13.1038 29.946 13.0162C30.6796 12.9227 31.284 12.9461 31.3016 13.0687Z" fill="#263238"/>
<path d="M31.8943 18.3414C31.8474 18.4524 31.2253 18.2889 30.5035 17.9794C29.7817 17.6699 29.2418 17.3254 29.2888 17.2144C29.3357 17.1035 29.9578 17.267 30.6796 17.5765C31.4014 17.886 31.9471 18.2305 31.8943 18.3414Z" fill="#263238"/>
<path d="M31.3723 22.8671C31.3313 22.9781 30.5449 22.7912 29.7233 22.254C28.8959 21.7226 28.4088 21.0803 28.4969 20.9985C28.5849 20.9109 29.1835 21.3839 29.9639 21.8861C30.7386 22.3941 31.4134 22.7503 31.3723 22.8671Z" fill="#263238"/>
<path d="M29.0013 26.9841C28.9309 27.0776 28.3029 26.7097 27.7044 26.0674C27.0999 25.425 26.7831 24.7769 26.8769 24.7126C26.9767 24.6426 27.4462 25.1564 28.0213 25.7754C28.6022 26.3885 29.0834 26.8907 29.0013 26.9841Z" fill="#263238"/>
<path d="M6.52613 27.4693C6.58482 27.5744 5.9217 28.024 5.05906 28.4737C4.19056 28.9233 3.44529 29.1977 3.3866 29.0926C3.32792 28.9875 3.99104 28.5379 4.85367 28.0883C5.72218 27.6386 6.46745 27.3642 6.52613 27.4693Z" fill="#263238"/>
<path d="M4.4718 23.7431C4.52461 23.8541 3.99647 24.1986 3.29227 24.5139C2.59395 24.8292 1.98364 24.9986 1.93083 24.8876C1.87801 24.7767 2.40616 24.4322 3.11035 24.1169C3.81455 23.8015 4.41898 23.6322 4.4718 23.7431Z" fill="#263238"/>
<path d="M2.96384 20.444C2.98144 20.5608 2.33006 20.7535 1.51437 20.8703C0.698674 20.9871 0.0179535 20.9813 0.000348623 20.8645C-0.0172563 20.7477 0.634125 20.555 1.44982 20.4382C2.26551 20.3214 2.94623 20.3214 2.96384 20.444Z" fill="#263238"/>
<path d="M7.91104 18.622C7.94625 18.733 7.31247 19.0308 6.46744 19.1242C5.62241 19.2235 4.94168 19.0717 4.94755 18.9549C4.95342 18.8322 5.61654 18.7797 6.41462 18.6863C7.21858 18.6045 7.87583 18.5052 7.91104 18.622Z" fill="#263238"/>
<path d="M12.0246 14.5523C12.0598 14.6633 11.5551 14.9202 10.8744 14.9844C10.1937 15.0545 9.65378 14.9027 9.66552 14.7859C9.67726 14.6633 10.1995 14.6165 10.8333 14.5523C11.4671 14.4881 11.9894 14.4355 12.0246 14.5523Z" fill="#263238"/>
<path d="M12.811 11.2881C12.7699 11.4049 12.2242 11.3173 11.5904 11.1013C10.9566 10.8852 10.4754 10.6166 10.5165 10.4998C10.5576 10.3889 11.1034 10.4706 11.7371 10.6867C12.3709 10.9086 12.8521 11.1772 12.811 11.2881Z" fill="#263238"/>
<path d="M14.3189 7.98906C14.2367 8.07082 13.8612 7.82556 13.5912 7.36426C13.3213 6.90295 13.2978 6.45917 13.4093 6.42414C13.5267 6.3891 13.7321 6.73361 13.9668 7.14236C14.2074 7.56279 14.4069 7.90731 14.3189 7.98906Z" fill="#263238"/>
<path d="M12.5002 21.4949C12.5295 21.6116 12.0542 21.8277 11.4439 21.9737C11.0918 22.0613 10.769 22.1021 10.5578 22.1021L10.4698 21.8452C10.6282 21.816 10.728 21.8219 10.7514 21.8686C10.769 21.9153 10.7104 21.997 10.5813 22.0905L10.4932 21.8335C10.681 21.7343 10.9862 21.6292 11.3383 21.5416C11.9544 21.4073 12.4708 21.3781 12.5002 21.4949Z" fill="#263238"/>
<path d="M13.3505 27.2816C13.3974 27.3925 12.793 27.737 12.0067 28.0407C11.2203 28.3502 10.5455 28.5078 10.4985 28.3969C10.4516 28.2859 11.056 27.9472 11.8424 27.6378C12.6287 27.3283 13.3036 27.1706 13.3505 27.2816Z" fill="#263238"/>
<path d="M8.70319 24.7129C8.74426 24.8296 8.33935 25.0691 7.80533 25.2442C7.27132 25.4253 6.80772 25.4778 6.76664 25.3669C6.72557 25.2501 7.13048 25.0165 7.6645 24.8355C8.19851 24.6545 8.66211 24.5961 8.70319 24.7129Z" fill="#263238"/>
<path d="M9.05507 12.9406C9.02573 13.0574 8.3274 12.9873 7.51758 12.7012C6.70775 12.4151 6.12092 12.0355 6.17374 11.9246C6.22655 11.8136 6.87793 12.0122 7.66428 12.2866C8.45063 12.5669 9.08441 12.818 9.05507 12.9406Z" fill="#263238"/>
<path d="M20.2989 11.6613C20.3635 11.7605 19.9703 12.1401 19.4187 12.5021C18.8671 12.8642 18.3624 13.0744 18.2979 12.9751C18.2333 12.8758 18.6265 12.4963 19.1781 12.1342C19.7297 11.7722 20.2344 11.5562 20.2989 11.6613Z" fill="#263238"/>
<path d="M20.9153 17.466C20.9388 17.5827 20.528 17.7696 19.9881 17.8806C19.4541 17.9915 19.0022 17.9857 18.9729 17.8689C18.9494 17.7521 19.3602 17.5652 19.9001 17.4543C20.4341 17.3433 20.8859 17.3492 20.9153 17.466Z" fill="#263238"/>
<path d="M21.6247 24.0002C21.5719 24.1111 20.9792 23.9418 20.2926 23.6265C19.606 23.3112 19.0955 22.9667 19.1483 22.8557C19.2011 22.7448 19.7938 22.9141 20.4804 23.2294C21.1611 23.5447 21.6717 23.8892 21.6247 24.0002Z" fill="#263238"/>
<path d="M20.117 30.3535C20.0231 30.4294 19.6358 30.1141 19.2543 29.6528C18.8729 29.1857 18.6382 28.7477 18.7262 28.6718C18.8201 28.5959 19.2074 28.9112 19.5888 29.3725C19.9761 29.8397 20.2109 30.2776 20.117 30.3535Z" fill="#263238"/>
<path d="M19.812 7.38189C19.8883 7.47532 19.6301 7.79649 19.19 8.01254C18.7498 8.23443 18.3391 8.2461 18.3097 8.12931C18.2745 8.01253 18.5973 7.81984 18.9904 7.6213C19.3895 7.42861 19.7357 7.28846 19.812 7.38189Z" fill="#263238"/>
<path d="M25.3219 13.2382C25.363 13.3491 24.8525 13.6294 24.1542 13.7228C23.4558 13.8221 22.8925 13.6878 22.8983 13.571C22.9042 13.4484 23.4441 13.3783 24.0955 13.2907C24.741 13.209 25.2809 13.1272 25.3219 13.2382Z" fill="#263238"/>
<path d="M24.2248 7.98272C24.2777 8.08782 23.773 8.44985 23.0512 8.67758C22.3294 8.90531 21.7073 8.90531 21.6897 8.78853C21.6721 8.6659 22.2296 8.47905 22.9162 8.263C23.6028 8.04111 24.172 7.87177 24.2248 7.98272Z" fill="#263238"/>
<path d="M26.5249 21.3842C26.5249 21.501 25.6563 21.5769 24.6118 21.39C23.5672 21.2032 22.7809 20.8294 22.822 20.7185C22.863 20.6017 23.6787 20.7827 24.6881 20.9579C25.6974 21.1448 26.5249 21.2616 26.5249 21.3842Z" fill="#263238"/>
<path d="M24.4771 29.0219C24.4067 29.1153 23.767 28.7416 23.1333 28.1051C22.4936 27.4686 22.1239 26.8322 22.2178 26.7621C22.3176 26.6862 22.8281 27.1825 23.4443 27.7956C24.0546 28.4146 24.5534 28.9285 24.4771 29.0219Z" fill="#263238"/>
<path d="M15.475 1.76391C15.5395 1.85733 13.7262 2.58724 11.6312 4.78867C9.53626 6.93753 7.37673 10.7331 6.84271 15.3169C6.59037 17.5943 6.8075 19.8016 7.13026 21.7694C7.47062 23.7373 7.92835 25.489 8.34499 26.9489C8.76751 28.4087 9.15482 29.5766 9.41302 30.3824C9.67123 31.1941 9.81207 31.6437 9.78273 31.6554C9.75339 31.667 9.5656 31.2349 9.25458 30.4408C8.94356 29.6466 8.51518 28.4904 8.05158 27.0365C7.59385 25.5825 7.10678 23.8307 6.73708 21.8395C6.38498 19.8541 6.15025 17.6118 6.40846 15.2702C6.95421 10.5813 9.2135 6.71565 11.4082 4.57846C12.4997 3.49235 13.5267 2.76827 14.2778 2.34784C14.6417 2.1201 14.9527 1.99748 15.1581 1.89237C15.3576 1.79894 15.4691 1.75223 15.475 1.76391Z" fill="#263238"/>
<path d="M21.4549 31.9357C21.361 31.889 22.4408 30.2306 23.4266 27.2525C24.4419 24.3037 25.281 19.9417 24.6062 15.206C24.2893 12.8411 23.6027 10.6514 22.7401 8.7828C21.8422 6.93758 20.6862 5.4252 19.5594 4.36829C18.3917 3.34057 17.2415 2.75081 16.4375 2.40629C15.6277 2.06761 15.1406 1.99169 15.1465 1.95665C15.1465 1.94497 15.2697 1.95082 15.5045 1.98586C15.7333 2.02673 16.0737 2.10264 16.4962 2.25446C17.3354 2.55811 18.5208 3.11285 19.759 4.14056C20.962 5.20916 22.1532 6.7157 23.1039 8.61348C24.0076 10.5171 24.7177 12.7419 25.0404 15.1477C25.727 19.9768 24.8233 24.403 23.7201 27.3576C23.4736 28.1109 23.1508 28.7591 22.9161 29.3372C22.6344 29.8977 22.3997 30.3882 22.1884 30.7736C21.7366 31.5327 21.4784 31.9474 21.4549 31.9357Z" fill="#263238"/>
<path d="M4.47196 30.9016H28.6376L28.7843 35.7132H4.47196V30.9016Z" fill="#FF6652"/>
<path d="M6.52575 33.3083L7.91067 48H25.5801L27.0002 33.4718L6.52575 33.3083Z" fill="#FF6652"/>
<path d="M28.7843 35.7723C28.7843 35.895 23.3444 35.9884 16.6311 35.9884C9.91775 35.9884 4.47784 35.8891 4.47784 35.7723C4.47784 35.6555 9.91775 35.5563 16.6311 35.5563C23.3444 35.5563 28.7843 35.6497 28.7843 35.7723Z" fill="#263238"/>
<path d="M26.3314 40.2446C26.3548 40.2563 26.1905 40.595 25.815 41.1614C25.4335 41.722 24.8349 42.5161 23.943 43.3628L23.8315 43.4679L23.72 43.3511C22.558 42.1365 20.956 40.6475 18.9843 39.2286L19.2542 39.2169C18.5793 39.8067 17.8752 40.4198 17.1534 41.0504C16.2966 41.792 15.4633 42.5161 14.6711 43.1993L14.5361 43.3161L14.4011 43.1993C12.8988 41.938 11.5257 40.7935 10.3637 39.8242L10.5985 39.8008C9.76518 40.811 9.06685 41.6636 8.50936 42.3351C8.00469 42.9307 7.71714 43.246 7.6878 43.2285C7.66433 43.211 7.90493 42.8489 8.36265 42.2241C8.88493 41.5293 9.54805 40.6475 10.3344 39.6023L10.4342 39.468L10.5691 39.5789C11.7487 40.5307 13.1394 41.6519 14.6652 42.884L14.3894 42.8898C15.1816 42.2008 16.009 41.4767 16.8599 40.7293C17.5817 40.0986 18.2918 39.4913 18.9667 38.9016L19.0958 38.7906L19.2307 38.8899C21.2201 40.3439 22.8104 41.8854 23.943 43.1467L23.72 43.1409C25.5215 41.5234 26.2609 40.1979 26.3314 40.2446Z" fill="#263238"/>
</svg>
