<svg width="25" height="30" viewBox="0 0 25 30" fill="none" xmlns="http://www.w3.org/2000/svg">
<rect width="25" height="30" rx="5" fill="#FF6652"/>
<path d="M5.75342 8.12451C5.75293 8.12451 5.75239 8.12451 5.7519 8.12451C5.58166 8.12451 5.42154 8.19088 5.30063 8.31148C5.17839 8.43342 5.11105 8.59579 5.11105 8.76863V18.4271C5.11105 18.7813 5.40033 19.0702 5.75597 19.0711C7.25524 19.0747 9.76713 19.3871 11.5 21.2005V11.0926C11.5 10.9726 11.4693 10.8598 11.4114 10.7665C9.9892 8.47603 7.25609 8.12803 5.75342 8.12451Z" fill="white"/>
<path d="M18.8889 18.4272V8.76863C18.8889 8.59579 18.8216 8.43342 18.6994 8.31148C18.5785 8.19088 18.4182 8.12451 18.2482 8.12451C18.2476 8.12451 18.2471 8.12451 18.2466 8.12451C16.744 8.12809 14.0109 8.47609 12.5886 10.7665C12.5307 10.8599 12.5001 10.9726 12.5001 11.0927V21.2006C14.2329 19.3872 16.7448 19.0747 18.2441 19.0711C18.5997 19.0702 18.8889 18.7813 18.8889 18.4272Z" fill="white"/>
<path d="M20.356 10.3521H19.889V18.4273C19.889 19.3316 19.1522 20.069 18.2465 20.0712C16.9748 20.0743 14.8779 20.3229 13.3929 21.7285C15.9613 21.0996 18.6688 21.5084 20.2118 21.86C20.4045 21.9039 20.6036 21.8586 20.7579 21.7355C20.9118 21.6128 21 21.4294 21 21.2325V10.9961C21.0001 10.641 20.7111 10.3521 20.356 10.3521Z" fill="white"/>
<path d="M4.11103 18.4273V10.3521H3.644C3.28897 10.3521 3 10.641 3 10.9961V21.2323C3 21.4292 3.08824 21.6126 3.24206 21.7354C3.3963 21.8583 3.59521 21.9038 3.78818 21.8598C5.33122 21.5081 8.0388 21.0994 10.6071 21.7283C9.12208 20.3228 7.02523 20.0742 5.75352 20.0712C4.84788 20.069 4.11103 19.3316 4.11103 18.4273Z" fill="white"/>
</svg>
