<svg width="370" height="50" viewBox="0 0 370 50" fill="none" xmlns="http://www.w3.org/2000/svg">
<path d="M16 0.5H354C356.809 0.5 358.885 0.500389 360.527 0.634581C362.164 0.768297 363.326 1.03237 364.313 1.53544C366.1 2.44624 367.554 3.89955 368.465 5.68709C368.968 6.67442 369.232 7.83613 369.365 9.47274C369.5 11.1152 369.5 13.1915 369.5 16V34C369.5 36.8085 369.5 38.8848 369.365 40.5273C369.232 42.1639 368.968 43.3256 368.465 44.3129C367.554 46.1004 366.1 47.5538 364.313 48.4646C363.326 48.9676 362.164 49.2317 360.527 49.3654C358.885 49.4996 356.809 49.5 354 49.5H16C13.1915 49.5 11.1152 49.4996 9.47273 49.3654C7.83613 49.2317 6.67442 48.9676 5.68709 48.4646C3.89955 47.5538 2.44624 46.1004 1.53544 44.3129C1.03237 43.3256 0.768297 42.1639 0.634581 40.5273C0.500389 38.8848 0.5 36.8085 0.5 34V16C0.5 13.1915 0.500389 11.1152 0.634581 9.47274C0.768297 7.83613 1.03237 6.67442 1.53544 5.68709C2.44624 3.89955 3.89955 2.44624 5.68709 1.53544C6.67442 1.03237 7.83613 0.768297 9.47274 0.634581C11.1152 0.500389 13.1915 0.5 16 0.5Z" fill="white" stroke="#DEDDE4"/>
</svg>
