<svg width="30" height="15" viewBox="0 0 30 15" fill="none" xmlns="http://www.w3.org/2000/svg">
<path d="M23.75 4.0977H20V3.51234C20 2.89135 19.4732 2.2958 18.5355 1.85669C17.5979 1.41759 16.3261 1.1709 15 1.1709C13.6739 1.1709 12.4021 1.41759 11.4645 1.85669C10.5268 2.2958 10 2.89135 10 3.51234V4.0977H6.25C5.91848 4.0977 5.60054 4.15937 5.36612 4.26915C5.1317 4.37893 5 4.52781 5 4.68306V11.122C5 11.5878 5.39509 12.0344 6.09835 12.3638C6.80161 12.6931 7.75544 12.8781 8.75 12.8781H21.25C22.2446 12.8781 23.1984 12.6931 23.9017 12.3638C24.6049 12.0344 25 11.5878 25 11.122V4.68306C25 4.52781 24.8683 4.37893 24.6339 4.26915C24.3995 4.15937 24.0815 4.0977 23.75 4.0977ZM12.5 3.51234C12.5 3.20185 12.7634 2.90407 13.2322 2.68452C13.7011 2.46496 14.337 2.34162 15 2.34162C15.663 2.34162 16.2989 2.46496 16.7678 2.68452C17.2366 2.90407 17.5 3.20185 17.5 3.51234V4.0977H12.5V3.51234ZM22.5 11.122C22.5 11.2773 22.3683 11.4262 22.1339 11.5359C21.8995 11.6457 21.5815 11.7074 21.25 11.7074H8.75C8.41848 11.7074 8.10054 11.6457 7.86612 11.5359C7.6317 11.4262 7.5 11.2773 7.5 11.122V5.26842H10V5.85378C10 6.00903 10.1317 6.15792 10.3661 6.2677C10.6005 6.37747 10.9185 6.43914 11.25 6.43914C11.5815 6.43914 11.8995 6.37747 12.1339 6.2677C12.3683 6.15792 12.5 6.00903 12.5 5.85378V5.26842H17.5V5.85378C17.5 6.00903 17.6317 6.15792 17.8661 6.2677C18.1005 6.37747 18.4185 6.43914 18.75 6.43914C19.0815 6.43914 19.3995 6.37747 19.6339 6.2677C19.8683 6.15792 20 6.00903 20 5.85378V5.26842H22.5V11.122Z" fill="#FF6652"/>
</svg>
