<svg width="147" height="2960" viewBox="0 0 147 2960" fill="none" xmlns="http://www.w3.org/2000/svg">
<g clip-path="url(#clip0_138_751)">
<path d="M16.499 0.00214355L13.6462 0C10.441 0 8.36976 0.995145 8.36976 2.5354V3.70438H5.50132C5.25345 3.70438 5.05273 3.79848 5.05273 3.91456V5.60829C5.05273 5.72436 5.25368 5.81835 5.50132 5.81835H8.36976V10.0922C8.36976 10.2082 8.57048 10.3022 8.81835 10.3022H12.5609C12.8087 10.3022 13.0094 10.2081 13.0094 10.0922V5.81835H16.3633C16.6112 5.81835 16.8119 5.72436 16.8119 5.60829L16.8133 3.91456C16.8133 3.85882 16.7659 3.80545 16.6819 3.76601C16.5979 3.72657 16.4835 3.70438 16.3645 3.70438H13.0094V2.71342C13.0094 2.23712 13.2518 1.99533 14.5767 1.99533L16.4986 1.99501C16.7462 1.99501 16.9469 1.9009 16.9469 1.78494V0.212212C16.9469 0.0963527 16.7464 0.00235791 16.499 0.00214355Z" fill="#0A033C"/>
</g>
<g clip-path="url(#clip1_138_751)">
<path d="M145.921 9.07208C145.968 9.0723 146.015 9.06802 146.058 9.0595C146.102 9.05099 146.141 9.03842 146.173 9.02258C146.206 9.00673 146.231 8.98796 146.247 8.96741C146.264 8.94687 146.271 8.92499 146.268 8.90314C146.268 8.78332 146.112 8.72607 145.792 8.72607H145.275V9.35338H145.47V9.07993H145.709L145.714 9.08326L146.085 9.35338H146.293L145.894 9.07381L145.921 9.07208ZM145.696 9.00924H145.47V8.79717H145.756C145.904 8.79717 146.072 8.80835 146.072 8.89795C146.072 9.00099 145.902 9.00924 145.695 9.00924" fill="#0A033C"/>
<path d="M140.85 8.28583H138.094V6.28437C138.094 5.8071 138.076 5.19271 136.66 5.19271C135.225 5.19271 135.005 5.71271 135.005 6.24962V8.2857H132.249V4.16988H134.895V4.73235H134.932C135.197 4.52241 135.579 4.34971 136.039 4.23263C136.499 4.11555 137.019 4.05849 137.543 4.06751C140.336 4.06751 140.851 4.91953 140.851 6.02796L140.85 8.28583ZM129.139 3.60728C128.822 3.60731 128.513 3.56383 128.25 3.48236C127.987 3.40089 127.782 3.28507 127.661 3.14956C127.54 3.01405 127.508 2.86493 127.57 2.72106C127.631 2.57718 127.784 2.44502 128.007 2.34128C128.231 2.23754 128.516 2.16688 128.826 2.13823C129.136 2.10959 129.458 2.12425 129.75 2.18036C130.043 2.23647 130.292 2.33151 130.468 2.45346C130.644 2.57541 130.738 2.7188 130.738 2.86549C130.738 2.96288 130.697 3.05933 130.616 3.14932C130.536 3.23931 130.418 3.32108 130.27 3.38996C130.121 3.45884 129.945 3.51348 129.751 3.55077C129.557 3.58806 129.349 3.60726 129.139 3.60728V3.60728ZM130.517 8.28583H127.758V4.16988H130.517V8.28583ZM142.224 0.937111H126.373C126.013 0.935228 125.666 0.999654 125.409 1.11623C125.151 1.23281 125.004 1.392 125 1.55882V8.93936C125.004 9.10627 125.151 9.26557 125.409 9.38227C125.666 9.49896 126.013 9.56352 126.373 9.56174H142.224C142.585 9.56384 142.933 9.49947 143.191 9.38278C143.45 9.26608 143.598 9.1066 143.603 8.93936V1.55829C143.597 1.39114 143.449 1.23176 143.191 1.11519C142.933 0.998616 142.585 0.934374 142.224 0.936578" fill="#0A033C"/>
<path d="M145.719 8.44678C145.384 8.44827 145.064 8.51128 144.828 8.62203C144.593 8.73277 144.462 8.88224 144.463 9.03774C144.465 9.19324 144.599 9.34211 144.837 9.4518C145.075 9.56149 145.396 9.62307 145.732 9.62307C146.067 9.62307 146.389 9.56149 146.626 9.4518C146.864 9.34211 146.998 9.19324 147 9.03774C147.002 8.88224 146.87 8.73277 146.635 8.62203C146.4 8.51128 146.079 8.44827 145.744 8.44678H145.719ZM145.719 9.55574C145.499 9.55743 145.283 9.52885 145.098 9.4736C144.914 9.41835 144.768 9.33891 144.681 9.24534C144.593 9.15176 144.567 9.04825 144.607 8.94789C144.646 8.84753 144.748 8.75483 144.901 8.68151C145.054 8.60819 145.251 8.55755 145.466 8.53598C145.681 8.51442 145.905 8.52291 146.109 8.56037C146.314 8.59783 146.49 8.66258 146.615 8.74644C146.741 8.8303 146.809 8.92949 146.813 9.03148C146.813 9.03441 146.813 9.0372 146.813 9.04013C146.819 9.17392 146.71 9.30337 146.511 9.40001C146.311 9.49665 146.037 9.55257 145.748 9.55547H145.72" fill="#0A033C"/>
</g>
<g clip-path="url(#clip2_138_751)">
<path d="M94.9464 9.1446C103.194 9.1446 107.704 6.00001 107.704 3.27312C107.704 3.18381 107.7 3.09489 107.691 3.00638C108.566 2.7151 109.327 2.3516 109.927 1.9378C109.124 2.10215 108.259 2.21279 107.353 2.26268C108.278 2.0072 108.989 1.60306 109.324 1.12129C108.458 1.35766 107.499 1.52945 106.477 1.6222C105.659 1.22109 104.494 0.970215 103.204 0.970215C100.728 0.970215 98.7204 1.89438 98.7204 3.03354C98.7204 3.19547 98.7598 3.35298 98.8367 3.50407C95.1102 3.41777 91.8059 2.59662 89.5945 1.348C89.2094 1.65296 88.9874 2.00721 88.9874 2.3852C88.9874 3.10114 89.779 3.73318 90.9826 4.10293C90.247 4.09247 89.556 3.99953 88.952 3.84484C88.9514 3.85349 88.9514 3.86194 88.9514 3.87119C88.9514 4.87058 90.4969 5.705 92.5485 5.89408C92.1717 5.94135 91.7753 5.9667 91.3662 5.9667C91.0777 5.9667 90.7967 5.95363 90.5235 5.92948C91.0943 6.74942 92.7495 7.34608 94.7119 7.36276C93.1774 7.91636 91.2442 8.24608 89.1432 8.24608C88.7818 8.24608 88.4247 8.23661 88.0737 8.21751C90.0581 8.8029 92.4143 9.14447 94.9467 9.14447" fill="#0A033C"/>
</g>
<circle cx="55" cy="2941.26" r="18" fill="#FF6652"/>
<path d="M55.0004 2934.72C53.2228 2934.72 52.9997 2934.73 52.3016 2934.76C51.6048 2934.79 51.1291 2934.9 50.713 2935.06C50.2825 2935.23 49.9173 2935.45 49.5535 2935.82C49.1894 2936.18 48.9658 2936.54 48.7981 2936.98C48.6358 2937.39 48.5254 2937.87 48.494 2938.56C48.4628 2939.26 48.4546 2939.49 48.4546 2941.26C48.4546 2943.04 48.4625 2943.26 48.4941 2943.96C48.5262 2944.66 48.6365 2945.13 48.7982 2945.55C48.9655 2945.98 49.1892 2946.35 49.5531 2946.71C49.9168 2947.07 50.2819 2947.3 50.7122 2947.46C51.1286 2947.63 51.6044 2947.74 52.301 2947.77C52.9992 2947.8 53.2221 2947.81 54.9996 2947.81C56.7773 2947.81 56.9997 2947.8 57.6979 2947.77C58.3947 2947.74 58.8708 2947.63 59.2873 2947.46C59.7176 2947.3 60.0822 2947.07 60.4459 2946.71C60.81 2946.35 61.0336 2945.98 61.2013 2945.55C61.3622 2945.13 61.4727 2944.66 61.5054 2943.96C61.5368 2943.26 61.545 2943.04 61.545 2941.26C61.545 2939.49 61.5368 2939.26 61.5054 2938.56C61.4727 2937.87 61.3622 2937.39 61.2013 2936.98C61.0336 2936.54 60.81 2936.18 60.4459 2935.82C60.0818 2935.45 59.7177 2935.23 59.2869 2935.06C58.8696 2934.9 58.3937 2934.79 57.6969 2934.76C56.9987 2934.73 56.7765 2934.72 54.9983 2934.72H55.0004ZM54.4132 2935.9C54.5875 2935.9 54.7819 2935.9 55.0004 2935.9C56.748 2935.9 56.9551 2935.9 57.6452 2935.93C58.2834 2935.96 58.6297 2936.07 58.8605 2936.16C59.1659 2936.28 59.3837 2936.42 59.6126 2936.65C59.8417 2936.88 59.9835 2937.1 60.1024 2937.4C60.192 2937.63 60.2988 2937.98 60.3278 2938.62C60.3592 2939.31 60.366 2939.51 60.366 2941.26C60.366 2943.01 60.3592 2943.22 60.3278 2943.91C60.2986 2944.54 60.192 2944.89 60.1024 2945.12C59.9838 2945.43 59.8417 2945.64 59.6126 2945.87C59.3835 2946.1 59.166 2946.24 58.8605 2946.36C58.63 2946.45 58.2834 2946.56 57.6452 2946.59C56.9552 2946.62 56.748 2946.63 55.0004 2946.63C53.2527 2946.63 53.0455 2946.62 52.3556 2946.59C51.7174 2946.56 51.371 2946.45 51.1402 2946.36C50.8347 2946.24 50.6166 2946.1 50.3875 2945.87C50.1584 2945.64 50.0166 2945.43 49.8977 2945.12C49.8081 2944.89 49.7013 2944.54 49.6723 2943.9C49.6409 2943.21 49.6346 2943.01 49.6346 2941.26C49.6346 2939.51 49.6409 2939.31 49.6723 2938.62C49.7015 2937.98 49.8081 2937.63 49.8977 2937.4C50.0163 2937.09 50.1584 2936.88 50.3875 2936.65C50.6166 2936.42 50.8347 2936.28 51.1402 2936.16C51.3709 2936.07 51.7174 2935.96 52.3556 2935.93C52.9594 2935.9 53.1934 2935.9 54.4132 2935.9V2935.9ZM58.4942 2936.98C58.0606 2936.98 57.7088 2937.34 57.7088 2937.77C57.7088 2938.2 58.0606 2938.55 58.4942 2938.55C58.9278 2938.55 59.2796 2938.2 59.2796 2937.77C59.2796 2937.34 58.9278 2936.98 58.4942 2936.98V2936.98ZM55.0004 2937.9C53.1441 2937.9 51.6391 2939.41 51.6391 2941.26C51.6391 2943.12 53.1441 2944.62 55.0004 2944.62C56.8567 2944.62 58.3611 2943.12 58.3611 2941.26C58.3611 2939.41 56.8565 2937.9 55.0003 2937.9H55.0004ZM55.0004 2939.08C56.2053 2939.08 57.1821 2940.06 57.1821 2941.26C57.1821 2942.47 56.2053 2943.44 55.0004 2943.44C53.7954 2943.44 52.8186 2942.47 52.8186 2941.26C52.8186 2940.06 53.7954 2939.08 55.0004 2939.08V2939.08Z" fill="white"/>
<defs>
<clipPath id="clip0_138_751">
<rect width="22" height="10.3022" fill="white"/>
</clipPath>
<clipPath id="clip1_138_751">
<rect width="22" height="8.69679" fill="white" transform="translate(125 0.936523)"/>
</clipPath>
<clipPath id="clip2_138_751">
<rect width="22" height="8.24188" fill="white" transform="translate(88 0.936523)"/>
</clipPath>
</defs>
</svg>
