<svg width="15" height="16" viewBox="0 0 15 16" fill="none" xmlns="http://www.w3.org/2000/svg">
<path d="M10.2847 8.07606C11.0236 7.49471 11.563 6.69752 11.8277 5.79538C12.0924 4.89324 12.0694 3.93102 11.7618 3.04258C11.4542 2.15414 10.8773 1.38367 10.1114 0.838357C9.34557 0.293042 8.42877 0 7.48859 0C6.54841 0 5.63161 0.293042 4.86573 0.838357C4.09985 1.38367 3.52298 2.15414 3.21538 3.04258C2.90778 3.93102 2.88474 4.89324 3.14947 5.79538C3.4142 6.69752 3.95353 7.49471 4.69244 8.07606C3.42631 8.58331 2.32158 9.42465 1.496 10.5104C0.670421 11.5961 0.154953 12.8855 0.00454608 14.2412C-0.00634114 14.3401 0.00237287 14.4403 0.0301904 14.5359C0.0580079 14.6315 0.104384 14.7207 0.166671 14.7984C0.292466 14.9553 0.475433 15.0558 0.675321 15.0777C0.87521 15.0997 1.07565 15.0414 1.23254 14.9156C1.38943 14.7898 1.48992 14.6069 1.51191 14.407C1.6774 12.9337 2.37991 11.573 3.48521 10.5849C4.5905 9.59681 6.0211 9.05059 7.50366 9.05059C8.98623 9.05059 10.4168 9.59681 11.5221 10.5849C12.6274 11.573 13.3299 12.9337 13.4954 14.407C13.5159 14.5922 13.6043 14.7632 13.7435 14.8871C13.8826 15.0109 14.0628 15.0789 14.2491 15.0777H14.332C14.5296 15.055 14.7101 14.9551 14.8344 14.7998C14.9586 14.6445 15.0164 14.4464 14.9952 14.2487C14.8441 12.8892 14.3259 11.5965 13.4961 10.5091C12.6662 9.42169 11.5561 8.58063 10.2847 8.07606V8.07606ZM7.48859 7.54094C6.89233 7.54094 6.30947 7.36413 5.8137 7.03287C5.31793 6.70161 4.93153 6.23077 4.70335 5.67991C4.47517 5.12904 4.41547 4.52288 4.5318 3.93808C4.64812 3.35328 4.93524 2.81611 5.35686 2.39449C5.77848 1.97288 6.31565 1.68575 6.90045 1.56943C7.48525 1.45311 8.09141 1.51281 8.64227 1.74098C9.19314 1.96916 9.66398 2.35557 9.99524 2.85133C10.3265 3.3471 10.5033 3.92997 10.5033 4.52622C10.5033 5.32578 10.1857 6.09258 9.62032 6.65795C9.05495 7.22332 8.28814 7.54094 7.48859 7.54094Z" fill="#5D5A6F"/>
</svg>
