<svg width="51" height="49" viewBox="0 0 51 49" fill="none" xmlns="http://www.w3.org/2000/svg">
<path d="M0 46.4007L5.19692 37.2833C2.89441 33.5668 1.56854 29.1966 1.56854 24.5142C1.56854 11.0442 12.5424 0.124486 26.0793 0.124486C39.6161 0.124486 50.59 11.0442 50.59 24.5142C50.59 37.9842 39.6161 48.9039 26.0793 48.9039C20.4266 48.9039 15.2238 46.9956 11.0804 43.7974L11.0864 43.8092L0 46.4007Z" fill="#FAFAFA"/>
<path d="M0 46.4006C0.526795 46.2828 4.03679 45.4818 11.1041 43.8739L11.2166 43.8503L11.1456 43.7561L11.1396 43.7443L11.0331 43.8503C12.43 44.9281 14.1051 45.9883 16.0761 46.8777C18.0472 47.7494 20.3082 48.4561 22.8002 48.786C24.0431 48.945 25.3453 49.0451 26.683 48.9803C27.3519 48.945 28.0326 48.9273 28.7192 48.8684C29.3999 48.7683 30.0924 48.6623 30.7909 48.5563C33.5669 48.0085 36.4021 46.9601 39.0539 45.3286C41.6997 43.6972 44.1502 41.4885 46.1153 38.7733C48.0745 36.0581 49.5602 32.8422 50.2586 29.3496C50.9452 25.8569 50.8919 22.1169 49.9686 18.4947C49.0393 14.8842 47.305 11.3621 44.7125 8.46433L43.7121 7.36882C43.3807 6.99776 42.99 6.69738 42.6349 6.35577C42.262 6.03772 41.9246 5.67255 41.5221 5.38984L40.3442 4.51226C39.9654 4.20599 39.5451 3.95862 39.1249 3.71125C38.7106 3.45799 38.2962 3.21062 37.8819 2.95735C37.4439 2.74532 37.0118 2.53918 36.5797 2.32715C36.1417 2.12689 35.7214 1.8913 35.2657 1.74406C31.7024 0.336391 27.9083 -0.199585 24.274 0.0654563C20.6397 0.324608 17.1652 1.36121 14.1879 3.03392C11.1988 4.68896 8.67732 6.90353 6.72995 9.37136C4.77667 11.8451 3.40345 14.5662 2.55111 17.2814C1.70468 20.0084 1.47385 22.7118 1.48569 25.2149C1.55671 27.724 2.0184 30.0387 2.68725 32.0648C3.3561 34.0968 4.23804 35.846 5.14365 37.3126V37.2419C1.85858 43.0964 0.254519 45.953 0 46.4006C0.260438 45.953 1.9 43.12 5.26202 37.3185L5.2857 37.2832L5.26202 37.2478C4.36825 35.7813 3.50407 34.0379 2.84706 32.0177C2.19596 29.9975 1.74612 27.7063 1.68693 25.2149C1.68693 22.7294 1.92368 20.0555 2.77011 17.3579C3.62245 14.6722 4.98974 11.9805 6.92527 9.53627C8.85488 7.09789 11.3527 4.91277 14.3122 3.2813C17.2599 1.63215 20.6989 0.613209 24.2858 0.359947C27.8728 0.106685 31.6254 0.636769 35.1414 2.02676C35.5912 2.16812 36.0055 2.40371 36.4376 2.60397C36.8638 2.81011 37.2959 3.01625 37.7221 3.22829C38.1305 3.47566 38.5389 3.72303 38.9532 3.9704C39.3676 4.21777 39.7819 4.45926 40.1548 4.76553L41.3149 5.63133C41.7115 5.90815 42.043 6.26742 42.4099 6.58547C42.7592 6.92119 43.1498 7.22158 43.4754 7.58674L44.4639 8.67047C47.0268 11.5329 48.7374 15.0138 49.6549 18.5771C50.5664 22.1522 50.6256 25.851 49.9508 29.3025C49.2642 32.7539 47.8022 35.9403 45.8667 38.6201C43.9311 41.3118 41.5102 43.5028 38.894 45.1166C36.2778 46.7422 33.4722 47.7847 30.7258 48.3324C30.0332 48.4385 29.3466 48.5445 28.6778 48.6446C27.9971 48.7035 27.3223 48.7212 26.6653 48.7624C25.3394 48.8331 24.0491 48.733 22.8179 48.5798C20.3437 48.2618 18.1004 47.5668 16.1412 46.7127C14.182 45.8411 12.5129 44.7986 11.116 43.7384L10.6602 43.3909L11.0094 43.8444L11.0153 43.8562L11.0568 43.7384C4.02495 45.4288 0.526795 46.2769 0 46.4006Z" fill="#263238"/>
<path d="M32.6968 23.4946C32.6968 24.808 33.7682 25.88 35.094 25.88C36.4199 25.88 37.4912 24.8139 37.4912 23.4946C37.4912 22.1812 36.4199 21.1092 35.094 21.1092C33.7682 21.1092 32.6968 22.1812 32.6968 23.4946Z" fill="#263238"/>
<path d="M23.1134 23.4946C23.1134 24.808 24.1847 25.88 25.5106 25.88C26.8365 25.88 27.9078 24.8139 27.9078 23.4946C27.9078 22.1812 26.8365 21.1092 25.5106 21.1092C24.1847 21.1092 23.1134 22.1812 23.1134 23.4946Z" fill="#263238"/>
<path d="M13.5545 22.306C12.8915 23.4486 13.2881 24.9034 14.4305 25.5631C15.5788 26.2227 17.0408 25.8281 17.7038 24.6914C18.3667 23.5488 17.9701 22.094 16.8277 21.4343C15.6794 20.7747 14.2115 21.1634 13.5545 22.306Z" fill="#263238"/>
</svg>
