<svg width="190" height="2097" viewBox="0 0 190 2097" fill="none" xmlns="http://www.w3.org/2000/svg">
<g filter="url(#filter0_d_138_930)">
<rect x="70" y="1951.48" width="50" height="50" rx="5" fill="white"/>
</g>
<g clip-path="url(#clip0_138_930)">
<path d="M95 0H80V2.05791L96.7578 3.70423L95 0Z" fill="#A1A1A1"/>
<path d="M95 0H99.3945V3.29265H95V0Z" fill="#828282"/>
<path d="M96.7578 2.05762H80V4.11553L96.7578 6.17343V2.05762Z" fill="#636363"/>
<path d="M95 5.76214L110 4.11582V0H99.3945L95 2.05791V5.76214Z" fill="#434343"/>
<path d="M110 4.11621H95L87.9688 9.08263L95 14.049H110V4.11621Z" fill="#0FDBFF"/>
<path d="M80 4.11621H95V14.049H80V4.11621Z" fill="#80EEFF"/>
<path d="M83.5156 11.5788H85.2734V10.3166H90V6.58496H83.5156V11.5788ZM85.2734 7.40812H88.2422V9.49347H85.2734V7.40812Z" fill="white"/>
<path d="M100 6.58496V11.5788H101.758V10.3166H106.484V6.58496H100ZM104.727 9.49347H101.758V7.40812H104.727V9.49347Z" fill="#C2F7FF"/>
<path d="M96.4844 6.58496V8.67031H95L94.1211 9.06817L95 9.49347H96.4844V11.5788H98.2422V6.58496H96.4844Z" fill="#C2F7FF"/>
<path d="M93.5156 8.67031V6.58496H91.7578V11.5788H93.5156V9.49347H95V8.67031H93.5156Z" fill="white"/>
</g>
<defs>
<filter id="filter0_d_138_930" x="0" y="1906.48" width="190" height="190" filterUnits="userSpaceOnUse" color-interpolation-filters="sRGB">
<feFlood flood-opacity="0" result="BackgroundImageFix"/>
<feColorMatrix in="SourceAlpha" type="matrix" values="0 0 0 0 0 0 0 0 0 0 0 0 0 0 0 0 0 0 127 0" result="hardAlpha"/>
<feOffset dy="25"/>
<feGaussianBlur stdDeviation="35"/>
<feColorMatrix type="matrix" values="0 0 0 0 0.0392157 0 0 0 0 0.0117647 0 0 0 0 0.235294 0 0 0 0.15 0"/>
<feBlend mode="normal" in2="BackgroundImageFix" result="effect1_dropShadow_138_930"/>
<feBlend mode="normal" in="SourceGraphic" in2="effect1_dropShadow_138_930" result="shape"/>
</filter>
<clipPath id="clip0_138_930">
<rect width="30" height="14.0487" fill="white" transform="translate(80)"/>
</clipPath>
</defs>
</svg>
