<svg width="44" height="44" viewBox="0 0 44 44" fill="none" xmlns="http://www.w3.org/2000/svg">
<rect width="44" height="44" rx="6" transform="matrix(-1 0 0 1 44 0)" fill="#9C4DF4"/>
<path d="M25.54 21.29L19.88 15.64C19.787 15.5463 19.6764 15.4719 19.5546 15.4211C19.4327 15.3704 19.302 15.3442 19.17 15.3442C19.038 15.3442 18.9073 15.3704 18.7854 15.4211C18.6635 15.4719 18.5529 15.5463 18.46 15.64C18.2737 15.8274 18.1692 16.0809 18.1692 16.345C18.1692 16.6092 18.2737 16.8627 18.46 17.05L23.41 22.05L18.46 27C18.2737 27.1874 18.1692 27.4409 18.1692 27.705C18.1692 27.9692 18.2737 28.2227 18.46 28.41C18.5526 28.5045 18.663 28.5797 18.7849 28.6312C18.9068 28.6827 19.0377 28.7095 19.17 28.71C19.3023 28.7095 19.4332 28.6827 19.555 28.6312C19.6769 28.5797 19.7874 28.5045 19.88 28.41L25.54 22.76C25.6415 22.6664 25.7225 22.5527 25.7779 22.4262C25.8333 22.2997 25.8619 22.1631 25.8619 22.025C25.8619 21.8869 25.8333 21.7503 25.7779 21.6238C25.7225 21.4973 25.6415 21.3837 25.54 21.29V21.29Z" fill="white"/>
</svg>
