<svg width="332" height="336" viewBox="0 0 332 336" fill="none" xmlns="http://www.w3.org/2000/svg">
<path d="M318.057 297.494C316.604 296.678 314.786 296.02 312.857 295.582C308.499 294.596 303.642 294.523 298.906 294.462C257.869 293.963 217.114 293.78 176.066 293.78C143.745 293.525 111.436 293.257 79.1144 293.099C63.9181 293.026 48.6851 292.965 33.5376 293.671C27.2638 293.963 20.7336 294.438 15.5461 296.374C10.3586 298.309 7.06307 302.132 9.69954 305.224C14.0814 310.337 28.7651 310.045 37.2481 310.057C102.659 310.154 168.083 309.96 233.494 309.753C255.392 309.68 277.289 309.619 299.15 308.986C304.044 308.84 309.098 308.657 313.492 307.476C317.898 306.307 321.548 303.897 321.279 301.255C321.145 299.819 319.888 298.528 318.057 297.494Z" fill="#D9E0FC"/>
<path d="M320.265 184.251C319.155 184.495 317.885 184.629 316.457 184.629C267.365 184.629 218.285 184.629 169.193 184.617C144.647 184.617 120.101 184.617 95.5673 184.604C84.1425 184.604 38.3216 190.911 33.3538 179.65C32.3041 177.276 32.3041 174.658 32.3041 172.102C32.3041 123.905 32.4384 75.7088 32.4384 27.5122C32.4384 25.8079 32.4384 24.0914 32.4384 22.387C32.4384 18.7835 35.6608 15.8618 39.6277 15.8618C93.3091 15.8618 146.978 15.8618 200.66 15.8618C228.404 15.8618 256.148 15.8618 283.904 15.8618C295.585 15.8618 327.564 10.4322 327.564 25.6862C327.564 54.6722 327.552 83.6705 327.552 112.657C327.552 127.484 327.552 142.324 327.552 157.152C327.54 166.587 331.885 181.683 320.265 184.251Z" fill="#D9E0FC"/>
<path d="M303.702 174.452C299.222 177.52 290.934 175.779 284.038 175.779C270.453 175.779 256.88 175.779 243.295 175.779C206.543 175.779 169.803 175.779 133.051 175.779C96.0188 175.779 58.9983 175.779 21.9657 175.779C20.7207 175.779 19.7198 174.781 19.7198 173.539C19.7076 144.821 19.5367 116.09 19.4756 87.3719C19.439 73.0067 19.439 58.6536 19.5001 44.2884C19.5367 34.8901 15.6918 14.2432 22.0267 6.89015C23.8088 4.83276 46.8047 7.3771 49.673 7.3771C62.0132 7.35275 74.3533 7.3284 86.6812 7.30406C110.629 7.25536 134.577 7.20668 158.525 7.14581C190.7 7.14581 222.887 7.01188 255.061 6.93883C271.991 6.90231 303.482 6.99971 305.862 7.02406C308.926 7.06058 307.608 54.6119 307.632 58.1301C307.791 77.7423 307.693 97.3667 307.51 116.979C307.376 131.624 307.168 146.269 307.01 160.927C306.985 162.874 306.961 164.822 306.961 166.77C306.973 170.702 305.716 173.064 303.702 174.452Z" fill="#FF6652"/>
<path d="M297.782 159.893C288.969 159.662 280.132 159.832 271.319 159.832C262.495 159.832 253.67 159.844 244.857 159.844C227.207 159.856 209.57 159.869 191.92 159.881C156.816 159.905 121.7 159.917 86.5956 160.015C76.6967 160.039 66.7855 160.063 56.8865 160.1C46.9997 160.124 37.0397 160.002 27.1773 160.696C26.6037 160.733 26.6037 161.536 27.1773 161.585C35.9778 162.206 44.8271 162.096 53.6398 162.169C62.4646 162.242 71.2895 162.218 80.1021 162.242C97.7518 162.291 115.389 162.303 133.039 162.328C168.143 162.376 203.259 162.401 238.364 162.425C248.263 162.437 258.174 162.437 268.073 162.449C277.972 162.462 287.883 162.656 297.782 162.401C299.405 162.364 299.417 159.929 297.782 159.893Z" fill="#9C4DF4"/>
<path d="M287.639 158.553C287.346 157.652 286.833 156.861 286.125 156.204C285.21 155.303 284.136 154.67 282.891 154.329C282.671 154.256 282.452 154.183 282.244 154.11C281.28 153.805 280.315 153.769 279.363 153.976C278.399 154.025 277.508 154.305 276.678 154.828C276.19 155.205 275.702 155.583 275.213 155.96C274.505 156.618 274.005 157.385 273.724 158.285C273.395 158.845 273.236 159.454 273.236 160.111C273.016 161.073 273.065 162.023 273.37 162.985C273.614 163.557 273.859 164.129 274.103 164.713C274.75 165.797 275.616 166.661 276.703 167.306C276.898 167.44 277.081 167.574 277.276 167.708C278.424 168.365 279.656 168.706 280.975 168.706C281.622 168.621 282.268 168.536 282.928 168.451C284.173 168.098 285.247 167.477 286.162 166.576C286.882 165.918 287.383 165.127 287.676 164.226C288.139 163.35 288.347 162.412 288.31 161.414C288.31 160.367 288.103 159.43 287.639 158.553Z" fill="#9C4DF4"/>
<path d="M250.387 222.295L49.8807 219.337L50.674 12.3926L249.801 13.9265L250.387 222.295Z" fill="white" stroke="black" stroke-width="0.5" stroke-miterlimit="10"/>
<path d="M94.835 175.657C94.2369 183.278 93.6388 190.887 93.0407 198.508C92.9553 199.542 92.2229 200.419 91.1244 200.419C87.6091 200.431 84.106 200.443 80.5907 200.468C77.4416 200.48 74.2925 200.492 71.1434 200.504C70.3134 200.504 69.4467 200.516 68.7022 200.078C67.8844 199.591 67.4938 198.751 67.3839 197.85C67.2252 196.377 67.3962 194.819 67.4328 193.334C67.5548 187.052 67.7867 180.77 68.4825 174.513C68.6045 173.381 69.8739 173.125 70.4598 173.782C71.4851 173.466 72.7179 173.612 73.731 173.612C75.0004 173.612 76.2576 173.624 77.527 173.624C82.6291 173.649 87.7434 173.673 92.8454 173.673C93.8585 173.673 94.9204 174.586 94.835 175.657ZM89.3424 196.609C89.8062 190.29 90.2577 183.972 90.7216 177.654C87.7311 177.666 84.7285 177.69 81.738 177.702C79.8828 177.715 78.0275 177.727 76.1844 177.739C75.2323 177.751 74.2925 177.751 73.3404 177.751C72.9986 177.751 72.6569 177.751 72.3151 177.751C71.949 178.056 71.4851 178.238 70.9969 178.262C71.0945 180.296 71.1555 182.341 71.1921 184.386C71.241 187.32 71.1922 190.254 71.1556 193.188C71.1434 193.955 71.1311 194.722 71.1189 195.489C71.1067 195.89 71.1311 196.316 71.1311 196.743C71.2898 196.755 71.4363 196.767 71.5584 196.767L73.5845 196.755C78.8331 196.706 84.0816 196.657 89.3424 196.609Z" fill="#9C4DF4"/>
<path d="M94.835 131.222C94.2369 138.843 93.6388 146.451 93.0407 154.072C92.9553 155.107 92.2229 155.983 91.1244 155.983C87.6091 155.996 84.106 156.008 80.5907 156.032C77.4416 156.044 74.2925 156.057 71.1434 156.069C70.3134 156.069 69.4467 156.081 68.7022 155.643C67.8844 155.156 67.4938 154.316 67.3839 153.415C67.2252 151.942 67.3962 150.383 67.4328 148.898C67.5548 142.617 67.7867 136.335 68.4825 130.077C68.6045 128.945 69.8739 128.69 70.4598 129.347C71.4851 129.03 72.7179 129.177 73.731 129.177C75.0004 129.177 76.2576 129.189 77.527 129.189C82.6291 129.213 87.7434 129.237 92.8454 129.237C93.8585 129.237 94.9204 130.15 94.835 131.222ZM89.3424 152.173C89.8062 145.855 90.2577 139.537 90.7216 133.218C87.7311 133.23 84.7285 133.255 81.738 133.267C79.8828 133.279 78.0275 133.291 76.1844 133.303C75.2323 133.303 74.2925 133.316 73.3404 133.316C72.9986 133.316 72.6569 133.316 72.3151 133.316C71.949 133.62 71.4851 133.803 70.9969 133.827C71.0945 135.86 71.1555 137.905 71.1921 139.95C71.241 142.884 71.1922 145.818 71.1556 148.752C71.1434 149.519 71.1311 150.286 71.1189 151.053C71.1067 151.455 71.1311 151.881 71.1311 152.307C71.2898 152.319 71.4363 152.331 71.5584 152.331L73.5845 152.319C78.8331 152.27 84.0816 152.222 89.3424 152.173Z" fill="#9C4DF4"/>
<path d="M94.835 86.7872C94.2369 94.408 93.6388 102.017 93.0407 109.638C92.9553 110.672 92.2229 111.549 91.1244 111.549C87.6091 111.561 84.106 111.573 80.5907 111.598C77.4416 111.61 74.2925 111.622 71.1434 111.634C70.3134 111.634 69.4467 111.646 68.7022 111.208C67.8844 110.721 67.4938 109.881 67.3839 108.98C67.2252 107.507 67.3962 105.949 67.4328 104.464C67.5548 98.1819 67.7867 91.9002 68.4825 85.6428C68.6045 84.5106 69.8739 84.255 70.4598 84.9124C71.4851 84.5959 72.7179 84.7419 73.731 84.7419C75.0004 84.7419 76.2576 84.7541 77.527 84.7541C82.6291 84.7785 87.7434 84.8028 92.8454 84.8028C93.8585 84.8028 94.9204 85.7159 94.835 86.7872ZM89.3424 107.738C89.8062 101.42 90.2577 95.1019 90.7216 88.7837C87.7311 88.7959 84.7285 88.8202 81.738 88.8324C79.8828 88.8446 78.0275 88.8567 76.1844 88.8689C75.2323 88.8689 74.2925 88.8811 73.3404 88.8811C72.9986 88.8811 72.6569 88.8811 72.3151 88.8811C71.949 89.1854 71.4851 89.368 70.9969 89.3924C71.0945 91.4254 71.1555 93.4706 71.1921 95.5159C71.241 98.4498 71.1922 101.384 71.1556 104.318C71.1434 105.085 71.1311 105.852 71.1189 106.618C71.1067 107.02 71.1311 107.446 71.1311 107.872C71.2898 107.885 71.4363 107.897 71.5584 107.897L73.5845 107.885C78.8331 107.836 84.0816 107.787 89.3424 107.738Z" fill="#9C4DF4"/>
<path d="M202.906 89.1122C196.498 88.9418 190.078 89.0757 183.67 89.0879C177.323 89.1 170.963 89.1 164.616 89.1122C151.788 89.1244 138.959 89.1852 126.143 89.2461C122.567 89.2583 118.991 89.2826 115.414 89.2948C111.789 89.307 108.115 89.234 104.502 89.4896C104.038 89.5261 104.038 90.1713 104.502 90.1957C107.688 90.4148 110.923 90.354 114.121 90.3783C117.331 90.4148 120.529 90.4148 123.739 90.427C130.086 90.4635 136.445 90.4879 142.792 90.5244C155.62 90.5852 168.449 90.5731 181.265 90.5974C188.479 90.6096 195.705 90.7679 202.906 90.5731C203.858 90.5609 203.858 89.1365 202.906 89.1122Z" fill="#969696"/>
<path d="M158.147 96.0394C144.293 95.8811 130.439 95.7472 116.586 95.7472C112.631 95.7472 108.664 95.7107 104.709 95.7715C103.953 95.7837 103.953 96.9402 104.709 96.9524C118.551 97.1715 132.417 96.9646 146.27 96.8794C150.225 96.855 154.192 96.7333 158.147 96.6846C158.562 96.6846 158.562 96.0515 158.147 96.0394Z" fill="#969696"/>
<path d="M200.685 103.404C188.198 103.173 175.699 103.355 163.213 103.38C150.726 103.404 138.227 103.416 125.741 103.44C118.686 103.453 111.643 103.465 104.588 103.586C104.014 103.599 104.014 104.463 104.588 104.475C117.075 104.706 129.573 104.633 142.06 104.646C154.547 104.67 167.045 104.682 179.532 104.706C186.587 104.719 193.63 104.78 200.685 104.646C201.49 104.646 201.49 103.416 200.685 103.404Z" fill="#969696"/>
<path d="M168.339 133.353C164.116 133.073 159.832 133.304 155.596 133.316C151.349 133.328 147.101 133.34 142.853 133.353C134.358 133.377 125.875 133.401 117.38 133.426C112.571 133.438 107.786 133.499 102.977 133.669C102.635 133.681 102.635 134.193 102.977 134.205C111.46 134.485 119.955 134.448 128.45 134.473C136.946 134.497 145.429 134.521 153.924 134.546C156.268 134.558 158.599 134.558 160.942 134.57C163.396 134.582 165.874 134.68 168.327 134.509C169.096 134.473 169.096 133.401 168.339 133.353Z" fill="#969696"/>
<path d="M194.057 143.128C182.217 142.787 170.353 142.921 158.513 142.897C146.784 142.873 135.066 142.86 123.336 142.824L113.339 142.8C110.019 142.787 106.663 142.641 103.343 142.897C102.537 142.958 102.537 144.09 103.343 144.151C106.297 144.382 109.275 144.26 112.229 144.26C115.195 144.248 118.149 144.248 121.115 144.236C127.034 144.224 132.966 144.212 138.886 144.2C150.616 144.175 162.334 144.163 174.064 144.139C180.728 144.127 187.393 144.127 194.057 143.932C194.57 143.907 194.57 143.14 194.057 143.128Z" fill="#969696"/>
<path d="M197.523 180.538C185.158 180.234 172.794 180.38 160.429 180.392C148.065 180.392 135.7 180.405 123.335 180.441C116.415 180.465 109.482 180.551 102.561 180.465C101.755 180.453 101.755 181.719 102.561 181.719C114.926 181.573 127.29 181.78 139.655 181.792C152.019 181.792 164.384 181.804 176.748 181.804C183.669 181.804 190.59 181.817 197.523 181.646C198.231 181.634 198.231 180.563 197.523 180.538Z" fill="#969696"/>
<path d="M122.555 187.063C116.012 187.063 109.482 187.197 102.952 187.258C102.488 187.258 102.488 187.964 102.952 187.964C109.482 188.025 116.024 188.159 122.555 188.159C123.275 188.171 123.275 187.063 122.555 187.063Z" fill="#969696"/>
<path d="M188.673 187.88C181.435 187.405 174.136 187.612 166.886 187.648C159.562 187.685 152.239 187.734 144.915 187.77C140.79 187.795 136.664 187.819 132.551 188.026C132.087 188.05 132.087 188.72 132.551 188.732C139.801 189.097 147.076 189 154.338 189.036C161.662 189.073 168.985 189.122 176.309 189.122C180.434 189.122 184.56 189.146 188.673 188.878C189.32 188.841 189.332 187.928 188.673 187.88Z" fill="#969696"/>
<path d="M160.612 195.049C153.374 194.672 146.075 194.952 138.837 194.976C131.648 195.001 124.434 194.976 117.245 195.232C113.132 195.378 108.994 195.329 104.88 195.341C104.465 195.341 104.465 195.987 104.88 195.987C119.344 196.06 133.796 196.328 148.26 196.388C152.386 196.401 156.511 196.498 160.625 196.279C161.406 196.242 161.406 195.098 160.612 195.049Z" fill="#969696"/>
<path d="M234.226 39.5159C227.244 38.9681 220.067 39.3942 213.061 39.3942C206.445 39.3942 199.83 39.4064 193.226 39.4064C179.776 39.4186 166.337 39.4185 152.886 39.4307C139.435 39.4429 125.996 39.4672 112.546 39.5281C98.9482 39.589 85.0946 39.0168 71.5461 40.1855C68.58 40.4412 68.5678 44.4707 71.5461 44.7385C85.0946 45.9072 98.9482 45.3351 112.546 45.3959C125.996 45.4568 139.435 45.4812 152.886 45.4933C166.337 45.5055 179.776 45.5055 193.226 45.5177C199.842 45.5177 206.458 45.5299 213.061 45.5299C220.067 45.5299 227.232 45.9559 234.226 45.4081C238.071 45.0916 238.083 39.8203 234.226 39.5159Z" fill="black"/>
<path d="M201.673 56.4981C199.439 54.7329 197.669 55.0494 194.838 55.0494C192.201 55.0494 189.565 55.0494 186.928 55.0494L170.45 55.0616C159.245 55.0738 148.04 55.0737 136.835 55.0859L103.879 55.1103C98.1671 55.1103 92.4548 55.1711 86.7424 55.2442C82.0065 55.3051 75.6594 54.392 71.3629 56.5468C70.2278 57.119 70.2278 58.9329 71.3629 59.5051C75.6716 61.672 81.9943 60.7468 86.7424 60.8077C92.2351 60.8807 97.7277 60.9294 103.22 60.9416C114.425 60.9537 125.63 60.9537 136.835 60.9659L169.791 60.9903C175.504 60.9903 181.216 61.0024 186.928 61.0024C189.565 61.0024 192.201 61.0024 194.838 61.0024C197.596 61.0024 199.464 61.2946 201.673 59.5537C202.54 58.8842 202.527 57.1798 201.673 56.4981Z" fill="black"/>
<path d="M150.75 149.762C148.834 149.227 147.308 147.096 146.527 145.331C145.697 143.444 145.855 140.973 147.442 139.658C148.455 138.818 149.859 138.599 151.177 138.733C155.266 139.183 158.415 142.848 159.538 146.804C160.661 150.748 160.185 154.961 159.709 159.039C159.355 162.021 159.001 165.004 158.647 167.987C157.964 173.781 158.733 179.844 158.733 185.688C158.733 186.418 158.757 187.173 159.111 187.806C159.77 188.974 161.259 189.303 162.59 189.51C168.973 190.533 175.54 191.762 182.034 191.531C187.246 191.348 190.224 189.802 194.972 193.479C197.572 195.487 199.561 198.616 199.232 201.879C199.049 203.632 198.219 205.275 197.096 206.651C192.665 212.044 184.756 212.774 177.762 212.604C169.51 212.397 161.272 211.521 153.155 209.987C144.916 208.416 139.167 204.301 138.471 195.597C137.812 187.355 140.387 179.126 142.633 171.298C144.72 164.018 148.797 157.31 150.665 150.091C150.701 149.957 150.726 149.86 150.75 149.762Z" fill="#FBC2AA"/>
<path d="M197.01 197.691C196.949 197.326 196.888 196.961 196.827 196.608C196.302 192.992 195.802 188.476 199.745 187.343C202.344 186.589 206.897 186.929 208.63 184.519C209.192 183.74 209.351 182.766 209.485 181.829C209.692 180.489 209.888 179.138 210.095 177.799C202.54 179.089 199.391 172.345 198.439 166.039C197.462 159.599 197.67 151.564 203.357 147.255C206.983 144.503 212.06 143.846 216.32 145.453C220.58 147.06 223.912 150.834 225.121 155.216C226.012 158.455 224.95 159.636 224.767 162.983C224.547 166.769 224.889 173.307 224.681 177.093C224.535 179.637 224.754 182.608 226.146 184.823C226.781 185.834 227.55 186.698 228.624 187.246C229.405 187.648 231.431 187.429 231.919 187.964C234.69 190.996 237.278 194.209 240.28 196.997C233.189 199.968 225.78 202.086 218.2 203.376C212.89 204.289 202.149 207.418 198.487 201.782C197.682 200.54 197.279 199.128 197.01 197.691Z" fill="#FBC2AA"/>
<path d="M259.822 215.526C259.065 206.189 254.866 196.62 246.334 191.946C243.197 190.229 239.743 189.194 236.277 188.379C234.494 187.952 232.688 187.587 230.906 187.186C228.904 186.735 228.501 187.21 227.134 188.707C224.315 191.824 219.86 193.212 215.673 192.773C213.024 192.506 210.473 191.544 208.203 190.18C205.737 188.695 204.871 186.869 201.746 187.039C192.287 187.575 182.839 188.427 173.428 189.596C174.124 197.777 174.673 209.366 176.382 217.389C181.362 216.89 192.372 215.794 192.36 217.304C192.348 219.605 192.396 221.918 192.47 224.219C192.628 228.711 192.909 233.203 193.092 237.695C193.287 242.467 193.641 247.239 194.069 251.987C194.557 257.405 195.387 262.725 196.595 267.984C208.899 272.074 222.936 271.076 236.13 269.883C239.89 269.542 243.795 269.165 247.054 267.253C256.209 261.872 256.599 245.949 257.905 236.685C258.918 229.551 260.408 222.843 259.822 215.526Z" fill="#FF6652"/>
<path d="M165.434 308.572C165.593 308.34 165.764 308.109 165.934 307.89C169.12 303.812 174.625 301.158 179.129 298.759C184.097 296.118 189.65 293.939 195.375 294.267C200.538 294.559 207.703 298.053 208.777 303.507C208.899 304.128 208.948 304.786 208.704 305.358C208.094 306.794 206.153 306.916 204.59 306.928C197.926 306.989 191.518 309.034 185.293 311.238C182.095 312.37 178.909 313.575 175.663 314.61C172.77 315.535 165.739 319.589 163.713 315.377C162.602 313.076 164.152 310.446 165.434 308.572Z" fill="black"/>
<path d="M136.543 253.813C139.24 250.843 143.073 248.919 147.003 248.177C152.52 247.142 158.22 248.14 163.64 249.638C175.113 252.791 185.867 258.099 197.389 261.057C202.503 262.372 205.836 261.885 210.828 261.483C217.163 260.972 223.668 261.592 230.04 261.215C235.996 260.862 242.441 260.399 248.019 262.043C248.751 261.556 249.484 261.081 250.216 260.594C256.441 256.516 262.654 252.462 270.466 253.947C276.605 255.116 282.537 258.22 286.333 263.26C290.373 268.617 289.165 275.617 285.54 280.961C282.537 285.38 278.107 288.643 273.517 291.382C257.686 300.853 240.39 306.66 221.703 305.37C219.201 305.199 216.259 305.163 214.453 307.172C213.782 307.926 213.379 312.053 211.877 311.871C210.022 311.652 206.458 311.14 204.713 310.507C195.265 307.111 185.83 303.702 176.383 300.305C168.083 297.311 159.734 294.304 152.178 289.763C145.636 285.843 139.716 280.535 136.25 273.657C133.748 268.702 131.697 262.177 134.309 257.027C134.919 255.846 135.664 254.775 136.543 253.813Z" fill="#9C4DF4"/>
<path d="M253.731 268.057C248.422 270.698 242.868 272.391 237.778 275.531C232.701 278.66 227.892 282.312 222.362 284.686C218.786 286.22 213.586 286.817 210.156 288.521" stroke="black" stroke-width="0.5" stroke-miterlimit="10"/>
<path d="M214.575 306.453C214.587 306.44 214.587 306.416 214.599 306.404C215.1 305.26 215.588 304.115 216.088 302.971C217.077 300.694 218.066 298.43 219.042 296.154C219.152 295.898 227.635 300.195 228.368 300.792C228.697 301.06 229.014 301.352 229.222 301.717C229.515 302.216 229.576 302.813 229.649 303.385C229.845 304.992 230.089 306.635 229.783 308.23C229.478 309.825 228.49 311.395 226.952 311.907C225.78 312.296 224.511 312.016 223.314 311.748C221.032 311.225 218.798 310.738 216.552 310.08C215.905 309.886 214.209 309.825 213.745 309.362C213.159 308.79 214.319 307.061 214.575 306.453Z" fill="#FBC2AA"/>
<path d="M224.022 297.895C224.645 297.98 225.292 298.004 225.963 297.944C227.33 297.834 228.673 297.445 230.04 297.469C232.762 297.518 233.946 299.636 235.081 301.778C237.083 305.565 240.695 308.328 243.625 311.371C247.299 315.182 249.423 318.773 248.825 324.227C248.617 326.151 247.836 328.354 245.968 328.878C244.247 329.364 242.551 328.159 241.172 327.027C237.424 323.959 233.665 320.904 229.918 317.836C228.209 316.436 226.463 314.573 224.523 313.526C223.29 312.869 221.886 312.382 220.605 311.737C221.984 307.184 223.143 302.57 224.022 297.895Z" fill="black"/>
<path d="M204.871 270.54C204.188 270.199 203.663 269.578 203.26 268.422C202.577 266.474 202.979 264.173 204.078 262.457C205.494 260.241 208.094 258.537 210.669 258.001C213.318 257.441 215.881 256.504 218.578 255.956C220.519 255.566 222.423 255.031 224.327 254.495C230.15 252.864 236.423 251.622 241.953 249.187C242.294 249.041 242.636 248.871 242.832 248.554C243.088 248.128 242.978 247.592 242.856 247.105C241.001 239.667 239.304 232.192 237.754 224.681C237.229 222.125 236.716 219.544 236.741 216.938C236.79 212.203 238.694 207.516 241.965 204.083C243.967 201.977 246.737 200.285 249.618 200.613C251.986 200.893 254.024 202.525 255.367 204.509C256.71 206.493 257.43 208.794 258.15 211.058C260.567 218.716 263.374 226.471 264.46 234.432C264.741 236.514 264.729 238.62 264.717 240.714C264.68 246.74 264.521 253.144 261.201 258.172C250.265 274.679 224.901 272.646 207.898 271.064C206.629 270.978 205.652 270.93 204.871 270.54Z" fill="#FBC2AA"/>
<path d="M209.681 142.312C206.605 142.775 203.651 144.016 201.173 146.037C198.415 148.289 197.548 150.676 196.974 154.206C196.938 154.437 196.913 154.693 197.048 154.888C197.194 155.095 197.487 155.143 197.743 155.18C202.137 155.703 206.556 156.081 210.987 156.312C211.475 156.336 211.975 156.361 212.427 156.178C213.55 155.728 213.989 154.206 215.137 153.816C215.295 155.29 215.185 156.799 214.832 158.236C214.673 158.869 214.465 159.538 214.673 160.159C215.088 161.413 216.565 161.389 217.517 161.961C218.701 162.667 219.848 164.103 220.3 165.394C220.898 167.098 221.166 168.961 222.216 170.47C222.485 170.86 222.802 171.213 223.107 171.566C223.681 172.223 224.242 172.881 224.816 173.538C225.17 173.27 225.341 172.844 225.487 172.443C226.683 169.229 227.953 166.039 228.71 162.703C229.393 159.709 229.369 156.519 228.588 153.549C228.246 152.21 227.623 150.858 227.001 149.629C226.659 148.947 226.207 148.229 225.768 147.596C225.634 147.401 224.316 145.684 224.084 145.83C224.377 145.636 224.743 145.27 224.608 144.881C224.45 144.418 223.376 144.747 223.083 144.905C223.254 144.637 223.498 144.406 223.669 144.138C223.839 143.87 223.949 143.517 223.815 143.225C223.73 143.043 223.559 142.909 223.376 142.811C222.9 142.58 222.326 142.641 221.874 142.896C221.398 143.164 220.995 143.651 220.886 144.175C217.273 142.592 213.672 141.716 209.681 142.312Z" fill="black"/>
<path d="M162.261 258.877C172.892 263.673 181.448 272 191.116 278.501C200.148 284.564 210.157 289.02 220.104 293.451C219.58 294.583 219.372 295.715 218.86 296.847" stroke="black" stroke-width="0.5" stroke-miterlimit="10"/>
<path d="M207.666 168.389C207.031 170.458 204.492 171.712 202.466 170.97" stroke="#1C1C1B" stroke-width="0.5" stroke-miterlimit="10"/>
<path d="M218.395 167.78C222.313 168.754 224.754 164.639 223.558 161.948C221.898 158.211 216.649 158.832 215.685 162.764" fill="#FBC2AA"/>
<path d="M220.396 161.644C219.664 161.437 218.81 161.559 218.187 161.961C217.565 162.362 217.211 163.02 217.235 163.665" stroke="#1C1C1B" stroke-width="0.5" stroke-miterlimit="10"/>
<path d="M249.569 195.987C242.417 196.742 235.862 201.697 233.213 208.381C230.467 215.32 231.834 223.111 233.238 230.44C237.852 230.306 241.928 230.622 246.518 229.721C252.474 228.553 258.26 226.714 263.862 224.45C262.202 213.847 259.126 203.681 251.534 196.036C250.802 195.281 250.619 195.878 249.569 195.987Z" fill="#FF6652"/>
<path d="M168.925 127.411C162.993 130.004 157.622 133.352 152.532 137.345C150.067 139.281 147.735 141.46 145.538 143.688C144.367 144.881 143.256 146.147 142.157 147.401C141.925 146.707 141.693 146.025 141.462 145.343C140.717 143.128 139.875 140.973 138.947 138.83C138.08 136.797 137.128 134.801 136.103 132.841C135.029 130.783 133.992 128.032 131.794 126.997C130.281 126.279 128.926 127.18 128.719 128.763C128.413 131.1 130.269 133.267 131.318 135.239C132.356 137.199 133.32 139.183 134.199 141.217C135.005 143.055 135.749 144.99 136.42 146.914C137.153 148.996 137.665 151.175 138.434 153.232C139.191 155.253 141.828 155.752 143.06 153.829C144.659 151.321 146.905 149.044 148.944 146.877C151.031 144.662 153.216 142.568 155.449 140.498C159.953 136.323 164.75 132.403 169.718 128.787C170.56 128.178 169.865 126.997 168.925 127.411Z" fill="#9C4DF4"/>
<path d="M238.157 276.371H177.896C177.018 276.371 176.297 275.653 176.297 274.776C176.297 273.9 177.018 273.182 177.896 273.182H238.157C239.036 273.182 239.756 273.9 239.756 274.776C239.756 275.653 239.036 276.371 238.157 276.371Z" fill="black"/>
<path d="M229.222 274.204H176.48L165.531 247.227C165.177 246.35 165.824 245.389 166.776 245.389H216.625C217.174 245.389 217.663 245.717 217.87 246.229L229.222 274.204Z" fill="black"/>
<path d="M191.824 259.815C192.385 261.275 194.277 262.456 196.047 262.456C197.817 262.456 198.805 261.275 198.244 259.815C197.682 258.354 195.791 257.173 194.021 257.173C192.251 257.173 191.262 258.354 191.824 259.815Z" stroke="white" stroke-width="0.5" stroke-miterlimit="10"/>
<path d="M209.705 177.641C209.803 178.651 209.717 179.662 209.62 180.66C209.681 180.648 209.754 180.623 209.815 180.611C211.89 179.966 213.599 178.286 214.478 176.302C213.025 177.105 211.377 177.556 209.705 177.641Z" fill="black"/>
<path d="M150.848 149.921C148.566 148.362 146.259 146.792 144.416 144.747C144.037 144.333 143.683 143.87 143.586 143.322C143.488 142.774 143.769 142.129 144.306 141.983C144.904 141.825 145.453 142.324 145.917 142.75C147.663 144.369 149.969 145.404 152.35 145.623" fill="white"/>
<path d="M150.848 149.921C148.566 148.362 146.259 146.792 144.416 144.747C144.037 144.333 143.683 143.87 143.586 143.322C143.488 142.774 143.769 142.129 144.306 141.983C144.904 141.825 145.453 142.324 145.917 142.75C147.663 144.369 149.969 145.404 152.35 145.623" stroke="#1C1C1B" stroke-width="0.5" stroke-miterlimit="10"/>
<path d="M230.479 318.907C230.577 318.846 230.675 318.773 230.772 318.7C230.882 318.615 231.004 318.566 231.126 318.505C231.37 318.395 231.602 318.286 231.846 318.188C231.749 318.237 231.639 318.274 231.541 318.322C231.993 318.128 232.432 317.884 232.823 317.592C232.921 317.519 233.006 317.446 233.104 317.361C233.262 317.215 233.421 317.081 233.641 317.02C234.031 316.898 234.52 317.093 234.727 317.446C234.91 317.762 234.898 318.115 234.739 318.432C234.703 318.505 234.654 318.566 234.617 318.639C234.532 318.773 234.446 318.907 234.349 319.028C234.105 319.357 233.848 319.674 233.555 319.954C233.262 320.246 232.945 320.514 232.591 320.721C232.371 320.855 232.139 321.001 231.883 321.049C231.627 321.11 231.358 321.134 231.102 321.159C230.992 321.147 230.882 321.134 230.785 321.11C230.626 321.074 230.492 321.001 230.37 320.891C230.174 320.733 229.991 320.514 229.93 320.258C229.796 319.722 230.016 319.211 230.479 318.907Z" fill="#FF6652"/>
<path d="M227.562 315.56C227.623 315.353 227.733 315.17 227.88 315.012C228.148 314.708 228.429 314.403 228.697 314.087C228.82 313.953 228.954 313.868 229.125 313.819C229.283 313.734 229.454 313.697 229.637 313.709C229.82 313.697 229.991 313.746 230.15 313.819C230.309 313.868 230.455 313.965 230.577 314.087C230.65 314.172 230.711 314.269 230.785 314.355C230.907 314.561 230.968 314.781 230.968 315.012C230.956 315.134 230.931 315.243 230.919 315.365C230.858 315.584 230.748 315.779 230.577 315.949C230.272 316.229 229.967 316.497 229.65 316.765C229.54 316.887 229.405 316.972 229.247 317.021C229.1 317.094 228.942 317.13 228.771 317.13C228.6 317.142 228.441 317.106 228.295 317.021C228.136 316.972 228.002 316.887 227.892 316.765C227.831 316.68 227.758 316.595 227.697 316.509C227.587 316.315 227.526 316.108 227.526 315.876C227.526 315.779 227.538 315.669 227.562 315.56Z" fill="#FF6652"/>
<path d="M223.949 312.382C224.145 312.09 224.34 311.798 224.535 311.506C224.609 311.372 224.718 311.25 224.84 311.177C224.95 311.067 225.097 311.006 225.243 310.958C225.402 310.909 225.561 310.897 225.719 310.933C225.878 310.946 226.024 310.982 226.159 311.079C226.244 311.14 226.317 311.201 226.403 311.262C226.549 311.408 226.659 311.591 226.708 311.786C226.72 311.895 226.732 311.992 226.757 312.102C226.757 312.321 226.696 312.516 226.598 312.699C226.403 312.991 226.208 313.283 226.012 313.575C225.939 313.709 225.829 313.831 225.707 313.904C225.597 314.013 225.451 314.074 225.304 314.123C225.146 314.172 224.987 314.184 224.828 314.147C224.67 314.135 224.523 314.099 224.389 314.001C224.303 313.94 224.23 313.879 224.145 313.819C223.998 313.672 223.888 313.49 223.84 313.295C223.827 313.186 223.815 313.088 223.803 312.979C223.779 312.772 223.84 312.565 223.949 312.382Z" fill="#FF6652"/>
<path d="M181.484 309.569C181.557 309.314 181.753 309.046 181.985 308.924C182.241 308.79 182.546 308.73 182.827 308.815C182.912 308.851 182.998 308.888 183.083 308.924C183.242 309.022 183.376 309.156 183.474 309.314C183.657 309.557 183.852 309.801 184.035 310.044C184.133 310.166 184.243 310.276 184.34 310.385C184.389 310.434 184.438 310.483 184.475 310.531C184.56 310.616 184.645 310.714 184.706 310.823C184.768 310.921 184.816 311.055 184.853 311.164C184.938 311.432 185.012 311.7 185.097 311.968C185.195 312.296 185.06 312.649 184.792 312.856C184.536 313.051 184.145 313.1 183.852 312.917C183.657 312.796 183.474 312.674 183.278 312.552C183.23 312.516 183.181 312.491 183.132 312.455C182.937 312.321 182.778 312.175 182.656 311.968C182.583 311.858 182.522 311.749 182.448 311.639C182.192 311.213 181.875 310.823 181.582 310.422C181.435 310.19 181.423 309.813 181.484 309.569Z" fill="#FF6652"/>
<path d="M186.147 307.975C186.22 307.719 186.416 307.451 186.647 307.329C187.026 307.122 187.502 306.964 187.77 307.378C188.198 308.048 188.625 308.717 189.064 309.387C189.406 309.922 189.76 310.543 189.552 311.14C189.491 311.335 189.357 311.517 189.162 311.615C188.893 311.736 188.576 311.651 188.307 311.505C187.844 311.249 187.587 310.799 187.307 310.361C187.233 310.251 187.172 310.142 187.099 310.032C186.843 309.606 186.525 309.216 186.232 308.815C186.098 308.595 186.074 308.218 186.147 307.975Z" fill="#FF6652"/>
<path d="M177.2 311.395C177.249 311.237 177.347 311.091 177.469 310.982C177.713 310.75 178.042 310.592 178.384 310.604C178.714 310.616 179.08 310.726 179.3 310.982C179.788 311.566 180.276 312.138 180.752 312.722C180.874 312.844 180.972 312.978 181.021 313.136C181.106 313.295 181.143 313.453 181.131 313.635C181.143 313.818 181.094 313.976 181.021 314.135C180.972 314.293 180.874 314.439 180.752 314.549C180.508 314.78 180.178 314.938 179.837 314.926C179.507 314.914 179.141 314.804 178.921 314.549C178.433 313.964 177.945 313.392 177.469 312.808C177.347 312.686 177.249 312.552 177.2 312.394C177.115 312.235 177.078 312.077 177.09 311.895C177.078 311.712 177.115 311.554 177.2 311.395Z" fill="#FF6652"/>
<path d="M284.295 269.066C283.733 270.186 284.026 271.586 283.489 272.719C283.099 273.559 282.317 274.143 281.78 274.91C280.95 276.103 280.816 277.783 281.609 279C282.391 280.218 284.112 280.79 285.418 280.145C286.455 279.633 287.053 278.514 287.468 277.43C288.323 275.19 289.226 271.684 288.494 269.298C287.883 267.362 285.344 266.948 284.295 269.066Z" fill="black"/>
<path d="M134.663 260.727C135.603 259.973 136.994 259.79 138.081 260.35C139.155 260.91 139.826 262.188 139.594 263.369C139.472 264.014 139.106 264.623 139.082 265.28C139.045 266.12 139.558 266.887 139.826 267.691C140.229 268.884 140.058 270.296 139.216 271.221C138.374 272.159 136.848 272.463 135.798 271.781C134.687 271.051 134.407 269.578 134.199 268.263C133.833 265.901 132.38 262.553 134.663 260.727Z" fill="black"/>
<path d="M194.435 214.59C194.325 214.48 194.105 214.456 193.996 214.59C193.703 214.955 193.385 215.32 193.117 215.697C192.982 215.88 192.848 216.063 192.714 216.245C192.58 216.428 192.421 216.61 192.299 216.817C192.152 217.061 192.482 217.304 192.69 217.11C192.848 216.951 192.995 216.769 193.141 216.598C193.288 216.428 193.434 216.257 193.581 216.087C193.886 215.746 194.154 215.381 194.435 215.028C194.533 214.894 194.557 214.723 194.435 214.59Z" fill="black"/>
<path d="M240.182 230.208C239.255 230.221 238.352 230.403 237.485 230.72C237.216 228.881 236.948 227.055 236.667 225.217C236.374 223.281 236.02 221.346 235.752 219.398C235.74 219.301 235.569 219.325 235.581 219.422C235.801 221.407 235.935 223.391 236.167 225.375C236.399 227.323 236.655 229.271 236.923 231.219C236.948 231.377 237.168 231.487 237.302 231.438C238.217 231.061 239.169 230.866 240.17 230.841C240.597 230.829 240.597 230.208 240.182 230.208Z" fill="black"/>
<path d="M107.212 292.722C105.467 295.96 101.756 297.53 98.3506 298.322C97.3253 298.565 96.2878 298.748 95.2503 298.942C94.4325 299.089 93.5659 299.186 92.7847 299.49C91.0026 300.172 92.9556 301.268 93.8588 301.669C94.3959 301.913 94.5302 302.692 94.2494 303.167C93.9199 303.702 93.2974 303.8 92.7481 303.556C92.0036 303.216 91.1858 302.716 90.6121 302.071L89.4525 305.967H71.9493L70.5822 281.278L96.9714 280.84L96.2756 283.165C99.1928 282.325 102.781 282.009 105.393 283.762C108.347 285.758 108.835 289.69 107.212 292.722ZM104.209 285.758C101.78 284.054 98.2285 284.699 95.6165 285.551C95.5921 285.563 95.5677 285.576 95.5432 285.576L91.9914 297.445C92.6017 297.214 93.273 297.056 93.871 296.934C97.2887 296.24 101.158 295.753 103.807 293.245C105.796 291.37 106.87 287.633 104.209 285.758Z" fill="#9C4DF4"/>
<path d="M91.9063 286.951C91.3571 288.875 90.8078 290.786 90.3318 292.721C90.2342 293.111 90.8078 293.257 90.9299 292.88C91.5524 290.981 92.1016 289.057 92.6509 287.146C92.7851 286.683 92.0406 286.488 91.9063 286.951Z" fill="black"/>
<path d="M89.4284 296.204C89.1477 297.165 88.867 298.115 88.5862 299.077C88.3055 300.038 88.098 301.012 87.8539 301.974C87.7563 302.376 88.3421 302.534 88.4642 302.144C88.7694 301.195 89.1111 300.245 89.3796 299.296L90.1853 296.411C90.3195 295.924 89.5627 295.717 89.4284 296.204Z" fill="black"/>
<path d="M88.4152 293.44C88.3175 293.415 88.1832 293.464 88.1588 293.586C88.0856 294 88.0246 294.414 87.9513 294.815C87.9391 294.925 87.9758 295.047 88.0978 295.071C88.1955 295.095 88.3298 295.047 88.3542 294.925C88.4274 294.511 88.4884 294.097 88.5616 293.695C88.5739 293.586 88.525 293.464 88.4152 293.44Z" fill="black"/>
<path d="M260.628 251.646C260.469 253.911 259.419 256.017 257.869 257.648C257.686 257.843 257.967 258.111 258.162 257.94C259.932 256.346 260.908 254.02 260.981 251.646C260.981 251.415 260.64 251.427 260.628 251.646Z" fill="black"/>
<path d="M145.831 201.916C144.891 201.49 143.951 201.051 143.012 200.637C142.816 200.552 142.633 200.844 142.841 200.93C143.781 201.368 144.72 201.782 145.66 202.208C145.856 202.293 146.039 202.001 145.831 201.916Z" fill="black"/>
<path d="M83.8858 230.123C81.4324 233.215 78.4419 235.845 75.7933 238.766C72.9859 241.859 70.8255 245.474 68.0181 248.566C65.5769 251.269 62.6597 253.545 59.4618 255.286C57.2037 256.516 51.943 259.474 49.2577 258.817C44.058 257.526 47.9517 248.798 49.5873 245.925C51.5402 242.479 54.2865 239.497 57.1915 236.831C60.2308 234.055 63.5264 231.584 66.7975 229.1C70.4715 226.3 74.1333 223.512 77.8073 220.712C78.6983 220.043 79.5649 219.337 80.4804 218.692C81.2371 218.156 82.0671 217.718 82.9948 217.608C84.5937 217.438 86.0462 218.485 86.8152 219.824C88.8292 223.342 86.034 227.42 83.8858 230.123Z" fill="#9C4DF4"/>
<path d="M28.2513 235.711C28.9959 231.718 30.6193 227.944 31.5469 223.999C32.7797 218.765 32.7797 213.323 33.744 208.04C34.7082 202.756 36.8809 197.339 41.2751 194.246C42.4956 193.394 43.8871 192.725 45.364 192.615C48.0371 192.408 50.5881 194.064 52.1017 196.279C53.603 198.483 54.2255 201.173 54.5916 203.827C56.0441 214.26 53.9936 225.156 48.8305 234.347C47.2193 237.22 45.3152 239.923 43.9115 242.893C42.044 246.826 41.0675 251.16 40.8722 255.506C40.7868 257.393 40.8234 259.365 39.9934 261.069C39.2 262.725 36.295 265.245 34.2933 264.186C32.5112 263.236 31.2784 257.648 30.6437 255.846C28.41 249.419 26.9819 242.504 28.2513 235.711Z" fill="#9C4DF4"/>
<path d="M10.7478 235.637C10.3816 233.689 10.0764 231.449 11.3581 229.94C13.1279 227.846 16.692 228.71 18.6084 230.67C20.8176 232.922 21.733 236.148 22.0138 239.289C22.2945 242.43 22.0382 245.595 22.2823 248.724C22.6607 253.533 24.2231 258.147 25.2361 262.858C26.1638 267.143 24.4062 270.065 21.2204 265.828C19.06 262.968 17.4366 259.656 16.1062 256.345C13.4575 249.698 12.0782 242.625 10.7478 235.637Z" fill="#9C4DF4"/>
<path d="M70.4838 232.656C69.5195 234.409 68.4332 236.052 67.1394 237.574C65.8456 239.083 64.4174 240.483 62.9527 241.835C60.0111 244.537 56.8376 246.996 54.0424 249.857C52.6998 251.233 51.4426 252.694 50.3685 254.289C49.1112 256.151 48.1836 258.184 47.4757 260.315C46.6335 262.835 45.9988 265.428 45.3031 267.996C44.5707 270.675 43.8384 273.365 43.106 276.043C42.3126 278.965 41.5192 281.875 40.8845 284.833C40.5794 286.269 40.3108 287.718 40.0911 289.179C39.9935 289.861 39.9202 290.555 39.847 291.249C39.8104 291.626 39.7859 291.991 39.7615 292.369C39.7493 292.515 39.7494 292.661 39.7494 292.807C39.786 292.466 39.847 292.125 39.8836 291.809C39.9813 291.042 40.0912 290.275 40.2132 289.508C40.4207 288.205 40.677 286.915 40.9578 285.636C41.5314 283.056 42.2394 280.523 42.9473 277.979C44.3998 272.756 45.779 267.509 47.317 262.323C48.0127 259.986 48.8428 257.685 50.1122 255.579C51.1253 253.911 52.3458 252.389 53.6763 250.965C56.3982 248.068 59.5229 245.596 62.5256 242.991C65.7967 240.142 69.2144 237.002 71.1429 233.045C71.3504 232.595 70.7279 232.217 70.4838 232.656Z" fill="#1C1C1B"/>
<path d="M39.7124 293.404C39.7368 293.209 39.7368 293.002 39.749 292.795C39.7124 293.002 39.7002 293.209 39.7124 293.404Z" fill="#1C1C1B"/>
<path d="M39.7256 293.768C39.7134 293.647 39.7134 293.525 39.7134 293.403C39.7012 293.525 39.6767 293.647 39.6523 293.756C39.6279 293.817 39.7256 293.817 39.7256 293.768Z" fill="#1C1C1B"/>
<path d="M38.1623 241.067C38.5162 236.405 39.3463 231.766 40.9575 227.36C41.0063 227.226 40.7988 227.165 40.75 227.299C37.7839 235.09 37.3445 243.478 37.4422 251.732C37.491 255.98 37.674 260.229 37.7107 264.478C37.7595 268.885 37.6008 273.28 37.2225 277.662C36.8197 282.3 36.2338 286.914 35.6235 291.528C30.5336 280.779 25.8831 269.822 21.7575 258.671C20.5492 255.396 19.3774 252.097 18.2545 248.786C18.108 248.36 17.4367 248.542 17.5709 248.968C21.5256 260.704 26.0296 272.257 31.0829 283.566C32.511 286.756 33.9757 289.921 35.5014 293.074C35.6845 293.464 36.185 293.208 36.2216 292.88C37.3567 284.005 38.4186 275.118 38.3576 266.158C38.2966 257.819 37.5276 249.443 38.1623 241.067Z" fill="#1C1C1B"/>
<path d="M21.4285 279.294C23.3815 288.266 24.7119 297.664 23.3082 306.697C26.4573 306.71 42.3372 306.795 47.4515 306.746C47.3904 305.955 47.3294 305.176 47.2928 304.384C46.9999 298.784 47.366 293.148 49.0382 287.767C49.441 286.464 50.2833 282.228 50.8203 280.962L50.7226 279.294H21.4285V279.294Z" fill="#FF6652"/>
<path d="M51.9434 274.314L20.5376 274.363C20.269 274.363 20.0128 274.387 19.7564 274.436V281.68C20.0128 281.728 20.269 281.753 20.5376 281.753L51.2842 281.692L51.9434 274.314Z" fill="#1A0400"/>
<path d="M46.2432 285.307C45.8038 285.819 45.462 286.464 45.1569 287.06C44.8517 287.657 44.5954 288.29 44.3513 288.923C43.863 290.226 43.5701 291.54 43.4358 292.916C43.387 293.488 44.3513 293.634 44.4611 293.05C44.693 291.784 44.9982 290.505 45.4132 289.276C45.6207 288.667 45.8648 288.071 46.1333 287.474C46.3897 286.89 46.7192 286.318 46.9633 285.721C47.122 285.332 46.5117 284.991 46.2432 285.307Z" fill="#1C1C1B"/>
<path d="M44.0216 296.544C44.0338 296.13 43.3869 296.13 43.3747 296.544C43.3015 298.638 42.8987 300.707 42.9597 302.813C42.9841 303.483 43.9117 303.446 43.9728 302.813C44.2047 300.72 43.9484 298.638 44.0216 296.544Z" fill="#1C1C1B"/>
<path d="M41.9825 304.907C39.8099 304.554 37.5763 304.445 35.3914 304.713C34.6591 304.798 34.7933 305.808 35.5257 305.711C37.6373 305.431 39.7733 305.37 41.885 305.614C42.2877 305.662 42.3853 304.968 41.9825 304.907Z" fill="#1C1C1B"/>
<path d="M297.575 213.298C295.378 214.272 292.619 216.086 292.29 218.679C292.192 219.446 290.996 219.787 290.813 218.874C290.532 217.486 289.91 216.22 288.884 215.222C287.823 214.175 286.394 213.724 285.247 212.787C284.893 212.495 285.088 211.825 285.528 211.74C287.774 211.302 290.19 210.072 291.191 207.978C291.081 207.601 290.996 207.199 290.959 206.785C290.911 206.225 291.423 205.763 291.936 205.677C292.51 205.592 292.986 205.957 293.169 206.481C293.657 207.905 294.353 209.159 295.219 210.328C295.952 210.961 296.782 211.509 297.563 212.044C297.966 212.336 298.112 213.067 297.575 213.298Z" fill="#D9E0FC"/>
<path d="M305.948 227.566C305.423 227.055 304.861 226.568 304.312 226.093C304.605 225.947 304.91 225.789 305.203 225.631C305.594 225.412 305.753 224.852 305.508 224.474C305.24 224.048 304.788 223.987 304.349 224.17C304.215 224.231 304.08 224.292 303.958 224.352C304.117 223.379 304.288 222.392 304.508 221.419C304.678 220.652 303.519 220.323 303.324 221.09C303.043 222.21 302.725 223.33 302.42 224.438C301.895 223.987 301.371 223.525 300.846 223.074C300.565 222.831 300.15 222.806 299.881 223.074C299.613 223.342 299.625 223.768 299.881 224.036C300.382 224.572 300.882 225.107 301.371 225.655C301.126 225.789 300.87 225.923 300.638 226.081C300.248 226.325 299.82 226.519 299.405 226.726C299.039 226.909 298.929 227.432 299.125 227.773C299.344 228.151 299.796 228.236 300.174 228.041C300.553 227.846 300.943 227.627 301.334 227.481C301.456 227.432 301.566 227.384 301.676 227.335C301.615 227.579 301.554 227.822 301.505 228.053C301.31 228.869 301.017 229.709 300.98 230.549C300.931 231.73 302.677 231.912 303.006 230.817C303.226 230.062 303.226 229.234 303.324 228.455C303.348 228.26 303.385 228.066 303.409 227.859C303.763 228.236 304.129 228.613 304.508 228.991C304.886 229.356 305.569 229.405 305.948 228.991C306.314 228.601 306.351 227.956 305.948 227.566Z" fill="#D9E0FC"/>
<path d="M30.2663 60.6498C28.6673 59.9437 27.4834 58.6776 26.8609 57.0585C26.6412 56.4742 25.8478 56.4376 25.6403 57.0585C25.3718 57.8498 24.9079 58.5559 24.383 59.1889C24.3586 59.2255 24.3342 59.262 24.3098 59.2863C23.8338 59.6881 23.2845 60.0289 22.6864 60.2237C22.2958 60.3454 22.2714 60.9298 22.6864 61.0394C23.5042 61.2585 24.2121 61.5872 24.8102 62.1959C25.3839 62.7924 25.7501 63.5228 25.8843 64.3263C25.9942 64.9837 26.9951 64.7037 26.8975 64.0463C26.7876 63.3524 27.52 62.8411 28.0448 62.5611C28.765 62.1715 29.534 61.8428 30.2907 61.502C30.5959 61.3681 30.5958 60.7959 30.2663 60.6498Z" fill="#D9E0FC"/>
<path d="M22.0387 43.716C22.417 43.8742 22.9053 44.2029 22.7344 44.5681C22.6368 44.7751 22.3926 44.8481 22.1729 44.909C19.8782 45.469 15.6428 46.3455 15.7893 49.5351C15.8137 50.2168 14.7883 50.3264 14.6175 49.6933C14.0194 47.356 12.5913 45.2377 10.4186 44.1177C9.9304 43.862 10.199 43.1925 10.675 43.1559C11.8956 43.0707 13.0551 42.5716 13.9827 41.7925C15.0935 40.8673 15.3742 40.3438 15.6549 38.9803C15.7648 38.4325 16.0822 37.8603 16.6315 37.7264C16.7291 37.702 16.8512 37.6899 16.9488 37.7386C17.1441 37.8116 17.2295 38.0429 17.2906 38.2377C18.0473 40.429 19.512 42.4499 21.5626 43.509C21.7335 43.5699 21.88 43.6429 22.0387 43.716Z" fill="#D9E0FC"/>
<path d="M270.441 77.0483C269.867 76.6952 268.878 76.5978 268.475 76.0378C267.755 75.0152 269.513 75.0517 270.001 74.9178C270.904 74.6744 271.637 73.9804 272.125 73.177C272.613 72.3735 272.882 71.4604 273.138 70.5596C273.748 70.8883 273.87 71.6674 274.127 72.3126C274.566 73.4083 275.567 74.2117 276.702 74.5039C277.105 74.6013 279.29 75.0761 277.776 75.8552C276.763 76.3665 275.616 76.8048 274.786 77.6083C274.261 78.1196 273.48 80.5665 272.882 80.4691C272.613 80.4326 272.418 80.2135 272.296 79.97C272.186 79.7265 272.137 79.4587 272.064 79.203C271.93 78.7404 271.71 78.3022 271.405 77.9248C271.149 77.5839 270.819 77.2918 270.441 77.0483Z" fill="#D9E0FC"/>
<path d="M13.5678 82.0275C11.0412 82.8431 9.63755 85.3022 9.01505 87.7127C8.83196 88.3944 7.7212 88.2605 7.77002 87.5422C7.84326 86.264 7.36723 85.0466 6.54944 84.0727C5.57296 82.904 4.38899 82.5509 3.03414 81.9422C2.83884 81.857 2.60692 81.7353 2.57031 81.5162C2.53369 81.3092 2.70457 81.1144 2.87545 80.9927C3.44913 80.6031 4.19371 80.6396 4.87724 80.5057C6.51282 80.2014 7.89208 78.8257 8.22163 77.2066C8.29487 76.8657 8.3193 76.5005 8.46577 76.184C8.61224 75.8675 8.94179 75.5996 9.29576 75.6483C9.72296 75.7092 9.94262 76.1718 10.0891 76.5736C10.382 77.3892 10.5774 78.1562 11.1999 78.777C11.9444 79.5196 12.8476 80.104 13.7509 80.6153C14.3489 80.9562 14.1781 81.8327 13.5678 82.0275Z" fill="#D9E0FC"/>
</svg>
