<svg width="871" height="1024" viewBox="0 0 871 1024" fill="none" xmlns="http://www.w3.org/2000/svg">
<path fill-rule="evenodd" clip-rule="evenodd" d="M605.407 715.225C598.432 729.791 608.974 758.884 612.779 772.755C620.3 800.189 629.062 826.778 637.555 853.509C646.047 880.239 654.604 906.958 661.612 934.704C666.164 952.716 671.775 973.338 670.826 993.909C668.799 1037.74 625.975 1001.42 613.894 994.056C583.156 975.333 549.366 950.818 512.882 949.151C491.102 948.156 475.907 961.235 467.044 989.481C464.151 998.66 462.912 1010.67 456.071 1016.83C448.766 1023.41 439.219 1023.52 431.683 1022.81C404.203 1020.21 378.746 1004.51 355.208 990.296C329.811 974.999 305.242 957.351 280.774 940.61C270.399 933.511 256.956 931.494 244.96 929.115C229.234 925.995 213.315 923.698 197.455 921.152C162.578 915.518 126.487 910.029 94.9679 892.931C75.2286 882.224 56.2577 865.133 51.0122 835.931C48.3785 821.269 51.479 804.323 53.409 788.7C55.73 769.818 58.3249 750.928 60.1999 732.061C66.2352 671.292 64.2567 606.464 24.8999 576.065C18.9454 571.467 12.3594 568.48 6.15318 564.484C2.20314 561.934 -0.588472 558.166 0.848485 551.204C4.44421 533.735 27.2625 518.01 37.6746 509.376C60.4687 490.478 84.008 473.651 107.128 455.675C122.421 443.788 145.928 429.348 155.94 408.981C164.86 390.834 154.704 366.238 150.048 351.043C145.68 336.811 136.093 314.491 143.429 296.753C146.987 288.152 154.031 283.857 160.498 281.214C171.821 276.603 182.855 275.455 194.129 269.057C212.62 258.556 232.627 240.349 242.623 215.884C249.549 198.931 248.368 183.876 245.236 168.101C243.92 161.469 242.637 156.533 245.822 149.445C250.876 138.186 259.481 128.523 266.866 119.951C293.291 89.2696 322.787 62.3284 352.536 38.7003C367.402 26.8917 382.795 15.5154 398.724 7.68733C409.168 2.53605 422.544 -2.94092 431.635 3.36151C442.168 10.6436 450.619 23.9273 458.842 35.1767C474.199 56.1923 488.737 78.2647 503.087 100.518C536.269 151.992 568.205 204.914 598.895 259.286C620.498 297.614 642.727 336.409 659.739 379.27C663.042 387.661 665.668 396.597 667.582 405.959C669.68 415.852 674.709 423.106 680.176 429.702C714.108 470.638 763.074 491.074 806.549 512.717C817.582 518.213 828.62 523.701 839.451 529.696C848.762 534.85 860.685 539.413 867.281 549.503C880.281 569.375 850.943 589.21 838.761 597.136C795.874 625.042 749.797 641.882 705.432 660.924C684.324 670.006 663.143 678.976 642.232 689.534C631.35 695.016 611.522 702.455 605.407 715.225Z" stroke="#9C4DF4" stroke-opacity="0.07"/>
<path fill-rule="evenodd" clip-rule="evenodd" d="M596.623 712.42C595.951 732.472 602.315 752.036 606.987 769.538C613.709 794.73 621.289 819.374 628.447 844.285C635.215 867.842 641.933 891.579 646.768 916.359C649.716 931.47 653.693 949.854 650.33 966.864C643.046 1003.74 602.888 969.615 592.008 963.19C564.966 947.207 535.195 927.246 503.096 927.119C483.051 927.04 468.591 939.894 460.314 965.896C457.449 974.892 456.056 983.299 449.57 989.735C442.065 997.184 432.478 998.435 424.291 998.336C398.644 998.03 374.445 985.002 352.368 972.819C329.56 960.232 306.185 946.315 286.069 930.079C278.023 923.59 266.471 920.865 256.715 918.155C241.701 913.992 226.471 910.635 211.356 906.855C180.636 899.181 149.425 890.67 122.037 873.222C102.265 860.626 84.1624 842.289 76.1837 814.272C68.1028 785.868 73.66 754.34 76.7726 722.869C82.1704 668.47 86.6237 600.871 54.8583 566.628C50.0426 561.433 44.3989 558.543 39.0793 554.407C36.3425 552.284 33.3977 549.513 33.938 544.444C35.3411 531.284 54.8727 518.952 62.2169 513.206C82.5104 497.326 103.45 483.356 123.988 468.222C140.298 456.206 159.653 443.707 172.697 425.115C188.527 402.554 173.007 367.985 173.056 344.427C173.145 303.58 209.484 305.395 230.301 300.282C254.205 294.415 282.036 272.804 280.424 237.042C279.805 223.366 276 212.84 279.842 198.207C285.85 175.322 299.901 154.136 312.649 136.222C331.823 109.298 353.534 84.5633 376.632 64.2184C393.173 49.6557 419.76 27.2689 435.967 41.5317C446.884 51.1196 456.034 64.9004 464.997 77.6872C478.419 96.8295 491.128 116.858 503.59 137.15C532.383 183.938 559.753 232.5 585.302 282.764C602.732 317.066 640.899 434.387 645.073 440.518C657.524 458.791 676.275 470.053 693.262 480.3C715.858 493.932 739.49 505.116 762.967 516.571C774.138 522.034 785.543 527.155 796.354 533.515C804.048 538.043 814.021 544.261 817.458 555.064C824.168 576.145 796.436 594.591 784.837 602.488C749.293 626.707 711.379 642.75 674.532 660.479C656.447 669.187 638.214 677.76 620.472 688.406C613.312 692.709 597.036 700.034 596.623 712.42Z" stroke="#9C4DF4" stroke-opacity="0.07"/>
<path fill-rule="evenodd" clip-rule="evenodd" d="M583.469 713.847C587.055 757.382 601.467 797.881 611.032 838.783C615.83 859.315 620.528 880.248 622.619 902.198C623.707 913.614 625.006 927.995 620.577 939.796C608.727 971.365 572.403 940.876 560.402 934.088C537.195 920.972 511.372 905.341 483.932 906.66C467.165 907.472 453.747 918.554 446.352 940.2C443.07 949.803 441.001 958.459 434.179 965.4C427.266 972.431 418.758 974.882 410.936 975.722C388.453 978.144 366.518 968.723 346.98 959.495C324.073 948.643 302.108 935.403 281.261 919.883C262.998 906.301 240.586 901.553 219.85 894.302C192.383 884.691 164.909 873.888 140.726 855.931C121.629 841.744 104.821 822.396 95.6287 795.501C86.3049 768.137 87.4828 737.642 90.5572 705.982C95.2052 658.121 102.733 594.883 79.3778 559.339C75.9832 554.165 71.978 551.085 67.5991 547.566C65.4716 545.858 62.6403 543.827 63.178 539.681C64.4759 529.701 81.8765 520.644 87.2629 517.018C104.457 505.443 122 495.166 139.298 483.974C155.447 473.526 172.668 462.908 187.01 447.495C209.844 422.944 192.084 387.079 206.74 358.773C215.841 341.201 233.716 336.446 247.25 333.964C263.907 330.922 283.766 335.081 299.085 319.105C310.495 307.207 308.005 293.969 308.313 279.166C308.834 254.085 320.73 227.823 332.299 206.372C347.929 177.383 367.318 150.404 388.675 128.591C398.356 118.702 409.104 108.884 420.397 103.813C430.978 99.0575 437.975 100.803 445.38 108.393C468.042 131.636 486.047 165.2 503.58 196.182C525.608 235.111 546.322 275.597 564.948 317.912C577.649 346.769 590.378 376.81 597.863 409.721C599.813 418.3 601.646 427.426 601.532 436.885C601.462 444.005 600.391 449.183 603.165 455.194C611.39 473.008 630.087 482.763 644.062 491.163C666.403 504.603 689.849 515.469 713.073 526.714C726.632 533.262 753.466 542.921 755.752 565.832C757.722 585.613 735.923 601.948 724.722 610.43C696.391 631.876 666.02 646.892 636.514 663.574C622.991 671.22 609.132 678.763 596.204 688.719C592.905 691.255 588.103 694.318 585.557 698.409C582.649 703.104 583.035 708.487 583.469 713.847Z" stroke="#9C4DF4" stroke-opacity="0.07"/>
<path fill-rule="evenodd" clip-rule="evenodd" d="M585.34 705.586C589.246 744.588 598.99 781.147 604.994 819.268C607.686 836.36 610.189 854.069 609.715 872.321C609.461 882.137 608.478 894.036 603.053 902.704C587.483 927.585 557.173 903.41 543.701 896.183C523.695 885.419 500.868 872.727 477.201 875.584C461.697 877.454 450.861 888.554 444.221 907.942C437.1 928.739 425.434 939.345 409.077 942.385C388.574 946.185 368.256 939.465 350.123 932.134C328.287 923.278 307.461 911.647 287.9 897.381C268.876 883.505 247.901 875.329 227.253 865.167C199.879 851.69 172.69 835.58 151.619 809.844C133.275 787.435 121.285 757.714 118.481 722.631C115.543 686.007 123.67 648.043 124.971 610.672C125.783 587.363 126.296 556.141 115.021 539.067C111.26 533.372 100.852 530.352 110.264 521.634C115.646 516.647 122.582 513.804 128.455 510.746C137.943 505.804 147.494 501.221 157.015 496.46C177.309 486.308 198.608 476.337 217.624 460.849C241.575 441.356 235.427 409.359 250.639 383.32C258.823 369.306 271.497 362.367 283.357 358.232C291.033 355.55 298.773 353.982 306.454 352.837C314.477 351.639 322.941 352.354 330.966 349.182C342.395 344.677 344.702 331.584 349.211 318.66C357.129 295.946 366.996 274.133 378.586 253.716C392.789 228.688 409.482 204.387 428.773 186.056C436.281 178.918 444.869 171.786 453.588 169.548C462.307 167.309 468.024 171.828 473.683 178.229C490.478 197.197 503.699 223.452 516.284 248.374C532.034 279.569 546.466 312.241 558.746 346.548C567.222 370.231 575.229 395.02 578.97 421.771C580.056 429.555 580.785 437.59 580.535 445.825C580.367 451.474 578.701 457.762 579.912 462.933C583.712 479.089 602.64 488.135 613.127 494.599C634.055 507.501 656.794 515.77 677.784 528.471C689.241 535.402 707.523 545.552 708.976 565.052C710.344 583.385 693.485 599.114 682.838 608.505C661.907 626.975 639.184 640.613 617.255 656.072C608.235 662.437 598.577 668.942 590.48 677.732C583.271 685.569 584.341 695.588 585.34 705.586Z" stroke="#9C4DF4" stroke-opacity="0.07"/>
<path fill-rule="evenodd" clip-rule="evenodd" d="M581.361 702.239C583.365 735.569 589.459 768.138 591.374 801.925C592.491 821.71 594.698 855.196 578.803 871.01C561.349 888.395 537.393 872.635 522.854 864.956C505.55 855.818 485.033 845.492 464.44 849.645C457.927 850.956 451.387 854.129 446.125 860.627C440.493 867.581 438.919 875.984 435.229 884.292C427.488 901.72 413.917 910.626 400.175 913.685C380.749 918.012 361.459 913.071 343.991 906.848C324.212 899.775 305.355 889.993 287.692 877.642C270.805 865.854 253.79 854.825 236.538 843.745C213.968 829.271 192.156 812.366 174.831 788.868C157.767 765.715 146.222 736.45 142.435 702.526C138.744 669.426 142.311 634.553 147.366 600.013C150.237 580.41 153.562 550.449 145.711 534.117C142.222 526.851 136.952 523.541 147.102 517.937C159.883 510.88 173.97 507.868 187.03 503.304C205.872 496.714 225.148 490.041 243.447 479.369C255.133 472.555 263.17 463.66 269.72 448.905C274.704 437.662 278.449 425.714 284.557 415.191C298.89 390.49 321.413 382.326 341.73 374.271C354.799 369.091 365.959 365.965 377.359 353.625C390.835 339.044 402.275 320.953 414.484 304.579C427.892 286.6 442.245 268.179 458.664 255.53C473.28 244.267 485.116 242.868 495.553 255.841C511.834 276.069 523.08 305.946 533.014 333.261C543.128 361.056 552.002 390.581 556.271 422.126C558.575 439.16 557.398 456.476 558.402 473.759C559.68 495.467 582.488 503.349 594.984 510.225C615.727 521.639 685.591 548.042 654.191 597.261C641.085 617.805 621.797 631.792 605.467 646.627C598.693 652.786 589.86 659.691 584.717 668.559C579.116 678.217 580.762 692.209 581.361 702.239Z" stroke="#9C4DF4" stroke-opacity="0.07"/>
<path fill-rule="evenodd" clip-rule="evenodd" d="M575.176 695.251C575.065 724.122 577.574 753.205 575.152 782.795C573.593 801.966 569.466 826.166 554.26 837.077C537.099 849.39 516.523 840.8 501.788 833.693C486.607 826.369 468.889 816.788 450.782 822.601C445.019 824.456 439.159 828.279 435.185 834.96C431.37 841.367 429.619 849.201 425.779 855.755C417.16 870.473 404.585 878.816 391.851 882.37C354.183 892.884 314.879 873.839 285.057 854.177C270.131 844.332 255.85 831.966 241.648 820.361C223.218 805.302 205.722 788.231 191.687 766.539C161.844 720.423 156.122 659.951 163.299 594.587C165.559 574.013 169.827 553.014 167.248 533.441C165.924 523.34 169.329 519.098 177.117 516.105C189.291 511.43 201.981 510.198 214.188 507.71C231.55 504.174 249.246 500.638 266.365 493.858C278.165 489.185 287.719 483.428 296.229 470.069C302.296 460.545 307.102 449.888 312.762 439.997C323.516 421.209 337.251 404.679 352.757 393.648C365.062 384.914 377.953 378.157 390.823 372.115C407.563 364.237 422.92 355.093 438.644 342.878C459.473 326.719 493.603 293.946 511.196 321.027C530.598 350.902 539.224 398.69 540.821 440.319C541.359 454.296 539.802 469.907 543.538 482.524C549.14 501.394 560.525 508.739 573.671 517.765C593.348 531.285 639.123 554.583 618.722 598.091C610.638 615.328 597.777 628.018 587.41 642.806C575.78 659.355 575.236 675.564 575.176 695.251Z" stroke="#9C4DF4" stroke-opacity="0.07"/>
<path fill-rule="evenodd" clip-rule="evenodd" d="M568.392 687.981C564.989 723.357 565.544 785.736 532.855 805.089C515.583 815.32 496.218 810.264 480.707 804.505C468.216 799.886 454.361 791.815 439.857 798.813C429.195 803.959 425.319 819.497 417.296 829.62C407.347 842.168 394.902 849.459 382.355 852.732C347.294 861.882 311.644 847.482 283.223 830.013C253.706 811.866 225.913 782.082 206.269 748.171C181.781 705.883 173.942 652.449 178.319 594.671C179.128 584.007 180.341 573.328 181.33 562.651C181.99 555.487 181.546 547.808 182.793 540.655C184.878 528.731 192.08 522.786 200.439 519.855C212.467 515.63 224.895 515.297 236.838 514.143C253.173 512.558 269.685 511.325 286.014 507.504C296.991 504.926 308.594 501.995 317.594 490.575C323.733 482.788 328.717 473.49 333.166 464.105C342.703 443.98 351.244 428.278 366.477 414.339C391.509 391.471 420.713 375.537 448.63 364.781C470.539 356.339 504.96 343.492 518.724 368.78C531.084 391.447 529.065 423.853 530.681 452.3C531.468 466.129 533.362 479.572 537.328 491.764C542.328 507.135 549.287 516.945 559.617 526.036C577.003 541.338 604.702 561.341 594.652 598.001C590.944 611.531 583.697 623.191 578.906 636.18C572.553 653.344 570.108 670.137 568.392 687.981Z" stroke="#9C4DF4" stroke-opacity="0.07"/>
<path fill-rule="evenodd" clip-rule="evenodd" d="M558.226 679.55C550.582 715.547 541.34 761.184 510.409 776.49C495.426 783.905 479.806 783.042 465.482 780.564C455.222 778.792 441.423 770.819 430.39 779.551C422.278 785.982 415.744 798.073 407.678 805.396C396.592 815.466 384.236 821.531 371.806 824.371C339.42 831.777 307.122 820.962 280.277 805.699C221.95 772.528 185.87 690.609 189.99 599.719C191.216 572.624 190.506 542.393 215.215 530.929C242.183 518.432 271.103 523.836 297.843 520.195C308.058 518.808 320.854 517.498 330.385 508.791C336.117 503.558 340.459 495.024 344.234 487.511C353.859 468.384 363.349 451.759 377.357 437.387C399 415.174 424.464 398.48 449.418 387.639C471.18 378.187 499.989 369.314 512.315 395.496C521.754 415.595 520.426 443.483 523.89 467.113C527.737 493.422 537.316 515.981 551.353 533.472C565.014 550.472 581.155 566.726 578.173 596.763C577.15 607.066 575.084 619.895 571.783 629.799C566.3 646.102 561.767 662.74 558.226 679.55V679.55Z" stroke="#9C4DF4" stroke-opacity="0.07"/>
<path fill-rule="evenodd" clip-rule="evenodd" d="M546.436 671.105C534.72 704.691 519.355 737.536 491.755 751.308C478.876 757.732 465.669 759.49 452.728 760.41C443.207 761.087 433.872 760.756 424.415 766.119C415.655 771.082 407.397 778.168 398.697 783.461C387.197 790.495 375.232 795.195 363.262 797.38C333.275 802.82 303.893 794.747 278.487 781.428C266.185 774.987 253.262 767.127 243.822 754.975C234.704 743.243 226.853 729.233 220.286 714.685C206.317 683.775 198.812 647.461 199.45 608.552C199.892 581.865 204.349 558.702 226.351 546.531C251.154 532.814 278.685 534.819 303.548 531.976C320.601 530.027 339.014 529.29 351.843 508.962C362.052 492.789 371.496 477.268 384.096 464.02C402.743 444.52 423.539 429.557 445.25 420.016C465.075 411.355 486.781 407.382 499.227 427.933C509.081 444.227 511.698 467.278 517.809 486.689C524.605 508.349 535.433 525.187 547.679 541.173C558.675 555.56 567.566 572.133 568.245 594.737C568.386 599.358 568.472 604.342 568.012 609.084C567.424 615.134 564.971 619.838 562.694 625.501C556.673 640.437 551.74 655.905 546.436 671.105Z" stroke="#9C4DF4" stroke-opacity="0.07"/>
<path fill-rule="evenodd" clip-rule="evenodd" d="M532.086 664.591C517.459 694.074 499.042 718.763 474.543 732.683C464.066 738.64 453.326 742.088 442.678 746.822C434.1 750.643 426.049 754.137 417.335 756.149C396.678 760.895 376.573 771.618 355.808 774.205C328.075 777.684 301.17 771.604 277.16 760.01C265.435 754.35 253.928 747.25 243.963 737.597C235.404 729.307 229.401 716.826 224.12 704.652C213.765 680.799 206.434 652.002 206.657 622.137C207.147 556.292 270.858 552.221 304.819 547.522C320.439 545.358 342.569 545.646 356.343 529.492C366.184 517.954 374.888 505.318 385.445 494.84C413.8 466.705 456.599 440.146 483.83 466.448C495.485 477.699 502.463 495.497 511.268 510.295C520.334 525.533 531.233 538.068 542.045 551.031C552.151 563.143 559.044 575.202 559.689 595.203C560.001 604.756 555.626 612.911 551.807 621.726C545.529 636.204 539.008 650.621 532.086 664.591Z" stroke="#9C4DF4" stroke-opacity="0.07"/>
<path fill-rule="evenodd" clip-rule="evenodd" d="M518.311 660.137C491.859 701.615 450.367 738.177 411.532 746.037C365.85 755.283 319.928 757.915 279.434 739.803C260.66 731.406 241.096 720.135 230.373 697.735C222.21 680.693 214.104 658.051 216.017 635.413C220.692 580.038 274.395 570.51 305.184 564.683C321.761 561.546 341.283 560.82 357.512 550.724C366.924 544.872 375.365 534.359 384.266 526.939C411.242 504.455 443.14 493.33 470.057 506.007C482.502 511.87 492.81 522.387 503.2 532.265C513.835 542.376 525.072 551.642 535.24 562.521C543.356 571.206 552.348 582.628 548.747 599.47C544.212 620.696 529.112 643.197 518.311 660.137Z" stroke="#9C4DF4" stroke-opacity="0.07"/>
<path fill-rule="evenodd" clip-rule="evenodd" d="M503.122 659.239C475.76 696.511 441.057 727.33 403.939 735.212C384.255 739.39 364.436 737.967 345.285 736.858C323.576 735.599 302.232 731.515 282.463 723.141C257.847 712.717 219.695 692.284 226.033 647.094C232.326 602.239 277.223 589.729 303.434 583.033C320.234 578.75 337.337 575.982 354.182 570.248C363.315 567.14 371.665 562.025 380.509 557.088C404.978 543.385 432.833 538.402 456.963 542.144C480.35 545.769 505.675 557.723 524.066 574.584C532.004 581.854 535.962 590.602 532.368 605.209C527.361 625.508 514.427 643.843 503.122 659.239Z" stroke="#9C4DF4" stroke-opacity="0.07"/>
<path fill-rule="evenodd" clip-rule="evenodd" d="M486.008 662.541C461.124 694.811 429.73 718.293 397.053 725.394C360.423 733.356 322.079 725.343 289.587 712.285C272.317 705.341 233.908 692.331 240.066 657.822C246.224 623.313 282.839 610.425 303.567 603.724C328.71 595.621 354.778 589.037 380.196 583.743C402.285 579.133 425.533 574.88 447.221 574.52C459.47 574.279 471.521 575.499 483.229 578.164C491.887 580.162 503.214 582.046 509.702 589.5C526.063 608.308 497.907 647.112 486.008 662.541Z" stroke="#9C4DF4" stroke-opacity="0.07"/>
<path fill-rule="evenodd" clip-rule="evenodd" d="M466.274 663.712C417.104 723.277 351.998 724.28 299.547 704.056C287.36 699.354 252.116 688.41 256.407 662.797C260.571 637.965 291.143 626.238 305.522 620.61C350.079 603.169 396.498 599.489 441.042 594.847C454.945 593.398 481.49 587.745 489.758 604.534C498.727 622.78 476.467 651.359 466.274 663.712Z" stroke="#9C4DF4" stroke-opacity="0.07"/>
<path fill-rule="evenodd" clip-rule="evenodd" d="M444.092 666.383C405.845 708.841 352.86 711.725 312.585 696.908C302.722 693.276 277.009 685.424 277.375 666.45C277.711 648.896 301.612 639.648 310.77 635.739C331.162 627.033 352.344 622.891 373.089 619.176C392.273 615.733 411.751 612.075 430.688 611.038C440.661 610.495 460.061 608.038 464.174 622.366C468.607 637.784 452.585 656.956 444.092 666.383Z" stroke="#9C4DF4" stroke-opacity="0.07"/>
<path fill-rule="evenodd" clip-rule="evenodd" d="M419.543 669.543C393.115 696.266 355.391 699.403 327.931 690.127C320.545 687.627 304.171 683.07 303.087 670.304C302.091 658.549 316.03 651.963 322.322 648.821C350.21 634.892 384.181 628.713 412.061 629.769C419.071 630.035 431.946 629.945 434.103 640.682C436.311 651.703 425.612 663.408 419.543 669.543Z" stroke="#9C4DF4" stroke-opacity="0.07"/>
<path fill-rule="evenodd" clip-rule="evenodd" d="M394.395 671.056C380.593 683.857 359.563 686.174 345.257 681.649C335.189 678.462 325.91 668.787 340.536 659.451C355.058 650.191 375.419 646.641 390.096 648.973C401.293 650.755 406.248 660.06 394.395 671.056Z" stroke="#9C4DF4" stroke-opacity="0.07"/>
</svg>
