<svg width="295" height="184" viewBox="0 0 295 184" fill="none" xmlns="http://www.w3.org/2000/svg">
<path d="M272.669 179.173H17.4415C12.7282 179.173 8.91084 175.374 8.91084 170.684V8.48848C8.91084 3.79855 12.7282 0 17.4415 0H272.669C277.382 0 281.2 3.79855 281.2 8.48848V170.684C281.2 175.369 277.382 179.173 272.669 179.173Z" fill="#455A64"/>
<path d="M284.578 183.274H10.4218C4.66637 183.274 0 178.631 0 172.904V167.597H295V172.904C295 178.637 290.334 183.274 284.578 183.274Z" fill="#455A64"/>
<path d="M118.217 165.919L121.876 171.716H173.388L176.783 165.919H118.217Z" fill="#263238"/>
<path d="M278.858 165.919C278.858 166.018 218.423 166.093 143.89 166.093C69.3336 166.093 8.91084 166.018 8.91084 165.919C8.91084 165.819 69.3336 165.744 143.89 165.744C218.423 165.744 278.858 165.819 278.858 165.919Z" fill="#263238"/>
<path d="M270.421 161.182H18.6302C17.5705 161.182 16.7156 160.326 16.7156 159.277V12.2115C16.7156 11.157 17.5763 10.3064 18.6302 10.3064H270.427C271.487 10.3064 272.341 11.1628 272.341 12.2115V159.277C272.336 160.326 271.481 161.182 270.421 161.182Z" fill="#EBEBEB"/>
<path d="M272.066 161.403H16.4347L16.7099 21.5793H272.066V161.403Z" fill="white"/>
<path d="M37.6761 16.1325C37.6761 17.2569 36.7627 18.1658 35.6327 18.1658C34.5027 18.1658 33.5894 17.2569 33.5894 16.1325C33.5894 15.0081 34.5027 14.0992 35.6327 14.0992C36.7627 14.0992 37.6761 15.0081 37.6761 16.1325Z" fill="#263238"/>
<path d="M25.305 16.1325C25.305 17.2569 24.3916 18.1658 23.2616 18.1658C22.1316 18.1658 21.2182 17.2569 21.2182 16.1325C21.2182 15.0081 22.1316 14.0992 23.2616 14.0992C24.3916 14.0992 25.305 15.0081 25.305 16.1325Z" fill="#263238"/>
<path d="M31.2414 16.1325C31.2414 17.2569 30.3281 18.1658 29.1981 18.1658C28.0681 18.1658 27.1547 17.2569 27.1547 16.1325C27.1547 15.0081 28.0681 14.0992 29.1981 14.0992C30.3281 14.0992 31.2414 15.0081 31.2414 16.1325Z" fill="#263238"/>
<path d="M272.336 147.9H16.4347V161.404H272.336V147.9Z" fill="#263238"/>
<path d="M26.107 156.213V156.644H24.0695V156.3L25.1702 155.263C25.4396 155.007 25.4864 154.849 25.4864 154.692C25.4864 154.442 25.3108 154.296 24.9712 154.296C24.7018 154.296 24.4794 154.389 24.3213 154.581L23.9641 154.308C24.1749 154.022 24.5613 153.853 25.0122 153.853C25.6152 153.853 26.0016 154.156 26.0016 154.646C26.0016 154.914 25.9255 155.158 25.545 155.514L24.8072 156.213H26.107V156.213Z" fill="white"/>
<path d="M26.3822 154.849C26.3822 154.651 26.5285 154.523 26.7042 154.523C26.8798 154.523 27.0262 154.651 27.0262 154.849C27.0262 155.035 26.8798 155.175 26.7042 155.175C26.5285 155.175 26.3822 155.041 26.3822 154.849ZM26.3822 156.346C26.3822 156.148 26.5285 156.02 26.7042 156.02C26.8798 156.02 27.0262 156.148 27.0262 156.346C27.0262 156.533 26.8798 156.672 26.7042 156.672C26.5285 156.672 26.3822 156.538 26.3822 156.346Z" fill="white"/>
<path d="M28.3141 153.894V156.644H27.7988V154.319H27.2133V153.888H28.3141V153.894Z" fill="white"/>
<path d="M31.3293 156.021H30.8375V156.644H30.3398V156.021H28.8234V155.665L30.1876 153.894H30.738L29.4557 155.59H30.3633V155.036H30.8434V155.59H31.3352V156.021H31.3293Z" fill="white"/>
<path d="M245.591 154.919H35.8442V155.869H245.591V154.919Z" fill="white"/>
<path d="M101.232 153.9H35.6859V156.44H101.232V153.9Z" fill="#FF6652"/>
<path d="M103.351 155.397C103.351 157.151 101.923 158.572 100.16 158.572C98.398 158.572 96.9694 157.151 96.9694 155.397C96.9694 153.644 98.398 152.222 100.16 152.222C101.923 152.222 103.351 153.644 103.351 155.397Z" fill="#FF6652"/>
<path d="M250.872 155.368C250.872 155.916 250.427 156.259 249.859 156.259C249.103 156.259 248.664 155.776 248.664 154.89C248.664 153.947 249.215 153.428 250.017 153.428C250.292 153.428 250.555 153.486 250.743 153.603L250.555 153.987C250.403 153.888 250.222 153.853 250.028 153.853C249.507 153.853 249.179 154.174 249.179 154.803V154.809C249.343 154.617 249.613 154.523 249.917 154.523C250.468 154.523 250.872 154.855 250.872 155.368ZM250.374 155.391C250.374 155.106 250.157 154.925 249.823 154.925C249.49 154.925 249.261 155.123 249.261 155.397C249.261 155.654 249.466 155.863 249.835 155.863C250.157 155.857 250.374 155.677 250.374 155.391Z" fill="white"/>
<path d="M251.124 154.424C251.124 154.226 251.27 154.097 251.446 154.097C251.621 154.097 251.768 154.226 251.768 154.424C251.768 154.61 251.621 154.75 251.446 154.75C251.27 154.75 251.124 154.61 251.124 154.424ZM251.124 155.921C251.124 155.723 251.27 155.595 251.446 155.595C251.621 155.595 251.768 155.723 251.768 155.921C251.768 156.107 251.621 156.247 251.446 156.247C251.27 156.247 251.124 156.107 251.124 155.921Z" fill="white"/>
<path d="M252.101 154.844C252.101 153.941 252.599 153.428 253.255 153.428C253.916 153.428 254.414 153.941 254.414 154.844C254.414 155.747 253.916 156.259 253.255 156.259C252.599 156.259 252.101 155.747 252.101 154.844ZM253.893 154.844C253.893 154.18 253.635 153.871 253.255 153.871C252.88 153.871 252.617 154.18 252.617 154.844C252.617 155.508 252.88 155.817 253.255 155.817C253.635 155.817 253.893 155.508 253.893 154.844Z" fill="white"/>
<path d="M254.753 154.844C254.753 153.941 255.251 153.428 255.907 153.428C256.568 153.428 257.066 153.941 257.066 154.844C257.066 155.747 256.568 156.259 255.907 156.259C255.251 156.259 254.753 155.747 254.753 154.844ZM256.551 154.844C256.551 154.18 256.293 153.871 255.912 153.871C255.538 153.871 255.274 154.18 255.274 154.844C255.274 155.508 255.538 155.817 255.912 155.817C256.287 155.817 256.551 155.508 256.551 154.844Z" fill="white"/>
<path d="M261.533 154.675H260.579V151.931H263.325V152.881H261.533V154.675Z" fill="white"/>
<path d="M263.331 158.252H260.573V155.519H261.528V157.302H263.331V158.252Z" fill="white"/>
<path d="M267.722 158.252H264.97V157.302H266.762V155.508H267.722V158.252Z" fill="white"/>
<path d="M267.722 154.669H266.768V152.881H264.965V151.931H267.722V154.669Z" fill="white"/>
<path d="M51.494 29.893H36.4234L28.894 42.8734L36.4234 55.8595H51.494L59.0234 42.8734L51.494 29.893Z" fill="#EBEBEB"/>
<path d="M37.6529 45.4197C36.9796 44.6798 36.3004 43.9283 35.8086 43.0544C35.3168 42.1805 35.0241 41.1668 35.188 40.1763C35.2817 39.5996 35.5276 39.0519 35.5686 38.4693C35.6213 37.6653 35.2817 36.8264 35.5686 36.0748C36.0136 34.898 37.6061 34.7174 38.5722 33.9076C39.3216 33.2725 39.6904 32.2472 40.516 31.717C41.2361 31.2509 42.1671 31.2626 43.016 31.3849C43.865 31.5072 44.7257 31.717 45.5746 31.6063C46.1836 31.5247 46.7515 31.28 47.3487 31.1344C47.9459 30.9887 48.6075 30.9479 49.1344 31.2567C49.6614 31.5655 49.96 32.3112 49.6145 32.8123C50.604 32.3578 51.857 33.1269 52.1263 34.1697C52.3956 35.2184 51.857 36.3487 51.0197 37.0419C50.1825 37.7352 49.0993 38.0557 48.0337 38.2537C45.0126 38.8189 41.728 38.4984 39.1225 36.873" fill="#263238"/>
<path d="M51.623 48.6236C51.5235 46.7651 50.9966 42.9549 50.4872 39.5117C49.9368 35.8064 46.6171 33.1497 42.8641 33.4002L42.4894 33.4235C38.4846 33.9246 36.6754 37.5891 37.2902 41.5625L38.467 55.8653H48.2448C48.2448 55.8653 48.0164 53.3543 48.0106 53.331C48.0106 53.3252 51.8338 52.4687 51.623 48.6236Z" fill="#FFBE9D"/>
<path d="M48.0105 53.2733C48.0105 53.2733 45.5807 53.6345 42.8757 52.1838C42.8757 52.1838 44.2516 54.8696 48.0866 54.2695L48.0105 53.2733Z" fill="#EB996E"/>
<path d="M49.7852 41.4452C49.7208 41.5209 49.2817 41.2413 48.6903 41.2821C48.099 41.317 47.6833 41.6491 47.613 41.5792C47.5779 41.55 47.6423 41.4161 47.818 41.2646C47.9936 41.1131 48.3039 40.9616 48.6728 40.9383C49.0416 40.915 49.3637 41.0315 49.551 41.1597C49.7442 41.2821 49.8145 41.4102 49.7852 41.4452Z" fill="#263238"/>
<path d="M43.9535 41.9465C43.8891 42.0223 43.45 41.7426 42.8586 41.7834C42.2673 41.8184 41.8516 42.1504 41.7813 42.0805C41.7462 42.0514 41.8106 41.9174 41.9921 41.7659C42.1678 41.6144 42.4781 41.463 42.8469 41.4397C43.2158 41.4164 43.5378 41.5329 43.7252 41.661C43.9125 41.7834 43.9828 41.9116 43.9535 41.9465Z" fill="#263238"/>
<path d="M46.4006 46.1814C46.3948 46.1464 46.7578 46.0591 47.355 45.9425C47.5072 45.9192 47.6477 45.8784 47.6653 45.7736C47.6946 45.6629 47.6184 45.5056 47.5365 45.3308C47.3667 44.9754 47.1969 44.6026 47.0095 44.2122C46.2777 42.6159 45.7332 41.305 45.7976 41.2759C45.862 41.2468 46.5119 42.5169 47.2437 44.1132C47.4194 44.5093 47.5892 44.8822 47.7531 45.2434C47.8234 45.4124 47.9346 45.5988 47.8702 45.8318C47.8351 45.9484 47.7297 46.0358 47.636 46.0707C47.5423 46.1057 47.4545 46.1115 47.3784 46.1231C46.7812 46.1872 46.4065 46.2164 46.4006 46.1814Z" fill="#263238"/>
<path d="M43.9475 39.6155C43.9007 39.7786 43.3035 39.7437 42.6126 39.8718C41.9158 39.9884 41.3713 40.2272 41.2659 40.0932C41.2191 40.0291 41.3069 39.8718 41.5235 39.6971C41.7402 39.5281 42.0856 39.3533 42.5013 39.2834C42.917 39.2077 43.3034 39.2485 43.5669 39.3358C43.8304 39.4232 43.9709 39.5398 43.9475 39.6155Z" fill="#263238"/>
<path d="M49.4509 39.7502C49.3572 39.89 48.9357 39.7793 48.4439 39.8026C47.9521 39.8142 47.5422 39.9541 47.4368 39.8201C47.39 39.756 47.4486 39.6162 47.6183 39.4763C47.7881 39.3365 48.0809 39.2142 48.4205 39.2025C48.76 39.1909 49.0586 39.2957 49.2401 39.4181C49.4217 39.5462 49.4919 39.6802 49.4509 39.7502Z" fill="#263238"/>
<path d="M37.7994 44.3825C37.7291 44.3592 35.0886 43.7766 35.352 46.4041C35.6155 49.0258 38.4727 48.1753 38.4669 48.0995C38.4669 48.018 37.7994 44.3825 37.7994 44.3825Z" fill="#FFBE9D"/>
<path d="M37.2956 47.237C37.2839 47.2312 37.2547 47.272 37.1785 47.3186C37.1083 47.3594 36.9795 47.3943 36.8331 47.3594C36.5462 47.2836 36.2652 46.87 36.2066 46.3981C36.1774 46.1592 36.2066 45.9262 36.271 45.7339C36.3296 45.5358 36.4467 45.3902 36.5813 45.3494C36.716 45.3028 36.8272 45.3785 36.8624 45.4485C36.9034 45.5184 36.8917 45.5708 36.9092 45.5766C36.9151 45.5825 36.9619 45.53 36.9268 45.4193C36.9092 45.3669 36.8741 45.3086 36.8038 45.2678C36.7336 45.2212 36.6399 45.2038 36.5404 45.2271C36.3413 45.262 36.1715 45.4659 36.1012 45.6815C36.0193 45.8971 35.9783 46.1592 36.0134 46.4272C36.0837 46.9516 36.4057 47.4235 36.798 47.4934C36.9853 47.5225 37.1376 47.4526 37.2137 47.3827C37.3015 47.3011 37.3073 47.237 37.2956 47.237Z" fill="#EB996E"/>
<path d="M50.2939 35.9172C50.1124 36.9601 47.9871 37.9155 46.2189 37.8689C44.5912 37.8223 43.7891 37.0183 42.6064 36.4474C41.857 36.0862 41.857 36.0862 40.8441 36.2493C40.0244 36.3833 39.597 37.3446 39.1345 38.0321C40.0127 39.9372 39.6555 42.1511 39.2867 44.2135C39.2457 44.4407 39.193 44.6854 39.0174 44.8427C38.7188 45.1048 38.2387 44.9475 37.9518 44.6795C37.4834 44.2542 37.2726 43.625 37.1204 43.0133C36.7691 41.6209 36.6403 40.1644 36.8569 38.7487C37.0794 37.3329 37.6649 35.9522 38.6426 34.8977C39.8605 33.5752 41.6345 32.812 43.4378 32.7187C45.2353 32.6255 47.0445 33.179 48.5492 34.1636C49.2401 34.6239 49.8958 35.1831 50.2939 35.9172Z" fill="#263238"/>
<path d="M46.7928 47.5115C46.342 47.3018 45.897 47.0979 45.4462 46.8882C45.3701 46.8532 45.2881 46.8182 45.2003 46.8241C45.1066 46.8357 45.0305 46.9056 44.9661 46.9814C44.6558 47.3542 44.5738 47.9252 44.8197 48.3505C45.0597 48.7758 45.6277 48.9972 46.0785 48.8107C46.5528 48.6127 46.787 48.065 46.8221 47.5523L46.7928 47.5115Z" fill="#EB996E"/>
<path d="M46.125 48.9092C46.1484 48.9326 45.844 49.1248 45.3346 48.9792C45.0887 48.9034 44.8077 48.717 44.6379 48.414C44.4622 48.1169 44.3978 47.6974 44.55 47.3187C44.6203 47.1323 44.7374 46.9634 44.8779 46.8352C44.9482 46.7711 45.0184 46.7128 45.1063 46.6662C45.1941 46.6021 45.3756 46.5963 45.4576 46.6429C45.762 46.8119 45.9728 46.9575 46.1777 47.0915C46.57 47.3537 46.8042 47.5285 46.7808 47.5693C46.7573 47.6042 46.488 47.4935 46.0665 47.278C45.8206 47.1498 45.5864 47.0274 45.3463 46.9051C45.2878 46.8876 45.2936 46.8876 45.2409 46.9167C45.1882 46.9517 45.1238 46.9983 45.077 47.0507C44.9716 47.1556 44.8838 47.2838 44.8311 47.4294C44.714 47.7207 44.755 48.0412 44.8838 48.2859C45.0126 48.5306 45.2116 48.6937 45.4107 48.7811C45.8147 48.95 46.1133 48.8568 46.125 48.9092Z" fill="#263238"/>
<path d="M45.6978 42.874C45.6685 42.874 45.6744 42.6293 45.5514 42.2215C45.4343 41.8195 45.1533 41.2311 44.5444 40.7825C43.953 40.3339 42.987 40.0834 42.056 40.4329C41.131 40.7534 40.3347 41.7321 40.3464 42.874C40.3347 44.0159 41.131 44.9947 42.056 45.3151C42.987 45.6647 43.953 45.4142 44.5444 44.9656C45.1533 44.517 45.4402 43.9285 45.5514 43.5265C45.6744 43.1187 45.6685 42.874 45.6978 42.874C45.7095 42.874 45.7154 42.9323 45.7212 43.0488C45.7271 43.1653 45.7154 43.3401 45.6685 43.5557C45.5807 43.9868 45.3172 44.6277 44.6732 45.1345C44.0526 45.6414 42.9928 45.9443 41.9565 45.5773C40.926 45.2394 40.0244 44.1499 40.0361 42.874C40.0244 41.5981 40.926 40.5087 41.9565 40.1708C42.9987 39.7979 44.0526 40.1009 44.6732 40.6135C45.3172 41.1204 45.5807 41.7671 45.6685 42.1924C45.7154 42.408 45.7271 42.5827 45.7212 42.6992C45.7154 42.8158 45.7095 42.874 45.6978 42.874Z" fill="#263238"/>
<path d="M52.2727 42.6174C52.2434 42.6174 52.2434 42.3785 52.1322 41.9823C52.0209 41.592 51.7457 41.021 51.1485 40.5841C50.5747 40.1471 49.6321 39.9083 48.7246 40.2462C47.8229 40.555 47.0501 41.5104 47.0618 42.6232C47.0501 43.736 47.8288 44.6856 48.7246 45.0002C49.6321 45.3381 50.5747 45.0992 51.1485 44.6623C51.7457 44.2253 52.0209 43.6544 52.1322 43.2641C52.2493 42.8562 52.2434 42.6174 52.2727 42.6174C52.2844 42.6174 52.2902 42.6756 52.2961 42.7921C52.3019 42.9028 52.2902 43.0718 52.2493 43.2874C52.1673 43.7068 51.9097 44.3302 51.2832 44.8313C50.6801 45.3265 49.6497 45.6236 48.6309 45.2624C47.6239 44.9303 46.7456 43.87 46.7573 42.6232C46.7456 41.3764 47.6239 40.3161 48.6309 39.984C49.6438 39.6228 50.6743 39.9199 51.2832 40.4151C51.9097 40.9103 52.1673 41.5396 52.2493 41.959C52.2961 42.1688 52.3019 42.3377 52.2961 42.4542C52.2902 42.5591 52.2844 42.6174 52.2727 42.6174Z" fill="#263238"/>
<path d="M46.9097 42.0175C46.8512 42.0758 46.5877 41.9068 46.2364 41.9185C45.8851 41.9185 45.6334 42.0991 45.569 42.0408C45.487 42 45.7329 41.6214 46.2306 41.6097C46.7282 41.6039 46.9859 41.9709 46.9097 42.0175Z" fill="#263238"/>
<path d="M40.358 42.4892C40.4107 42.5591 39.8955 43.0193 39.2163 43.5262C38.5371 44.0331 37.9399 44.3885 37.8931 44.3185C37.8404 44.2486 38.3556 43.7884 39.0348 43.2815C39.714 42.7747 40.3053 42.4193 40.358 42.4892Z" fill="#263238"/>
<path d="M94.703 42.7452C94.703 42.8268 87.9288 42.8967 79.5739 42.8967C71.2189 42.8967 64.4448 42.8268 64.4448 42.7452C64.4448 42.6637 71.2189 42.5938 79.5739 42.5938C87.9288 42.5938 94.703 42.6579 94.703 42.7452Z" fill="#263238"/>
<path d="M80.7098 45.8973C80.7098 45.9789 77.1149 46.0488 72.6768 46.0488C68.2388 46.0488 64.6439 45.9789 64.6439 45.8973C64.6439 45.8158 68.2388 45.7458 72.6768 45.7458C77.1149 45.74 80.7098 45.8099 80.7098 45.8973Z" fill="#263238"/>
</svg>
