<svg width="50" height="24" viewBox="0 0 50 24" fill="none" xmlns="http://www.w3.org/2000/svg">
<g clip-path="url(#clip0_138_1045)">
<path d="M25 23.4144C38.8071 23.4144 50 18.1729 50 11.7072C50 5.2415 38.8071 0 25 0C11.1929 0 0 5.2415 0 11.7072C0 18.1729 11.1929 23.4144 25 23.4144Z" fill="#424242"/>
<path d="M49.6912 13.549L32.4092 5.45605L14.9854 14.8186L32.2675 22.9116C41.3124 21.6267 48.1872 18.0063 49.6912 13.549V13.549Z" fill="#232323"/>
<path d="M32.4092 12.1662V5.45605H25.0537L14.9854 12.2202V14.8186H26.7451V17.959H32.4092V14.8186H36.0293V12.1662H32.4092ZM26.7451 12.1662H21.9697L26.7451 8.95861V12.1662Z" fill="#F8FFFB"/>
<path d="M32.4092 12.1662V5.45605H25.0537L25 5.49218V10.1307L26.7451 8.95861V12.1662H25V14.8186H26.7451V17.959H32.4092V14.8186H36.0293V12.1662H32.4092Z" fill="#D8D8D8"/>
</g>
<defs>
<clipPath id="clip0_138_1045">
<rect width="50" height="23.4144" fill="white"/>
</clipPath>
</defs>
</svg>
