<svg width="172" height="118" viewBox="0 0 172 118" fill="none" xmlns="http://www.w3.org/2000/svg">
<g clip-path="url(#clip0_28_5242)">
<path d="M5.77964 73.9082C9.92995 67.3096 15.6153 62.0524 21.5179 57.3206C26.4637 53.3521 31.9201 49.2661 33.9601 42.9346C35.0754 39.4827 35.0431 35.6668 36.2964 32.2735C37.9665 27.7502 43.1412 22.2699 47.5498 20.2945C54.2948 17.2711 62.4457 21.8561 69.449 19.499C72.3431 18.5245 73.1062 16.6664 75.0992 14.7144C77.233 12.6245 79.7984 10.8046 82.2639 9.1285C87.0981 5.84094 92.4518 3.19915 98.2164 2.05144C108.369 0.0290027 119.2 2.91736 127.58 9.22537C132.616 13.0178 136.781 17.9932 139.896 23.585C142.872 28.9331 144.187 34.8625 146.943 40.2635C152.109 50.3845 162.831 55.9939 167.903 66.1736C171.633 73.6675 171.786 82.8257 169.822 91.0886C167.859 99.3486 163.952 106.884 159.849 114.143C159.828 114.175 159.811 114.204 159.793 114.234H153.019C127.166 114.146 15.7797 113.799 13.1322 114.322H7.98394C4.22988 111.052 0.804544 102.02 0.120653 96.5659C-0.877299 88.6288 1.63227 80.5068 5.77964 73.9082Z" fill="#EDDCFF"/>
<path d="M59.8249 65.6415C60.7642 67.115 63.218 68.8322 64.9585 68.8087C70.8875 68.7001 72.8394 64.6611 73.4792 63.1905C73.3589 63.1611 73.1564 63.1377 73.0126 63.12C71.9207 62.9615 70.8053 61.8813 70.4795 60.6632C70.0598 59.0781 69.5432 55.9784 69.6049 54.0088L62.1055 58.1593C62.1173 58.7288 62.1554 59.3511 62.2083 59.9792C62.2464 60.3608 62.2846 60.7366 62.3286 61.1005C62.3697 61.4498 62.4167 61.7815 62.4607 62.0868C62.5986 63.1142 62.1408 64.1327 61.2749 64.6992L59.8249 65.6415Z" fill="#FE8E68"/>
<path d="M59.1786 49.5012C59.5836 50.5638 59.4134 51.7702 59.0025 52.8299C58.7119 53.5784 58.0662 52.9179 57.2619 52.9326C56.0174 52.9531 55.0459 51.6587 54.2945 48.2273C53.8161 45.7088 53.6957 44.4319 53.7926 44.1883C54.136 43.3165 55.269 42.8498 56.2023 42.7676" fill="#3D302A"/>
<path d="M57.2857 41.9539C55.325 44.3169 54.6117 50.9654 56.2672 55.5973C57.4442 58.8907 58.8119 61.0159 60.4087 60.9484C62.8331 60.8457 67.5323 58.8526 69.0615 57.1883C71.8176 54.1913 71.0163 48.3148 70.4469 44.6163C69.9303 41.2553 68.3571 36.8905 64.1334 37.7212C61.3567 38.2613 59.0438 39.8317 57.2857 41.9539Z" fill="#FE8E68"/>
<path d="M68.4219 44.0788C67.9875 44.5984 67.2214 44.7128 66.5904 44.8156C65.7421 44.9535 65.3224 45.2412 64.8821 46.0132C64.6033 46.5063 64.3244 47.0464 63.8255 47.3135C63.5906 47.4397 63.2326 47.4574 63.1181 47.2167C63.3412 47.067 63.4175 46.7617 63.3617 46.4975C63.3059 46.2363 63.1445 46.0102 62.9743 45.8018C62.8304 45.9956 62.8158 46.2539 62.7365 46.4858C62.6308 46.791 62.4048 47.0493 62.1172 47.1932C62.0702 47.2167 62.0203 47.2372 61.9704 47.2284C61.9029 47.2196 61.8501 47.1609 61.8061 47.1081C61.4979 46.7382 61.1956 46.0337 60.767 45.8077C60.6819 46.2098 60.5263 46.5298 60.2798 46.8615C60.0626 47.1521 59.8043 47.4515 59.4491 47.519C59.3347 47.5425 59.1908 47.5249 59.138 47.4221C59.0705 47.2959 59.1762 47.1697 59.1586 47.0405C59.1439 46.9202 59.0881 46.8674 59.0265 46.7646C58.868 46.5034 58.7271 46.2509 58.5187 46.022C58.099 46.5004 57.6411 46.9407 57.1509 47.3458C57.0423 47.4339 56.8838 47.5219 56.7752 47.4339C56.7165 47.3869 56.7018 47.3077 56.6901 47.2313C56.6285 46.8586 56.5697 46.4858 56.5081 46.113C56.4729 45.9046 56.3526 45.6316 56.1471 45.6844C56.0473 45.7108 55.9886 45.8077 55.9328 45.8958C55.8653 46.0073 54.659 47.2783 54.6355 47.1814C54.4476 46.4593 54.0631 45.8018 53.8753 45.0797C52.6689 40.4302 58.0579 36.6935 62.1759 36.673C63.0917 36.6671 63.9487 36.8608 64.8381 37.0575C65.7861 37.2689 66.7665 37.4244 67.6265 37.897C68.8328 38.5575 69.7457 39.758 69.5108 41.1904" fill="#3D302A"/>
<path d="M66.4376 42.8496C65.8388 43.5276 65.6803 44.4816 65.6246 45.3828C65.5424 46.7418 65.6539 48.1537 66.282 49.3601C66.4611 49.7036 66.5932 51.4031 66.8691 51.3092C66.9571 51.2798 66.9424 49.9619 67.1743 49.2515C67.5324 48.1508 69.182 47.731 69.9246 48.4267C71.1104 49.5333 70.4147 50.8777 70.0214 51.7143C69.7866 52.2191 69.4139 52.7856 69.3493 53.3199C69.27 54.0038 69.2466 56.4959 69.6927 57.0771C70.0655 57.5644 70.4617 55.2102 70.7992 54.7464C73.2971 51.2916 75.6922 42.4944 71.4274 40.5864C70.7787 40.2958 68.7769 40.1461 68.1693 40.516" fill="#3D302A"/>
<path d="M50.6462 112.78C50.3997 112.821 50.1502 112.856 49.8919 112.865C48.5182 112.909 47.1915 112.607 45.8502 112.378C44.6702 112.175 44.3503 112.064 44.3738 110.64C44.5792 99.3656 46.2376 88.1204 49.2197 77.245C49.6747 75.5836 50.1707 73.9105 51.0425 72.4252C52.5306 69.892 55.9471 67.7052 58.5682 66.4782C58.938 66.3051 60.4702 67.2796 60.8429 67.1123C61.1687 66.9655 61.4564 66.7366 61.7851 66.5927C62.7478 66.173 63.3936 67.0506 64.1978 67.4175C64.6146 67.6054 65.0784 67.7258 65.5362 67.7052C65.909 67.6905 66.2465 67.4645 66.587 67.6406C68.1192 68.4332 71.9231 62.5508 71.9231 62.5508L73.5698 64.2738L78.3922 69.3255L90.444 85.9306C90.444 85.9306 92.6306 99.5388 94.1334 108.459C94.3947 109.997 95.4278 113.323 95.6333 114.488C95.5893 114.236 85.3456 114.168 84.7938 114.168C77.6731 114.168 71.0397 114.168 63.916 114.168C62.7449 114.168 59.5955 114.665 58.7736 113.804C57.761 112.748 56.5899 107.899 56.5283 106.54C56.3257 101.969 56.6398 97.4342 56.7014 92.8375C56.675 94.7073 56.1379 96.398 55.9089 98.2296C55.6125 100.587 55.1898 102.941 54.8083 105.286C54.503 107.171 54.2095 109.061 53.9747 110.957C53.869 111.811 54.004 112.319 53.282 112.654C52.6803 112.924 51.3565 112.66 50.6462 112.78Z" fill="#BC744A"/>
<path d="M54.5155 108.876C55.0732 108.647 58.5161 107.793 60.0688 107.47C60.8818 107.303 64.5684 106.346 65.4225 106.346C66.2766 106.346 67.439 107.567 67.439 107.567L67.1308 111.767C66.3089 111.685 65.2082 112.111 64.6183 112.193C64.0283 112.275 62.0236 112.287 60.7908 111.667C60.7204 111.632 60.6558 111.594 60.5912 111.556C60.0952 111.996 59.473 112.425 58.7832 112.46C58.7832 112.46 58.2431 112.404 58.296 112.187C58.3194 112.081 58.6775 111.535 59.0356 111.001C58.5073 111.538 57.6444 112.41 56.6493 112.46C56.6493 112.46 56.1093 112.404 56.1621 112.187C56.1915 112.058 56.708 111.286 57.1248 110.672C57.119 110.678 57.1102 110.681 57.1072 110.687C56.6699 111.072 55.6308 112.398 54.401 112.46C54.401 112.46 53.8609 112.404 53.9138 112.187C53.9314 112.108 54.1369 111.782 54.3863 111.403C54.0723 111.644 53.6878 111.899 53.2211 112.131C51.8915 112.789 51.1342 112.29 51.1342 112.131C51.1313 111.97 53.9578 109.105 54.5155 108.876Z" fill="#FE8E68"/>
<path d="M66.488 103.997C66.488 103.997 64.3454 105.212 64.5361 107.795C64.7269 110.378 65.5018 113.373 68.7363 113.058C71.9709 112.744 66.488 103.997 66.488 103.997Z" fill="#874C2E"/>
<path d="M69.4313 112.804C77.186 115.495 87.5617 112.924 94.1394 108.453C98.2604 105.659 100.89 102.11 100.447 98.6435C99.2994 89.638 92.2228 68.9968 86.1 65.9851C81.938 63.9363 76.8895 63.088 74.0747 62.7475C72.7539 62.586 71.9291 62.5479 71.9291 62.5479L72.9505 65.4303L78.0636 79.8487C78.2544 88.4051 84.3771 93.4862 83.159 95.4792C81.9409 97.4665 72.3224 99.6122 67.271 103.014C65.8739 103.959 64.101 110.796 69.4313 112.804Z" fill="#BC744A"/>
<path d="M100.447 98.8662L100.465 99.4679C100.465 99.5677 100.48 99.6676 100.465 99.7674L100.43 100.064C100.4 100.26 100.4 100.463 100.35 100.654L100.21 101.232C99.9748 101.989 99.649 102.72 99.2028 103.378C98.3516 104.716 97.2245 105.867 95.98 106.853C93.4881 108.832 90.6175 110.311 87.6236 111.385C84.6357 112.486 81.5039 113.211 78.3251 113.475C76.7372 113.61 75.1375 113.628 73.5496 113.493C71.9587 113.37 70.3796 113.079 68.8475 112.601C70.3473 113.173 71.9323 113.511 73.5261 113.707C75.1258 113.889 76.7401 113.91 78.3486 113.813C79.957 113.722 81.5567 113.481 83.1299 113.135C84.7032 112.791 86.2559 112.345 87.7733 111.799C89.2849 111.239 90.7643 110.584 92.179 109.809C93.5908 109.031 94.9586 108.157 96.1914 107.112C97.4271 106.075 98.5512 104.878 99.3819 103.486C99.8075 102.797 100.11 102.036 100.318 101.258C100.527 100.478 100.541 99.6587 100.447 98.8662Z" fill="#874C2E"/>
<path d="M78.0644 79.8486C78.0585 81.4719 78.2845 83.098 78.7072 84.6714C79.1328 86.2447 79.7551 87.7623 80.4771 89.2241C80.8381 89.9549 81.2226 90.6712 81.6189 91.3786C82.0093 92.0889 82.4114 92.7934 82.7401 93.5155C82.9015 93.8765 83.0424 94.2493 83.0982 94.6162C83.1129 94.7953 83.1275 94.9802 83.0776 95.1358C83.0659 95.2209 83.016 95.2855 82.9867 95.3618C82.9309 95.4293 82.8927 95.5027 82.8223 95.5673C82.2969 96.0927 81.5455 96.4479 80.8323 96.7913C77.903 98.1269 74.7917 99.1161 71.8272 100.449C70.345 101.115 68.8774 101.834 67.5125 102.732L67.2601 102.903C67.175 102.961 67.0958 103.038 67.0136 103.105C66.8609 103.255 66.7289 103.419 66.6232 103.598C66.406 103.954 66.2592 104.341 66.1448 104.734C65.9276 105.524 65.8366 106.337 65.8307 107.15C65.8835 106.343 66.0186 105.536 66.2563 104.77C66.5087 104.009 66.8991 103.27 67.63 102.914C69.0007 102.063 70.4712 101.385 71.9622 100.76C73.4562 100.143 74.9678 99.5593 76.4853 98.9928C78.0028 98.4175 79.529 97.8686 81.0201 97.1876C81.7539 96.8236 82.5082 96.4802 83.1334 95.8491C83.2127 95.7728 83.2772 95.6671 83.3447 95.5761C83.3946 95.4645 83.4622 95.3589 83.4798 95.2415C83.5502 95.0066 83.5267 94.7747 83.5062 94.5546C83.4357 94.1202 83.2772 93.7268 83.107 93.3511C82.7577 92.5997 82.3497 91.8981 81.9535 91.1907C81.5572 90.4833 81.1581 89.7818 80.7794 89.0685C79.2649 86.2242 78.217 83.098 78.0644 79.8486Z" fill="#874C2E"/>
<path d="M57.9668 66.7571C58.7065 67.491 61.9997 69.8363 65.1403 69.8363C65.6628 69.8363 66.2146 69.7893 66.7987 69.6807C69.4345 69.1993 71.6535 67.4411 72.9508 65.4274C73.1915 65.0488 73.4028 64.6584 73.576 64.268C73.8108 63.7631 73.9781 63.2465 74.075 62.7475C72.7541 62.5861 71.492 62.2544 71.2866 62.0195C71.0635 63.5576 69.1644 66.3345 66.288 66.8569C65.927 66.9245 65.5865 66.9538 65.2607 66.9597H65.2548C63.9046 66.9832 62.8685 66.5517 62.1612 66.1172C62.1553 66.1172 60.7846 65.037 60.7787 65.0312L57.9668 66.7571Z" fill="#BC744A"/>
<path d="M62.4221 52.5245C62.1287 52.5245 61.8909 52.0541 61.8909 51.4737C61.8909 50.8933 62.1287 50.4229 62.4221 50.4229C62.7155 50.4229 62.9534 50.8933 62.9534 51.4737C62.9534 52.0541 62.7155 52.5245 62.4221 52.5245Z" fill="#56211A"/>
<path d="M62.1961 52.2073C62.068 52.2073 61.9642 52.064 61.9642 51.8873C61.9642 51.7106 62.068 51.5674 62.1961 51.5674C62.3242 51.5674 62.428 51.7106 62.428 51.8873C62.428 52.064 62.3242 52.2073 62.1961 52.2073Z" fill="white"/>
<path d="M56.6963 53.005C56.4029 53.005 56.165 52.5345 56.165 51.9542C56.165 51.3738 56.4029 50.9033 56.6963 50.9033C56.9897 50.9033 57.2275 51.3738 57.2275 51.9542C57.2275 52.5345 56.9897 53.005 56.6963 53.005Z" fill="#56211A"/>
<path d="M58.5185 56.4689C58.5244 56.692 59.4519 58.0393 60.353 57.9336C61.1102 57.8426 61.7707 56.4249 61.3744 55.7791C61.1631 55.5531 58.5126 56.2458 58.5185 56.4689Z" fill="white"/>
<path d="M64.0077 48.8928C63.3473 48.3116 61.7623 48.5376 61.0872 48.9691C60.9551 49.0542 60.8113 48.8635 60.9228 48.7548C61.3778 48.2999 62.1409 48.2735 62.7485 48.2969C63.2093 48.3145 63.9637 48.294 64.1221 48.8312C64.1398 48.8928 64.0546 48.9339 64.0077 48.8928Z" fill="#3D302A"/>
<path d="M57.5645 49.2867C57.1624 49.2574 56.7867 49.1811 56.3846 49.2809C55.9825 49.3807 55.686 49.6272 55.3279 49.8151C55.2516 49.8562 55.1812 49.7769 55.2134 49.7006C55.5657 48.9228 56.9305 48.638 57.6115 49.1047C57.6849 49.1576 57.6672 49.2926 57.5645 49.2867Z" fill="#3D302A"/>
<path d="M59.1818 51.4994C59.2083 52.1041 59.1848 52.7234 59.085 53.3222C59.0498 53.5365 58.7739 54.1118 58.8179 54.2938C58.8678 54.4934 59.2171 54.7429 59.3374 54.9425C59.399 55.0423 59.2787 55.145 59.1848 55.0951C58.8267 54.9102 58.4158 54.6343 58.4921 54.2028C58.5596 53.8007 58.7445 53.4161 58.8061 53.0023C58.8825 52.5033 58.8854 52.0013 58.9324 51.4964C58.9441 51.3409 59.176 51.335 59.1818 51.4994Z" fill="#CC6144"/>
<path d="M56.534 52.7083C56.4059 52.7083 56.3021 52.5559 56.3021 52.3678C56.3021 52.1798 56.4059 52.0273 56.534 52.0273C56.6621 52.0273 56.7659 52.1798 56.7659 52.3678C56.7659 52.5559 56.6621 52.7083 56.534 52.7083Z" fill="white"/>
<path d="M65.5067 58.9994C64.679 59.971 63.2642 60.6227 61.9933 60.6608C61.8671 60.6638 61.8348 60.4583 61.9639 60.4348C63.3112 60.1853 64.3062 59.7215 65.3834 58.8732C65.4685 58.8028 65.583 58.9114 65.5067 58.9994Z" fill="#CC6144"/>
<path d="M71.9323 62.0664C73.8401 61.1624 74.8616 64.0302 75.0553 65.4362C75.4251 68.1396 74.2276 70.6552 73.1357 73.0475C71.991 75.5601 70.6819 77.9876 69.5108 80.4856C68.9061 81.7801 68.369 83.1039 67.9669 84.4747C67.5442 85.9071 67.4973 87.504 66.9777 88.8865C66.9073 89.0743 66.6637 89.0333 66.6402 88.8395C66.3878 86.8376 67.2742 84.3749 67.9639 82.5022C68.6244 80.7087 69.4785 78.9944 70.3297 77.2861C71.4421 75.0582 72.5692 72.8068 73.482 70.4879C73.9399 69.3255 74.3186 68.1103 74.4008 66.854C74.4653 65.8501 74.0984 61.767 72.1465 62.5743C71.8589 62.6975 71.6476 62.2015 71.9323 62.0664Z" fill="#874C2E"/>
<path d="M60.7842 65.1545C58.3832 66.0674 59.2227 70.4557 59.5514 72.3578C59.9506 74.6738 60.6991 76.9193 61.6383 79.0709C63.4669 83.2655 65.9324 87.1577 68.1397 91.1556C68.3217 91.4844 67.8227 91.7779 67.6348 91.4521C64.8905 86.6352 61.7645 81.9622 59.9535 76.6845C59.1141 74.2364 58.5769 71.6592 58.5388 69.0644C58.5153 67.3384 58.7677 65.2396 60.6374 64.6085C60.9808 64.4911 61.1159 65.0254 60.7842 65.1545Z" fill="#874C2E"/>
<path d="M63.9866 89.1158C65.8416 89.06 67.6967 89.0072 69.5517 88.9514C69.8511 88.9426 70.0272 89.1921 70.0595 89.4592C70.4087 92.2448 70.5291 95.0833 70.9488 97.8572C70.9987 98.183 70.8197 98.4941 70.4586 98.5C68.63 98.5382 66.7985 98.5939 64.9699 98.6115C64.8731 98.6115 64.7938 98.591 64.7263 98.5528C64.7234 98.5528 64.7204 98.5499 64.7175 98.547C64.6999 98.5382 64.6823 98.5264 64.6647 98.5147C64.5795 98.456 64.512 98.365 64.4797 98.2358C63.7724 95.4972 63.7724 92.4298 63.4788 89.6207C63.4495 89.3447 63.7342 89.1216 63.9866 89.1158Z" fill="#874C2E"/>
<path d="M56.6252 100.414C56.5459 98.9026 56.6956 97.3733 56.7044 95.8586C56.7161 94.2912 56.6692 92.7237 56.5841 91.1562C56.5019 89.6387 56.3815 88.1211 56.2084 86.6124C56.0293 85.0567 55.7035 83.5156 55.5391 81.9599C55.5157 81.7515 55.8503 81.7133 55.9002 81.91C56.2641 83.3395 56.405 84.8629 56.5782 86.3276C56.766 87.9303 56.9069 89.5418 56.9833 91.1562C57.0596 92.7208 57.0684 94.2912 57.0331 95.8586C56.9979 97.3733 56.9979 98.9378 56.6868 100.423C56.6839 100.461 56.6281 100.449 56.6252 100.414Z" fill="#874C2E"/>
<path d="M72.0532 64.8877C71.5571 66.9219 69.2794 68.6479 67.2777 68.9473C67.1074 68.9737 67.0341 68.7388 67.2043 68.686C68.2375 68.3573 69.2119 67.9316 70.0455 67.2242C70.8527 66.5403 71.3458 65.6978 71.9123 64.829C71.9622 64.7585 72.0737 64.8026 72.0532 64.8877Z" fill="#874C2E"/>
<path d="M65.3837 68.9582C65.0344 68.8789 64.6881 68.7967 64.3447 68.6999C64.0365 68.6118 63.7136 68.5531 63.4465 68.374C63.3673 68.3212 63.3966 68.195 63.4964 68.192C64.1275 68.1744 64.8613 68.5237 65.4483 68.7322C65.5892 68.7791 65.5334 68.9905 65.3837 68.9582Z" fill="#874C2E"/>
<path d="M68.7855 49.8975C68.5918 49.601 68.2924 50.5227 68.2807 50.599C68.2249 50.9571 68.2983 51.2771 68.3893 51.6205C68.4245 51.7497 68.0253 51.6469 67.9784 51.5559C67.7201 51.0569 67.6995 50.1881 68.1486 49.7771C68.4304 49.5218 68.9763 49.5922 69.1788 49.9122C69.2728 50.056 68.8501 49.9973 68.7855 49.8975Z" fill="#CC6144"/>
<path d="M68.1518 50.6035C68.1547 50.5653 68.1518 50.5272 68.1401 50.489C68.1371 50.4773 68.1371 50.4685 68.1489 50.4597C68.3074 50.2659 68.5568 50.1749 68.7975 50.2659C68.8122 50.2718 68.8621 50.2953 68.8415 50.3188C68.7828 50.3804 68.6713 50.3775 68.5979 50.4127C68.5363 50.4421 68.4923 50.4832 68.4394 50.5272C68.3866 50.5742 68.322 50.5947 68.2692 50.6387C68.2428 50.6593 68.1518 50.6387 68.1518 50.6035Z" fill="#CC6144"/>
<path d="M61.439 58.1397C61.216 58.4479 60.7376 58.6094 60.3912 58.401C60.3648 58.3863 60.3677 58.3657 60.4 58.3687C60.7082 58.3834 60.99 58.2953 61.1749 58.037C61.2189 57.9753 61.4919 58.0663 61.439 58.1397Z" fill="#CC6144"/>
<path d="M63.6169 51.9891C63.6521 52.2268 63.6433 52.4176 63.5083 52.626C63.3938 52.8022 63.2441 52.9342 63.0328 52.9753C63.0093 52.9812 62.886 52.9548 62.9154 52.9137C63.0299 52.7552 63.203 52.6642 63.3028 52.4881C63.3909 52.3296 63.4731 52.1446 63.4848 51.9627C63.4848 51.9274 63.611 51.9597 63.6169 51.9891Z" fill="#CC6144"/>
<path d="M56.5751 53.4427C56.5544 53.4427 56.4983 53.4102 56.5455 53.4102C56.5691 53.4102 56.6223 53.4427 56.5751 53.4427Z" fill="#CC6144"/>
<path d="M56.2495 53.38C56.0558 53.2802 55.7828 52.9896 55.9648 52.7694C55.9795 52.7518 56.0352 52.7724 56.0411 52.79C56.1321 52.9984 56.1526 53.2215 56.3757 53.3359C56.5078 53.4035 56.3111 53.4093 56.2495 53.38Z" fill="#CC6144"/>
<path d="M56.54 88.6744C56.4578 87.4269 55.8854 86.4524 55.1223 85.4866C54.5294 84.7381 53.7897 84.2538 53.1088 83.608C53.0354 83.5376 53.1117 83.4055 53.2086 83.4349C54.2006 83.746 55.0049 84.7528 55.5978 85.5571C56.22 86.3995 57.083 87.5883 56.7014 88.692C56.6721 88.7859 56.5488 88.7683 56.54 88.6744Z" fill="#874C2E"/>
<path d="M56.6903 89.4176C56.3762 89.0331 56.1766 88.5664 55.9007 88.1525C55.5749 87.6653 55.1933 87.2103 54.7736 86.7993C54.6914 86.7201 53.9136 85.9246 53.8373 86.5616C53.7903 86.9637 54.5946 87.1163 54.8323 87.2602C55.0994 87.4216 55.2784 87.5478 55.2784 87.8766C55.2784 87.9823 55.1199 88.0351 55.0701 87.9324C54.7531 87.2954 53.6113 87.3189 53.4909 86.4647C53.444 86.1213 53.7169 85.9041 54.0515 85.9393C54.6533 86.0039 55.2785 86.8786 55.616 87.2983C56.0856 87.8854 56.6404 88.6163 56.7548 89.3765C56.7607 89.4118 56.7167 89.4499 56.6903 89.4176Z" fill="#874C2E"/>
<path d="M68.3425 104.896C68.3396 105.912 68.3572 106.895 68.7153 107.861C69.0705 108.824 69.7133 109.558 70.3062 110.371C70.3502 110.432 70.2651 110.503 70.2064 110.471C68.4688 109.508 67.5882 106.719 68.184 104.876C68.2105 104.791 68.3425 104.802 68.3425 104.896Z" fill="#874C2E"/>
<path d="M60.6026 95.5518C60.8521 97.1163 61.1398 98.5429 61.9499 99.9342C62.7541 101.317 63.8988 102.517 65.2401 103.386C65.3487 103.457 65.2519 103.624 65.1404 103.559C62.4488 102.027 60.1829 98.7983 60.3707 95.5841C60.3766 95.4608 60.5791 95.4138 60.6026 95.5518Z" fill="#874C2E"/>
<path d="M51.785 55.7292C51.4475 55.5913 51.0131 55.4592 50.7988 55.1451C50.7666 55.0981 50.8106 55.0365 50.8634 55.0336C51.2332 55.0218 51.5913 55.2948 51.8907 55.4797C52.014 55.559 51.9347 55.7879 51.785 55.7292Z" fill="#874C2E"/>
<path d="M51.7385 56.607C51.533 56.7479 51.2014 56.877 50.9665 56.7332C50.899 56.6921 50.8961 56.5894 50.9665 56.5483C51.0634 56.4925 51.1779 56.4778 51.2835 56.4514C51.401 56.422 51.5154 56.3868 51.624 56.3399C51.7884 56.2753 51.8647 56.5189 51.7385 56.607Z" fill="#874C2E"/>
<path d="M52.0494 58.2744C51.8498 58.3918 51.5856 58.5826 51.342 58.568C51.2833 58.565 51.2393 58.5004 51.2716 58.4476C51.4007 58.2392 51.6972 58.1365 51.9114 58.0425C52.067 57.9692 52.205 58.1805 52.0494 58.2744Z" fill="#874C2E"/>
<path d="M157.471 114.322H149.517H136.135H130.561H116.499H13.1318H7.98357H3.61899" stroke="black" stroke-width="2.1886" stroke-miterlimit="10" stroke-linecap="round"/>
<path d="M159.417 114.322H168.038" stroke="black" stroke-width="2.1886" stroke-miterlimit="10" stroke-linecap="round"/>
<path d="M0.930649 114.322H2.37476" stroke="black" stroke-width="2.1886" stroke-miterlimit="10" stroke-linecap="round"/>
<path d="M20.913 112.549H69.6366C70.1062 112.549 70.4907 112.93 70.4907 113.403V113.465C70.4907 113.934 70.1092 114.319 69.6366 114.319H20.913C20.4434 114.319 20.0589 113.937 20.0589 113.465V113.403C20.0589 112.93 20.4405 112.549 20.913 112.549Z" fill="#2D2442"/>
<path d="M11.4004 90.8425C21.5384 90.7398 31.6764 90.637 41.8145 90.5343C43.2527 90.5196 44.6938 90.505 46.1321 90.4903C46.3551 90.4873 46.6428 90.6194 46.7396 90.8366C49.5251 97.2679 52.3106 103.699 55.096 110.131C55.4923 111.049 55.8914 111.965 56.2877 112.884C56.3024 112.913 56.3082 112.946 56.317 112.975C56.317 112.975 56.317 112.975 56.317 112.978C56.3258 113.007 56.3347 113.037 56.3405 113.066C56.4198 113.439 56.2319 113.876 55.774 113.932C55.6684 113.964 55.5598 113.97 55.4541 113.944C45.0343 114.026 34.6145 114.105 24.1947 114.187C22.7066 114.199 21.2185 114.211 19.7333 114.222C19.4016 114.225 19.1668 113.999 19.0553 113.706C16.2786 106.379 13.499 99.0526 10.7224 91.7261C10.5551 91.2946 10.9777 90.8455 11.4004 90.8425Z" fill="#2D2442"/>
<path d="M11.4005 90.3607C20.7578 90.2668 30.118 90.1729 39.4752 90.076C40.6141 90.0643 41.7559 90.0525 42.8947 90.0408C43.9249 90.0291 45.1166 89.85 46.1351 90.0085C47.6467 90.2433 48.0342 92.618 48.5507 93.8098C50.4087 98.0983 52.2637 102.387 54.1217 106.672C54.9171 108.51 55.7155 110.344 56.5079 112.182C56.8073 112.875 57.0979 113.714 56.3113 114.24C55.9121 114.507 55.3104 114.422 54.8789 114.427C53.7225 114.442 52.5631 114.445 51.4067 114.454C49.0908 114.472 46.775 114.489 44.4591 114.507C39.8275 114.542 35.1958 114.58 30.5671 114.615C28.2571 114.633 25.9501 114.651 23.6401 114.668C22.7096 114.674 21.7821 114.683 20.8517 114.689C20.1355 114.695 19.4252 114.833 18.8705 114.304C18.2688 113.732 18.0662 112.431 17.7815 111.683C17.3765 110.612 16.9685 109.537 16.5634 108.466C15.6154 105.965 14.6673 103.461 13.7193 100.96C12.8387 98.6384 11.9582 96.3136 11.0776 93.9917C10.6374 92.8294 9.41046 90.848 11.2772 90.3666C11.8789 90.211 12.1343 91.1415 11.5326 91.2971C10.9162 91.4556 13.0148 96.4016 13.2232 96.9535C13.9013 98.7411 14.5793 100.529 15.2544 102.313C15.9324 104.101 16.6104 105.889 17.2855 107.673C17.5907 108.478 17.896 109.282 18.2013 110.086C18.5329 110.964 18.7736 112.261 19.3196 113.033C20.0211 114.031 21.4857 113.717 22.5247 113.708C23.4699 113.7 24.412 113.694 25.3572 113.685C27.2856 113.67 29.2169 113.655 31.1453 113.641C35.005 113.611 38.8647 113.579 42.7245 113.55C46.5842 113.52 50.4439 113.488 54.3037 113.459C54.7028 113.456 55.3779 113.626 55.6597 113.271C56.0207 112.819 55.8153 113.471 55.6802 112.657C55.5658 111.979 55.058 111.222 54.785 110.591C53.9778 108.727 53.1707 106.866 52.3635 105.002C50.8167 101.43 49.2699 97.8546 47.7201 94.2823C47.3767 93.4898 47.1008 92.2482 46.5607 91.6024C45.8387 90.7394 44.694 90.9713 43.7077 90.983C41.7118 91.0036 39.7189 91.0241 37.723 91.0447C28.9498 91.1327 20.1766 91.2208 11.4034 91.3118C10.7782 91.3294 10.7783 90.3666 11.4005 90.3607Z" fill="#2D2442"/>
<path d="M34.7432 104.794C33.4447 104.794 32.3921 104.026 32.3921 103.079C32.3921 102.133 33.4447 101.365 34.7432 101.365C36.0416 101.365 37.0942 102.133 37.0942 103.079C37.0942 104.026 36.0416 104.794 34.7432 104.794Z" fill="#5A4F72"/>
<path d="M30.2235 104.148C29.546 104.148 28.9967 103.748 28.9967 103.256C28.9967 102.763 29.546 102.363 30.2235 102.363C30.9011 102.363 31.4504 102.763 31.4504 103.256C31.4504 103.748 30.9011 104.148 30.2235 104.148Z" fill="#5A4F72"/>
<path d="M87.6858 108.052C86.1859 107.873 83.5296 107.468 83.4621 106.546C84.4336 105.918 85.502 105.284 86.6584 105.228C87.5801 105.184 88.4724 105.522 89.3148 105.898C90.0309 106.218 90.7354 106.564 91.4222 106.94C91.704 107.095 92.4436 107.647 92.4554 108.032C92.4701 108.51 91.5924 108.228 91.2432 108.252C90.0544 108.337 88.8628 108.196 87.6858 108.052Z" fill="#C1ADA4"/>
<path d="M91.2278 107.271C91.2278 107.271 89.2319 113.803 88.1782 113.961C87.1215 114.117 76.7956 114.196 76.5227 114.078C76.2497 113.961 76.2086 113.764 76.2086 113.764C76.2086 113.764 69.6368 114.196 69.5194 114.037C69.402 113.879 69.5194 113.098 69.8335 112.981C70.1475 112.863 80.0801 110.635 80.9401 110.321C81.8001 110.007 84.5004 110.086 84.5004 110.086L85.0493 106.291L91.2278 107.271Z" fill="#FE8E68"/>
<path d="M88.8186 25.3145C88.1729 26.0072 87.8207 26.9671 87.8676 27.9152C87.897 28.4788 88.0584 29.0277 88.2287 29.5678C88.5545 30.6069 88.9419 31.6812 89.7491 32.4121C89.8812 32.5295 90.0455 32.644 90.2187 32.6146C90.5416 31.6166 90.8674 30.6215 91.1902 29.6235C91.3458 29.1451 91.5014 28.6637 91.5894 28.1676C91.7362 27.3281 91.6833 26.4505 91.4016 25.6491C91.2724 25.2851 91.0875 24.9241 90.7793 24.6893C90.0309 24.1139 89.3294 24.7685 88.8186 25.3145Z" fill="#433735"/>
<path d="M107.95 80.5679C108.056 81.5894 107.897 82.6667 107.841 83.6882C107.809 84.2694 107.777 84.8506 107.78 85.4318C107.78 85.7693 107.88 86.1803 107.765 86.4973C107.753 86.5296 107.704 86.5531 107.677 86.5208C107.225 85.9719 107.48 84.6598 107.504 83.9964C107.539 82.8545 107.595 81.7098 107.639 80.5679C107.642 80.3625 107.93 80.3683 107.95 80.5679Z" fill="#9B8580"/>
<path d="M105.041 78.5549C106.127 81.0205 106.729 83.5302 108.217 85.8345C108.302 85.9636 108.091 86.0869 108.009 85.9548C106.694 83.8883 105.261 81.0499 104.915 78.6048C104.906 78.5373 105.006 78.4756 105.041 78.5549Z" fill="#9B8580"/>
<path d="M128.91 114.322L128.241 91.758L123.336 114.322H109.271C110.204 106.816 114.351 75.4405 118.684 72.7811L135.708 62.1816C135.708 62.1816 145.558 64.7501 145.344 78.9893C144.557 92.7061 142.881 108.844 142.288 114.322H128.91Z" fill="#2D2442"/>
<path d="M83.5004 106.57C83.8644 107.125 85.7253 106.708 86.2741 106.761C86.7672 106.808 87.231 106.996 87.7094 107.119C89.2298 107.515 90.9293 107.307 92.2971 108.082C92.3382 108.105 92.3881 108.131 92.435 108.117C92.4878 108.102 92.5113 108.043 92.5289 107.994C93.4036 105.575 94.0846 103.05 94.8506 100.585C96.0012 96.8804 97.1489 93.1731 98.2994 89.4687C98.8923 87.5549 99.4882 85.6411 100.081 83.7272L104.258 64.3746L102.4 50.7342L101.96 47.5171L101.927 47.2734C101.927 47.2734 101.836 47.3057 101.669 47.3644C101.088 47.5699 99.5938 48.1276 97.9414 48.9348C95.2909 50.2293 92.2266 52.1696 91.8098 54.3652C91.8098 54.374 91.8069 54.3799 91.8069 54.3887C91.5868 55.9297 91.3373 57.4649 91.0966 59.003C90.668 61.7299 90.2336 64.4539 89.7963 67.1779C89.2533 70.5682 88.7103 73.9585 88.1644 77.3488C87.5949 80.8829 87.0255 84.4141 86.4561 87.9453C85.9483 91.0978 85.4376 94.2504 84.9269 97.4C84.5629 99.6484 84.199 101.897 83.835 104.145C83.7352 104.768 83.6325 105.39 83.5327 106.012C83.5151 106.121 83.4212 106.376 83.4564 106.482C83.4681 106.514 83.4828 106.543 83.5004 106.57Z" fill="#EED9CE"/>
<path d="M101.93 47.2706L101.963 47.5142L102.403 50.7313L104.261 64.3718L113.348 69.9695C113.823 70.263 114.231 72.2707 114.425 72.7756C115.053 74.4106 115.599 76.1102 116.318 77.707C116.465 78.0357 116.597 78.9251 116.923 79.1247C117.578 79.5269 120.243 78.975 121.065 78.9222C124.108 78.7255 127.187 78.2794 129.973 76.9673C132.174 75.9282 134.126 74.4605 136.198 73.2012C137.466 72.4322 138.878 71.9508 140.216 71.3314C141.112 70.9176 143.046 70.125 143.392 69.0712C143.492 68.766 143.336 68.4431 143.19 68.1613C142.55 66.9226 142.124 65.4285 141.37 64.2779C140.674 63.2182 139.814 62.2613 139.136 61.1723C137.768 58.9855 136.562 56.6754 134.854 54.7234C131.948 51.4006 129.503 47.6052 126.509 44.2942C125.18 42.8236 121.035 41.4234 119.054 41.3412C117.252 41.2679 115.505 41.5643 113.976 41.99C112.746 42.3363 111.654 42.7678 110.794 43.1553C109.532 43.7277 108.763 44.212 108.763 44.212L101.93 47.2706Z" fill="#EED9CE"/>
<path d="M98.5723 65.4198C97.6154 64.8298 93.1452 61.9766 92.7431 60.9463C92.5581 60.4679 91.5426 58.9944 90.6679 57.6118C90.1484 56.7929 88.8364 55.1872 88.5047 54.8438C87.9353 54.2538 87.1164 52.792 86.6203 53.2734C86.0039 53.8722 86.9667 55.3692 87.5097 56.288C87.7093 56.6255 87.9235 56.9631 88.0087 57.3447C88.0938 57.7263 88.0762 58.011 87.8502 58.3339C87.7269 58.51 86.8933 58.5922 86.6115 58.5805C84.5011 58.4865 83.5854 58.6128 82.0092 58.0257C80.433 57.4386 78.9625 56.6109 77.4773 55.8242C77.222 55.6892 77.0693 55.4133 76.494 55.3604C76.2064 55.334 75.6018 55.3722 75.634 55.6598C75.6605 55.8829 77.4333 57.2684 77.6153 57.3975C78.5986 58.0961 78.487 58.0169 79.4703 58.7155C79.6229 58.8241 79.7873 58.9503 79.8254 59.1323C79.8577 59.285 79.7902 59.4435 79.7873 59.599C79.7814 59.8808 79.9751 60.1215 80.1689 60.327C80.5064 60.688 80.8616 61.0256 81.2373 61.3456C81.7597 61.7947 81.3341 62.1762 81.9035 62.5696C82.5317 63.004 84.1577 63.4443 84.8035 63.8494C85.3171 64.1752 85.8366 64.504 86.4031 64.73C87.0811 65 87.8061 65.1204 88.5223 65.2671C90.4801 65.6722 93.9083 69.221 95.5637 70.3922" fill="#FE8E68"/>
<path d="M87.3279 65.0145C87.3279 65.0145 84.8653 64.7034 82.9075 63.7934C80.9498 62.8835 76.1097 59.8953 76.1097 59.8953C76.1097 59.8953 76.0422 59.7251 76.095 59.6077C76.1449 59.4902 76.8817 59.3259 77.4746 59.5812C78.0675 59.8366 81.8597 61.4833 81.8597 61.4833" fill="#FE8E68"/>
<path d="M87.8152 64.187C87.8152 64.187 84.6951 63.5354 82.7374 62.6254C80.7796 61.7155 75.9396 58.7273 75.9396 58.7273C75.9396 58.7273 75.872 58.5571 75.9249 58.4397C75.9777 58.3223 76.7115 58.1579 77.3044 58.4133C77.8973 58.6716 81.6895 60.3153 81.6895 60.3153" fill="#FE8E68"/>
<path d="M86.8291 62.3934C86.8291 62.3934 83.709 61.7418 81.7513 60.8318C79.7935 59.9219 76.7527 58.3661 75.0298 57.1891C74.9153 57.1128 74.886 56.7664 74.9388 56.646C74.9916 56.5286 75.7254 56.3643 76.3183 56.6226C76.9112 56.8809 80.7034 58.5247 80.7034 58.5247" fill="#FE8E68"/>
<path d="M98.3988 43.7104C98.3988 43.7104 90.8496 48.3129 89.0856 38.9992C88.6571 35.1451 88.1229 28.8811 91.3339 26.433C94.545 23.985 101.933 23.7032 102.094 30.9711C101.812 33.0581 101.895 33.2195 101.895 33.2195C101.895 33.2195 104.665 32.4563 104.064 35.9083C103.744 37.4728 103.327 38.0364 103.327 38.0364C103.327 38.0364 108.995 42.4746 109.001 42.4805C109.523 42.8885 109.96 43.5695 110.682 43.2407C110.762 43.2055 110.838 43.1585 110.923 43.1438C111.008 43.1292 111.108 43.1556 111.152 43.2319C111.179 43.2789 111.176 43.3376 111.179 43.3933C111.187 43.6722 111.296 43.9334 111.369 44.2006C111.654 45.225 111.358 46.1848 110.817 47.0713C110.36 47.8228 109.708 48.4627 108.939 48.8912C108.202 49.3022 107.375 49.5252 106.544 49.6749C105.499 49.8628 104.392 49.9362 103.359 49.6485C102.725 49.4724 102.294 49.2757 101.854 48.7621C101.771 48.6652 101.692 48.5654 101.636 48.4509C101.51 48.1926 101.504 47.8961 101.507 47.6085C101.507 47.5674 101.51 47.5263 101.537 47.494C101.563 47.4617 101.61 47.4558 101.651 47.45C102.112 47.3736 101.807 47.13 101.616 46.9304C101.425 46.7308 101.231 46.5341 101.038 46.3345C100.633 45.9207 100.222 45.5097 99.8107 45.0988C99.3381 44.635 98.8685 44.1712 98.3988 43.7104Z" fill="#FE8E68"/>
<path d="M92.7773 36.0226C92.4839 36.0226 92.2461 35.5521 92.2461 34.9717C92.2461 34.3914 92.4839 33.9209 92.7773 33.9209C93.0707 33.9209 93.3086 34.3914 93.3086 34.9717C93.3086 35.5521 93.0707 36.0226 92.7773 36.0226Z" fill="#56211A"/>
<path d="M91.6242 31.3555C92.7748 30.9328 94.7619 31.3878 95.4898 32.4122C95.5397 32.4827 95.4546 32.5972 95.3724 32.5619C94.7942 32.333 94.3099 31.9631 93.6964 31.7899C93.0096 31.5962 92.3551 31.6491 91.6594 31.6168C91.5039 31.6138 91.4833 31.4084 91.6242 31.3555Z" fill="#433735"/>
<path d="M88.8007 34.0127C88.9739 34.5704 88.8007 35.2074 88.5747 35.7475C88.3487 36.2876 87.9994 36.7631 87.656 37.2357C87.5005 37.447 87.3449 37.6613 87.1893 37.8726C87.6736 38.0341 88.1491 38.2337 88.6041 38.4685C88.877 38.6094 89.1706 38.8002 89.2263 39.1026" fill="#FE8E68"/>
<path d="M92.2759 39.6653C91.9501 39.7769 91.6008 39.815 91.2604 39.7739C91.2251 39.771 91.187 39.768 91.1635 39.7915C91.1488 39.8091 91.1459 39.8326 91.1429 39.8532C91.1195 40.1907 91.2662 40.5136 91.4071 40.8189C91.501 41.0244 91.5979 41.2328 91.7476 41.403C92.0616 41.7611 92.7632 41.9872 93.2093 41.7699C93.4089 41.6731 93.5586 41.4911 93.6731 41.3003C93.9871 40.7807 94.2072 39.9001 93.9401 39.3131C93.7611 38.9197 93.7171 39.0665 93.3707 39.225C93.0508 39.3718 92.7191 39.4892 92.3963 39.6213C92.3581 39.636 92.317 39.6536 92.2759 39.6653Z" fill="#FFFBF9"/>
<path d="M98.1292 63.7875C103.636 66.3441 112.209 70.9614 112.209 70.9614L113.439 62.0732L126.395 62.1789C126.395 62.1789 122.647 82.8436 119.755 84.7721C119.755 84.7721 116.33 87.3405 110.762 83.4864C107.087 80.9415 98.5402 74.2548 94.34 70.5974L98.1292 63.7875Z" fill="#EED9CE"/>
<path d="M122.467 78.7633C122.552 77.3426 123.224 75.8015 123.585 74.4278C124.099 72.4788 124.612 70.5297 125.094 68.5718C125.96 65.0318 126.699 61.4742 127.471 57.9166C127.495 57.8139 127.668 57.8344 127.659 57.943C127.371 61.4918 126.435 65.0407 125.581 68.4838C125.111 70.3829 124.627 72.2821 124.096 74.1636C123.685 75.6166 123.394 77.5011 122.608 78.8014C122.572 78.8631 122.464 78.8425 122.467 78.7633Z" fill="#DBC4BD"/>
<path d="M94.6566 70.1309C97.3452 71.9039 99.7432 74.2316 101.947 76.5651C102.141 76.7706 101.833 77.0788 101.639 76.8734C99.3968 74.5104 96.9196 72.5115 94.4306 70.4245C94.2633 70.2895 94.4775 70.0135 94.6566 70.1309Z" fill="#DBC4BD"/>
<path d="M103.644 66.6404C102.755 66.5054 101.863 66.0504 101.061 65.6571C100.363 65.3137 99.441 64.9878 98.9802 64.3391C98.898 64.2217 99.033 64.1072 99.1446 64.1248C99.9048 64.2393 100.642 64.8587 101.325 65.2021C102.121 65.6013 103.004 65.8948 103.756 66.3704C103.908 66.4643 103.806 66.6668 103.644 66.6404Z" fill="#DBC4BD"/>
<path d="M111.017 43.017C112.012 41.9955 112.987 43.8154 113.286 44.6461C114.084 46.8681 113.609 49.5187 112.96 51.7114C112.174 54.3825 110.856 56.8277 110.151 59.5311C109.35 62.6132 108.76 65.6982 108.88 68.8948C108.889 69.0915 108.587 69.0885 108.575 68.8948C108.302 64.7266 109.303 60.0683 110.859 56.2113C111.642 54.2651 112.526 52.3924 112.99 50.3318C113.251 49.1723 113.415 47.963 113.362 46.7742C113.342 46.3075 112.543 41.8693 111.226 43.2195C111.093 43.3604 110.885 43.152 111.017 43.017Z" fill="#9B8580"/>
<path d="M101.102 46.8544C100.85 47.2742 100.6 47.6939 100.348 48.1107C100.298 48.3896 100.248 48.6714 100.198 48.9502C100.172 49.2584 100.186 49.5725 100.207 49.8778C100.263 50.7144 100.468 51.5363 100.606 52.364C100.867 53.9579 101.07 55.5606 101.343 57.1545C101.868 60.2248 102.57 63.257 103.562 66.2129C103.617 66.3773 103.362 66.4448 103.306 66.2833C101.921 62.3324 101.167 58.2288 100.547 54.0959C100.263 52.182 98.6306 47.6176 101.208 46.6255C101.31 46.5844 101.41 46.7047 101.384 46.8016C101.375 46.8309 101.366 46.8603 101.36 46.8867C101.313 47.0305 101.108 46.9982 101.102 46.8544Z" fill="#9B8580"/>
<path d="M104.674 84.6522C104.671 84.391 104.909 84.1268 105.182 84.1444C107.034 84.2677 108.883 84.3939 110.735 84.5172C111.014 84.5348 111.234 84.7344 111.243 85.025C111.322 87.8752 111.172 90.7606 111.322 93.605C111.337 93.8662 111.079 94.1333 110.814 94.1128C108.989 93.9748 107.163 93.8515 105.34 93.6959C105.326 93.6959 105.314 93.6901 105.299 93.6871C105.091 93.6989 104.894 93.5932 104.85 93.3232C104.413 90.5229 104.695 87.4819 104.674 84.6522Z" fill="#D6CED7"/>
<path d="M104.322 34.7395C105.152 34.851 105.786 35.0506 106.391 34.2875C106.635 33.9822 106.828 33.6622 107.207 33.5184C107.257 33.5008 107.295 33.5712 107.257 33.6035C106.787 34.0321 106.45 34.7689 105.83 35.0066C105.34 35.1945 104.736 35.0595 104.281 34.8334C104.222 34.807 104.269 34.7307 104.322 34.7395Z" fill="#594C4A"/>
<path d="M92.9103 37.6339C91.4919 37.6339 90.342 36.484 90.342 35.0655C90.342 33.647 91.4919 32.4971 92.9103 32.4971C94.3287 32.4971 95.4785 33.647 95.4785 35.0655C95.4785 36.484 94.3287 37.6339 92.9103 37.6339Z" stroke="#F9F9F9" stroke-width="1.0943" stroke-miterlimit="10"/>
<path d="M90.2628 34.3899C90.1689 34.3341 90.1278 34.2461 90.0426 34.1756C89.9194 34.0729 89.7579 34.0142 89.6024 33.9848C89.4585 33.9584 89.303 33.9584 89.165 34.0112C89.0359 34.0611 89.0036 34.1844 88.8862 34.2343C88.8539 34.249 88.8246 34.2431 88.8011 34.2108C88.7923 34.1991 88.7835 34.1844 88.7717 34.1727C88.7453 34.1375 88.7541 34.0934 88.7717 34.0582C88.9214 33.7353 89.3529 33.7089 89.6581 33.7735C89.9194 33.8293 90.389 34.0289 90.3391 34.3576C90.3391 34.3928 90.2892 34.4046 90.2628 34.3899Z" fill="#F9F9F9"/>
<path d="M104.357 30.46C103.045 31.4051 94.8416 30.2457 92.1912 29.0305C86.8081 26.5619 86.2798 22.2146 87.539 21.3986C87.6916 21.2988 87.8589 21.2225 88.038 21.199C88.4606 21.1491 88.8481 21.4104 89.1915 21.6599C89.0565 21.1667 88.5663 19.0269 89.8724 18.1756C91.6277 17.0338 93.8349 18.9652 94.1959 19.2059C96.6996 20.882 98.0527 21.1667 98.0527 21.1667C98.0527 21.1667 97.6124 16.9428 101.07 20.1863C102.159 21.2078 104.181 22.1618 105.267 23.1892C106.406 24.2664 107.055 26.0247 106.397 27.5276" fill="#433735"/>
<path d="M100.512 27.9006C99.7605 28.5112 99.4259 29.4886 99.2087 30.4338C98.8829 31.8545 98.7538 33.3633 99.2058 34.7487C99.3349 35.1421 99.1735 36.962 99.4817 36.9091C99.5785 36.8945 99.7958 35.5002 100.163 34.7898C100.735 33.6891 102.552 33.5394 103.212 34.4024C104.031 35.4708 103.506 36.2252 103.142 37.2907C102.872 38.0833 103.139 39.0783 104.107 39.3513C105.012 39.6067 104.75 38.9228 105.111 38.2829C105.886 36.9033 106.696 35.6968 107.216 34.1617C108.035 31.74 108.71 28.065 106.177 26.3889C105.543 25.9692 103.453 25.4584 102.749 25.7402" fill="#433735"/>
<path d="M92.5904 35.7404C92.4623 35.7404 92.3585 35.6051 92.3585 35.4381C92.3585 35.2711 92.4623 35.1357 92.5904 35.1357C92.7185 35.1357 92.8223 35.2711 92.8223 35.4381C92.8223 35.6051 92.7185 35.7404 92.5904 35.7404Z" fill="white"/>
<path d="M101.128 33.304C100.75 34.0496 99.8721 34.1964 99.1265 34.3842C98.0523 34.6543 96.9017 34.8656 95.7893 34.8627C95.5956 34.8627 95.6073 34.5926 95.7893 34.5692C96.7432 34.4488 97.6913 34.3666 98.6305 34.1612C99.4054 33.9938 100.459 33.8441 100.984 33.1954C101.055 33.1103 101.172 33.216 101.128 33.304Z" fill="#F9F9F9"/>
<path d="M99.9396 41.8612C99.5404 42.6243 98.9123 43.3787 98.1315 43.7721C98.0963 43.7897 98.0581 43.7456 98.0875 43.7163C98.7039 43.0911 99.3173 42.5157 99.8398 41.8054C99.8838 41.7467 99.9719 41.7966 99.9396 41.8612Z" fill="#CC6144"/>
<path d="M84.5479 32.8021C84.181 32.5615 83.7877 32.3354 83.4942 32.0037C83.4736 31.9803 83.4942 31.9304 83.5294 31.945C83.9403 32.1035 84.2867 32.3912 84.6359 32.6524C84.724 32.717 84.6447 32.8638 84.5479 32.8021Z" fill="#433735"/>
<path d="M84.0168 33.8237C83.7408 33.765 83.3945 33.7004 83.1597 33.539C83.0981 33.495 83.1215 33.404 83.1979 33.3981C83.4826 33.3805 83.8113 33.5097 84.0784 33.6036C84.2163 33.6505 84.1606 33.8531 84.0168 33.8237Z" fill="#433735"/>
<path d="M83.917 35.0829C83.7468 35.0359 83.5766 34.9977 83.3975 34.9772C83.2537 34.9625 83.1069 34.9625 82.966 34.9302C82.9249 34.9214 82.9132 34.8568 82.9543 34.8363C83.2596 34.6895 83.6705 34.76 83.9728 34.8833C84.0932 34.9302 84.0491 35.1181 83.917 35.0829Z" fill="#433735"/>
<path d="M138.215 72.6586C138.963 72.6351 138.931 73.8033 139.001 74.3023C139.095 74.9804 139.286 75.8551 138.702 76.3659C138.602 76.4539 138.467 76.3894 138.452 76.2631C138.449 76.2309 138.446 76.1986 138.443 76.1692C138.435 76.0958 138.52 76.0723 138.573 76.0958C138.605 76.1105 138.64 76.1252 138.672 76.1399C138.605 76.1575 138.54 76.1751 138.473 76.1927C138.816 75.6702 138.778 75.1653 138.705 74.5753C138.631 73.9824 138.672 73.1928 138.165 72.7877C138.106 72.7437 138.156 72.6615 138.215 72.6586Z" fill="black"/>
<path d="M137.36 73.2312C137.827 74.0002 137.938 75.4297 137.56 76.2487C137.516 76.3456 137.375 76.2898 137.372 76.1988C137.351 75.7057 137.472 75.2213 137.442 74.7223C137.413 74.2292 137.269 73.7595 137.225 73.2693C137.216 73.193 137.325 73.1725 137.36 73.2312Z" fill="black"/>
<path d="M122.904 79.4413C123.004 79.7466 123.098 80.0548 123.233 80.3483C123.356 80.6154 123.544 80.8503 123.662 81.1174C123.717 81.2436 123.577 81.3669 123.465 81.2671C123.007 80.8561 122.755 80.0607 122.711 79.4648C122.705 79.3533 122.872 79.3386 122.904 79.4413Z" fill="black"/>
<path d="M122.253 80.487C122.347 80.8245 122.499 81.1034 122.655 81.4116C122.72 81.5437 122.541 81.711 122.438 81.5789C122.203 81.2795 122.097 80.8862 122.068 80.5105C122.062 80.4048 122.226 80.3872 122.253 80.487Z" fill="black"/>
<path d="M144.483 72.6174C143.556 73.1751 142.587 73.6447 141.665 74.2259C140.861 74.7308 140.016 75.2063 139.059 75.3325C138.918 75.3501 138.889 75.1153 139.027 75.0859C140.136 74.8423 141.046 74.3081 141.991 73.7034C142.719 73.2367 143.57 72.5997 144.46 72.5352C144.507 72.5352 144.518 72.5968 144.483 72.6174Z" fill="black"/>
<path d="M137.472 75.5229C135.13 76.7381 132.919 78.2381 130.518 79.3359C129.421 79.8378 128.267 80.1871 127.081 80.4308C125.96 80.6597 124.633 80.9709 123.492 80.8476C123.374 80.8358 123.333 80.6627 123.462 80.6304C124.683 80.3222 126.01 80.3486 127.252 80.0785C128.499 79.8055 129.694 79.4034 130.841 78.8398C133.06 77.7537 135.077 76.2215 137.39 75.3321C137.501 75.2881 137.575 75.4671 137.472 75.5229Z" fill="black"/>
<path d="M126.85 92.216C126.477 91.7845 126.099 91.3589 125.667 90.9861C125.423 90.7748 124.176 89.6681 123.794 90.038C123.759 90.0732 123.689 90.038 123.706 89.9881C123.897 89.401 124.731 90.0086 125.01 90.1906C125.784 90.7014 126.465 91.3501 126.941 92.1485C126.976 92.2013 126.894 92.2659 126.85 92.216Z" fill="black"/>
<path d="M129.641 91.873C130.786 90.74 132.309 89.9504 133.935 89.8858C133.982 89.8829 133.991 89.9563 133.947 89.968C132.374 90.3261 130.982 90.9161 129.77 92.0022C129.682 92.0785 129.559 91.9552 129.641 91.873Z" fill="black"/>
<path d="M126.964 92.9644C125.564 93.4575 124.466 94.3293 124.143 95.8469C124.073 95.794 124.002 95.7382 123.932 95.6854C124.293 95.4535 124.607 95.1659 124.871 94.8283C125.059 94.5876 125.194 94.2676 125.414 94.0534C125.655 93.8215 126.034 93.7422 126.318 93.9271C126.336 93.9389 126.324 93.9682 126.304 93.9594C125.67 93.7246 125.309 94.7079 125.009 95.0749C124.739 95.4095 124.419 95.6766 124.076 95.932C123.967 96.0142 123.844 95.8791 123.865 95.7705C124.155 94.3293 125.397 92.8939 126.941 92.8058C127.04 92.8 127.046 92.935 126.964 92.9644Z" fill="black"/>
<path d="M144.651 82.1538C143.219 81.2673 141.91 80.1812 141.126 78.6607C141.029 78.4729 141.314 78.3056 141.411 78.4934C142.171 79.964 143.43 81.009 144.818 81.869C144.997 81.9806 144.833 82.2653 144.651 82.1538Z" fill="black"/>
<path d="M127.524 80.489C127.425 81.9713 127.207 83.4184 127.237 84.9096C127.269 86.4741 127.469 88.0269 127.809 89.5533C127.841 89.6971 127.618 89.7617 127.586 89.6149C127.248 88.112 127.043 86.5886 127.005 85.0475C126.967 83.5476 126.996 81.9273 127.401 80.4714C127.419 80.4038 127.527 80.4156 127.524 80.489Z" fill="black"/>
<path d="M127.792 90.1999C127.933 90.4348 127.956 90.743 128.006 91.0071C128.05 91.242 128.144 91.5091 128.068 91.7439C128.053 91.7879 127.997 91.7938 127.971 91.7556C127.827 91.5472 127.833 91.2508 127.789 91.0071C127.742 90.7547 127.648 90.4905 127.666 90.2322C127.672 90.1676 127.757 90.1383 127.792 90.1999Z" fill="black"/>
<path d="M125.438 80.6483C125.479 81.8195 125.432 82.9965 125.42 84.1677C125.409 85.2626 125.309 86.3956 125.417 87.4846C125.599 89.2811 127.346 90.1939 128 91.7702C128.044 91.8759 127.862 91.9522 127.815 91.8495C127.129 90.329 125.441 89.4777 125.168 87.7429C125.001 86.6774 125.133 85.5326 125.15 84.4583C125.171 83.1903 125.156 81.9134 125.232 80.6453C125.238 80.5162 125.432 80.5162 125.438 80.6483Z" fill="black"/>
<path d="M112.15 46.8539C112.173 49.0437 109.869 50.4262 107.9 50.6199C107.744 50.6346 107.735 50.4086 107.864 50.3616C108.789 50.0211 109.725 49.845 110.544 49.2521C111.325 48.6826 111.903 47.8284 112.012 46.8568C112.021 46.7658 112.15 46.7629 112.15 46.8539Z" fill="#C1ADA4"/>
<path d="M106.667 50.6049C106.359 50.6724 106.045 50.6695 105.731 50.6724C105.411 50.6783 105.105 50.6901 104.8 50.5814C104.73 50.555 104.73 50.4611 104.8 50.4347C105.105 50.329 105.411 50.3408 105.731 50.3437C106.045 50.3496 106.359 50.3437 106.667 50.4112C106.761 50.4347 106.761 50.5844 106.667 50.6049Z" fill="#C1ADA4"/>
<path d="M127.659 58.5391C127.712 57.9932 127.879 57.5235 128.246 57.1067C128.528 56.7867 129.115 56.3142 129.567 56.4286C129.646 56.4492 129.685 56.5637 129.617 56.6194C129.461 56.7515 129.279 56.775 129.097 56.8601C128.874 56.9658 128.675 57.1096 128.496 57.2769C128.138 57.6116 127.859 58.0665 127.777 58.5509C127.768 58.6213 127.653 58.6066 127.659 58.5391Z" fill="#C1ADA4"/>
<path d="M100.683 36.7798C100.442 35.9932 101.243 34.4051 102.206 34.7427C102.488 34.8425 102.309 34.9775 102.089 34.9188C101.854 34.8542 101.399 35.635 101.328 35.7701C101.149 36.1106 101.12 36.501 100.947 36.8356C100.912 36.906 100.703 36.8444 100.683 36.7798Z" fill="#CC6144"/>
<path d="M101.254 35.644C101.263 35.3827 101.498 35.2477 101.742 35.2712C101.871 35.2859 102.012 35.3269 102.114 35.4091C102.176 35.4561 102.261 35.5618 102.194 35.6322C102.156 35.6704 102.056 35.6293 102.023 35.6058C101.927 35.5383 101.877 35.4267 101.765 35.4766C101.659 35.5207 101.586 35.6205 101.551 35.7261C101.524 35.8083 101.252 35.732 101.254 35.644Z" fill="#CC6144"/>
<path d="M93.5064 35.6501C93.4653 35.9466 93.2628 36.1374 92.9576 36.1286C92.9458 36.1286 92.8578 36.1051 92.8842 36.0816C92.9576 36.0171 93.0515 35.976 93.1278 35.9085C93.2159 35.8292 93.3127 35.7206 93.3567 35.609C93.3744 35.5709 93.5152 35.6061 93.5064 35.6501Z" fill="#CC6144"/>
<path d="M114.014 55.5976C113.905 58.6885 113.527 61.7677 113.133 64.8321C112.931 66.4055 112.843 68.2078 112.408 69.6872C112.362 69.8457 112.147 69.7752 112.171 69.6226C112.171 69.6197 112.171 69.6197 112.171 69.6167C112.191 69.4582 112.432 69.5257 112.408 69.6813C112.408 69.6842 112.408 69.6842 112.408 69.6872C112.329 69.6666 112.25 69.6431 112.171 69.6226C112.15 69.693 112.165 69.3613 112.171 69.285C112.197 68.9709 112.259 68.6539 112.303 68.3399C112.473 67.1393 112.637 65.9388 112.793 64.7382C113.186 61.6972 113.536 58.6503 113.82 55.5976C113.829 55.4743 114.02 55.4685 114.014 55.5976Z" fill="#C1ADA4"/>
<path d="M108.696 69.0945C109.902 69.3587 111.02 69.9076 112.141 70.436C113.298 70.979 114.492 71.4956 115.546 72.2236C115.622 72.2764 115.578 72.4085 115.482 72.3791C113.092 71.66 110.914 70.2276 108.64 69.2354C108.555 69.1973 108.616 69.0769 108.696 69.0945Z" fill="#C1ADA4"/>
<path d="M87.9145 82.0745C88.2345 83.2193 88.3049 84.3435 88.7833 85.4619C89.2882 86.6389 90.0337 87.5518 90.8233 88.544C90.9201 88.6643 90.7734 88.814 90.653 88.7142C89.6874 87.9217 88.9741 86.7211 88.4869 85.5852C88.0437 84.5549 87.5887 83.2134 87.7707 82.0745C87.7854 81.9982 87.8969 82.007 87.9145 82.0745Z" fill="#C1ADA4"/>
<path d="M139.112 71.6368C139.385 70.7122 139.6 69.7494 139.617 68.7808C139.638 67.7857 139.379 66.8757 139.227 65.9071C139.209 65.7867 139.374 65.6899 139.441 65.8161C140.351 67.5274 140.107 70.0224 139.297 71.7131C139.247 71.8188 139.083 71.7454 139.112 71.6368Z" fill="#C1ADA4"/>
<path d="M136.479 72.9167C136.705 72.3296 136.961 71.7484 137.128 71.1408C137.19 70.9119 137.457 70.1869 137.319 70.0166C136.779 69.7671 136.485 69.8875 136.438 70.3777C136.403 70.5861 136.388 70.7974 136.394 71.0087C136.394 71.1056 136.242 71.132 136.221 71.0322C136.101 70.5068 136.565 68.7397 137.395 69.3914C137.756 69.6761 137.568 70.3923 137.492 70.7563C137.325 71.5312 136.955 72.2563 136.644 72.9813C136.603 73.0781 136.444 73.0106 136.479 72.9167Z" fill="#C1ADA4"/>
<path d="M130.877 76.3915C131.502 75.3847 131.784 74.372 132.103 73.2477C132.124 73.1802 132.221 73.1949 132.224 73.2653C132.271 74.4219 131.707 75.6048 130.994 76.4825C130.938 76.5471 130.833 76.4649 130.877 76.3915Z" fill="#C1ADA4"/>
<path d="M125.857 78.3499C124.983 78.2706 123.823 77.619 123.682 76.6591C123.671 76.5769 123.77 76.4889 123.841 76.5681C124.114 76.8852 124.305 77.2462 124.63 77.5221C124.988 77.8245 125.435 78.0387 125.884 78.165C125.983 78.1884 125.969 78.3616 125.857 78.3499Z" fill="#C1ADA4"/>
<path d="M125.834 77.3725C125.264 77.1758 124.56 76.6709 124.46 76.0281C124.448 75.9518 124.545 75.8666 124.61 75.943C124.801 76.169 124.939 76.4302 125.153 76.6386C125.376 76.8588 125.643 77.029 125.928 77.1553C126.048 77.211 125.963 77.4165 125.834 77.3725Z" fill="#C1ADA4"/>
<path d="M93.7028 43.0993C93.4387 42.9907 93.2567 43.1639 93.0131 43.2314C92.9867 43.2373 92.9133 43.2314 92.9045 43.1962C92.8516 42.9995 93.1187 42.932 93.2714 42.9173C93.4622 42.8997 93.6706 42.9349 93.8261 43.0582C93.9112 43.1257 93.7351 43.114 93.7028 43.0993Z" fill="#CC6144"/>
<path d="M8.69653 29.9395H39.9559C42.6122 29.9395 44.8811 31.8562 45.3272 34.4745L48.0275 50.3576C48.594 53.6833 46.0287 56.7184 42.6562 56.7184H42.4977L43.7158 63.229L37.7046 56.7184H11.3998C8.7435 56.7184 6.47461 54.8016 6.02847 52.1833L3.32815 36.3003C2.75873 32.9746 5.32404 29.9395 8.69653 29.9395Z" fill="#699DEE"/>
<path d="M26.6335 35.9272C23.3021 36.1062 19.9619 36.1503 16.6276 36.2237C14.9839 36.2589 13.3402 36.297 11.6965 36.3323C10.0264 36.3704 8.28591 36.5466 6.62168 36.3939C6.4485 36.3792 6.37512 36.0916 6.57764 36.0652C8.15675 35.8479 9.81218 35.936 11.4089 35.8978C13.0995 35.8597 14.7931 35.8215 16.4838 35.7834C19.8651 35.707 23.2522 35.5955 26.6335 35.6278C26.8302 35.6249 26.8302 35.9184 26.6335 35.9272Z" fill="white"/>
<path d="M27.534 39.9785C24.2789 40.1664 21.0209 40.2574 17.7629 40.2427C16.1574 40.2368 14.5489 40.2046 12.9434 40.1458C11.3789 40.0901 9.76754 40.1047 8.21778 39.864C7.99765 39.8288 8.05928 39.4913 8.26768 39.4883C9.86733 39.4472 11.4875 39.6322 13.0872 39.6879C14.6927 39.7437 16.2983 39.7731 17.9067 39.7789C21.1178 39.7877 24.3259 39.6967 27.5311 39.5089C27.8393 39.4913 27.8363 39.9639 27.534 39.9785Z" fill="white"/>
<path d="M27.5106 43.2128C24.5696 43.4799 21.6139 43.7705 18.6612 43.8821C15.7143 43.9936 12.7439 43.8175 9.79992 43.7148C9.41248 43.7001 9.40955 43.0925 9.79992 43.1101C12.7468 43.2246 15.7084 43.4447 18.6612 43.3478C21.6139 43.251 24.5579 42.934 27.5106 42.8253C27.7631 42.8165 27.7572 43.1893 27.5106 43.2128Z" fill="white"/>
<path d="M42.4919 46.2128C34.1091 46.9085 25.653 46.9525 17.2467 47.0259C15.2449 47.0435 13.2285 47.0846 11.2296 46.9965C10.9009 46.9819 10.8979 46.4917 11.2296 46.4858C15.1128 46.3948 19.0019 46.477 22.8851 46.4388C27.4199 46.3948 31.9547 46.3156 36.4866 46.1659C38.4884 46.0983 40.4931 46.0484 42.4949 45.931C42.6739 45.9193 42.671 46.1981 42.4919 46.2128Z" fill="white"/>
<path d="M42.8469 49.0654C34.558 49.7552 26.2046 49.8784 17.8923 49.9841C15.914 50.0105 13.921 50.0575 11.9427 49.9694C11.614 49.9548 11.611 49.4646 11.9427 49.4587C15.823 49.3677 19.7121 49.4293 23.5953 49.3706C28.0332 49.3031 32.4741 49.2004 36.9091 49.0331C38.8903 48.9597 40.8715 48.901 42.8498 48.7836C43.0289 48.7718 43.026 49.0507 42.8469 49.0654Z" fill="white"/>
<path d="M41.2739 34.3162C41.6642 35.7428 41.6995 37.2163 41.7053 38.6869C41.7083 39.4325 41.7083 40.181 41.764 40.9266C41.8227 41.7074 42.1016 42.4588 42.1427 43.2308C42.1573 43.5038 41.7728 43.586 41.6407 43.3658C41.3296 42.8434 41.2885 42.1741 41.2181 41.5753C41.1242 40.7916 41.1124 40.0049 41.1124 39.2153C41.1095 37.6185 41.1476 36.0275 40.6927 34.4777C40.5812 34.102 41.1711 33.9405 41.2739 34.3162Z" fill="white"/>
<path d="M40.6866 34.5161C36.9149 34.5894 33.1638 34.7127 29.4127 35.1325C29.5271 34.9828 29.6416 34.8301 29.7561 34.6804C30.1582 37.56 30.4165 40.4307 30.4106 43.3396C30.4106 43.9091 29.5213 43.912 29.5242 43.3396C29.5448 40.4806 29.4215 37.6099 29.0546 34.7744C29.0282 34.5689 29.2395 34.4339 29.4127 34.4163C33.1462 34.0376 36.9355 33.838 40.6866 34.064C40.9742 34.0816 40.9801 34.5102 40.6866 34.5161Z" fill="white"/>
<path d="M41.4881 43.7701C39.6302 43.5588 37.7634 43.4825 35.8967 43.5646C35.0102 43.6028 34.1238 43.6762 33.2403 43.7789C32.7267 43.8406 32.213 43.9169 31.7023 43.9932C31.265 44.0578 30.9362 44.1723 30.5195 44.0108C30.3052 43.9286 30.1672 43.6351 30.3727 43.456C30.9744 42.9247 32.0516 42.9658 32.8236 42.8866C33.798 42.7868 34.7784 42.7281 35.7558 42.7075C37.7077 42.6694 39.6507 42.8044 41.5821 43.0744C41.9754 43.1302 41.8873 43.8141 41.4881 43.7701Z" fill="white"/>
<path d="M39.747 36.1008C39.8878 37.6154 39.9994 39.1359 40.0639 40.6564C40.0786 41.0292 39.4769 41.0322 39.4828 40.6564C39.5121 39.133 39.4769 37.6213 39.3624 36.1008C39.3448 35.8543 39.7235 35.8572 39.747 36.1008Z" fill="white"/>
<path d="M39.7092 40.9469C36.7418 41.1347 33.7361 41.2874 30.7628 41.2932C30.3813 41.2932 30.3871 40.7267 30.7628 40.7062C33.7303 40.533 36.7359 40.5066 39.7092 40.5124C39.991 40.5124 39.988 40.9293 39.7092 40.9469Z" fill="white"/>
<path d="M38.3768 39.6817C38.2594 39.3265 38.1391 38.9684 38.0217 38.6132C37.9219 38.3138 37.8338 37.7179 37.6166 37.489C37.012 36.852 36.1549 38.804 35.97 39.077C35.6178 39.5995 34.9896 39.9957 34.5259 39.3412C34.2148 38.9038 34.2001 38.3109 33.9682 37.8383C33.9535 37.5888 33.8185 37.4391 33.5632 37.3892C33.4546 37.5271 33.346 37.6622 33.2403 37.8001C33.0642 38.0232 32.8939 38.2962 32.6621 38.4723C32.4331 38.6455 32.169 38.7101 31.896 38.5956C31.4381 38.4019 31.4293 37.759 31.0037 37.5653C30.0762 37.1455 31.7874 36.1593 31.6847 37.1749C31.6494 37.5183 31.987 38.123 32.3715 37.9234C32.6092 37.8001 32.8294 37.4009 33.0114 37.2043C33.2374 36.9577 33.5279 36.582 33.9183 36.7346C34.2001 36.8461 34.2588 37.1866 34.3527 37.4361C34.4877 37.8001 34.6374 38.1612 34.7812 38.5193C34.8018 38.8422 34.9691 39.0036 35.2861 39.0065C35.4035 38.8627 35.5121 38.713 35.609 38.5545C35.9993 37.9851 36.5189 36.7111 37.4199 36.8608C37.7898 36.9225 37.96 37.1925 38.1068 37.5095C38.4062 38.1553 38.5764 38.895 38.7995 39.5701C38.8846 39.8314 38.4649 39.9458 38.3768 39.6817Z" fill="white"/>
<path d="M54.4242 3.87988H75.0143C76.7636 3.87988 78.2576 5.14207 78.5511 6.86804L80.3298 17.3295C80.7026 19.5193 79.0149 21.5212 76.793 21.5212H76.6873L78.7478 24.5211L73.5291 21.5212H56.2029C54.4535 21.5212 52.9566 20.259 52.666 18.533L50.8873 8.07152C50.5145 5.87884 52.2023 3.87988 54.4242 3.87988Z" fill="#8434DC"/>
<path d="M75.5426 7.53664C71.8003 7.73037 68.0492 7.80376 64.301 7.90356C62.4518 7.95346 60.6027 8.00336 58.7535 8.05326C56.8721 8.10316 54.9378 8.28515 53.0593 8.16186C52.8715 8.15012 52.8774 7.89475 53.0593 7.8742C54.8821 7.65405 56.7723 7.72744 58.6068 7.67754C60.5058 7.6247 62.4019 7.57187 64.301 7.51903C68.0462 7.41629 71.7944 7.2842 75.5426 7.27246C75.7128 7.27246 75.7099 7.52783 75.5426 7.53664Z" fill="white"/>
<path d="M76.4905 10.2081C72.8861 10.3812 69.2817 10.4928 65.6744 10.5368C63.9192 10.5574 62.164 10.5632 60.4088 10.5544C58.5655 10.5427 56.6899 10.5985 54.8525 10.437C54.6441 10.4194 54.6383 10.1141 54.8525 10.1053C56.6488 10.0319 58.4628 10.1405 60.262 10.1523C62.0642 10.164 63.8693 10.1582 65.6715 10.1347C69.2788 10.0906 72.8832 9.9791 76.4875 9.80298C76.7517 9.79124 76.7517 10.1963 76.4905 10.2081Z" fill="white"/>
<path d="M77.0636 12.6207C70.0662 13.1637 63.013 13.2195 56.0009 12.9729C55.7456 12.9641 55.7426 12.5649 56.0009 12.5737C63.0306 12.8321 70.0398 12.7 77.0636 12.3653C77.228 12.3595 77.225 12.609 77.0636 12.6207Z" fill="white"/>
<path d="M77.6232 15.2251C72.8125 15.6478 67.9138 15.9178 63.0854 15.7447C62.8682 15.7359 62.8682 15.41 63.0854 15.4071C67.9372 15.3278 72.7744 15.2985 77.6232 15.0372C77.7436 15.0314 77.7406 15.2134 77.6232 15.2251Z" fill="white"/>
<path d="M127.694 9.73633H155.877C158.272 9.73633 160.318 11.4652 160.72 13.8252L163.153 28.1467C163.664 31.1466 161.351 33.8823 158.31 33.8823H134.489L130.333 39.1189L130.165 33.8823H130.127C127.732 33.8823 125.686 32.1534 125.284 29.7934L122.851 15.4719C122.34 12.472 124.653 9.73633 127.694 9.73633Z" fill="#FF6652"/>
<path d="M145.877 15.0258C142.537 15.1696 139.194 15.2283 135.851 15.3076C134.204 15.3457 132.557 15.3839 130.911 15.422C129.223 15.4602 127.509 15.5923 125.824 15.5072C125.686 15.5013 125.689 15.3076 125.824 15.2929C127.456 15.1344 129.126 15.1813 130.764 15.1432C132.46 15.1021 134.154 15.061 135.851 15.0228C139.191 14.9436 142.534 14.8438 145.877 14.832C146 14.832 146 15.0199 145.877 15.0258Z" fill="white"/>
<path d="M146.767 18.6533C143.556 18.8323 140.339 18.9262 137.122 18.9262C133.928 18.9262 130.644 18.9908 127.465 18.6356C127.312 18.618 127.304 18.392 127.465 18.392C130.682 18.3832 133.902 18.6327 137.122 18.6298C140.339 18.6268 143.556 18.5329 146.767 18.3539C146.957 18.3421 146.957 18.6415 146.767 18.6533Z" fill="white"/>
<path d="M158.68 21.6442C149.097 22.3399 139.449 22.4397 129.851 22.0934C129.616 22.0845 129.616 21.7206 129.851 21.7294C139.47 22.0757 149.071 21.9202 158.68 21.4124C158.833 21.4036 158.83 21.6325 158.68 21.6442Z" fill="white"/>
<path d="M159.45 25.2231C152.857 25.7662 146.165 26.1155 139.549 25.9012C139.353 25.8953 139.35 25.5959 139.549 25.593C146.194 25.5079 152.813 25.4492 159.45 25.0529C159.558 25.047 159.558 25.2143 159.45 25.2231Z" fill="white"/>
<path d="M157.685 13.5635C157.885 14.9431 158.178 16.3668 158.272 17.7581C158.328 18.5917 157.932 18.9939 157.122 19.1289C155.725 19.3667 154.272 19.4136 152.86 19.5399C152.015 19.6162 150.474 19.9625 149.775 19.2639C149.435 18.9234 149.52 18.4039 149.543 17.9695C149.576 17.3501 149.646 16.7337 149.646 16.1143C149.646 15.3365 149.42 14.6995 149.247 13.9598C149.168 13.6222 149.15 13.2847 149.379 12.9941C149.931 12.2955 151.313 12.5508 152.073 12.5538C153.62 12.5597 155.167 12.6007 156.711 12.6301C157.192 12.6389 157.172 13.4197 156.711 13.3639C154.706 13.1291 152.643 12.9823 150.623 13.0792C150.18 13.0998 149.725 13.0733 149.734 13.8248C149.737 13.998 149.866 14.2093 149.913 14.3737C150.031 14.77 150.086 15.178 150.104 15.5918C150.124 16.0321 150.092 16.4724 150.054 16.9098C150.016 17.3648 149.866 17.9166 149.928 18.3687C150.036 19.1729 150.682 19.261 151.366 19.2405C151.865 19.2258 152.361 19.1641 152.86 19.123C153.876 19.0379 154.891 18.9616 155.907 18.8794C156.321 18.8471 157.11 18.9352 157.477 18.7238C157.747 18.5683 157.973 18.0516 157.991 17.7581C158.008 17.4705 157.891 17.036 157.85 16.7396C157.709 15.7063 157.533 14.679 157.383 13.6487C157.354 13.4491 157.656 13.3639 157.685 13.5635Z" fill="white"/>
<path d="M154.756 16.8358C154.63 16.1606 154.571 15.4738 154.492 14.7928C154.527 14.8544 154.562 14.9161 154.597 14.9806C154.474 14.8984 153.28 16.3368 153.145 16.4894C153.109 16.3544 153.074 16.2193 153.039 16.0843C153.558 16.2957 154.081 16.4982 154.597 16.7154C154.885 16.8358 154.765 17.3142 154.465 17.1939C153.943 16.9855 153.429 16.7653 152.91 16.551C152.74 16.4806 152.672 16.2927 152.804 16.146C153.136 15.7732 153.47 15.4092 153.826 15.0599C154.025 14.8632 154.327 14.4552 154.662 14.5257C154.988 14.5961 154.941 14.9513 154.967 15.2096C155.02 15.735 155.082 16.2634 155.099 16.7917C155.099 16.9796 154.791 17.0295 154.756 16.8358Z" fill="white"/>
<path d="M33.5837 72.4021C33.206 72.4021 32.8998 72.0958 32.8998 71.7181C32.8998 71.3404 33.206 71.0342 33.5837 71.0342C33.9614 71.0342 34.2676 71.3404 34.2676 71.7181C34.2676 72.0958 33.9614 72.4021 33.5837 72.4021Z" fill="#2D2442"/>
<path d="M31.4177 72.4021C31.04 72.4021 30.7338 72.0958 30.7338 71.7181C30.7338 71.3404 31.04 71.0342 31.4177 71.0342C31.7954 71.0342 32.1016 71.3404 32.1016 71.7181C32.1016 72.0958 31.7954 72.4021 31.4177 72.4021Z" fill="#2D2442"/>
<path d="M29.2543 72.4021C28.8766 72.4021 28.5705 72.0958 28.5705 71.7181C28.5705 71.3404 28.8766 71.0342 29.2543 71.0342C29.632 71.0342 29.9382 71.3404 29.9382 71.7181C29.9382 72.0958 29.632 72.4021 29.2543 72.4021Z" fill="#2D2442"/>
<path d="M30.9423 20.9372C30.5646 20.9372 30.2585 20.631 30.2585 20.2533C30.2585 19.8755 30.5646 19.5693 30.9423 19.5693C31.32 19.5693 31.6262 19.8755 31.6262 20.2533C31.6262 20.631 31.32 20.9372 30.9423 20.9372Z" fill="#2D2442"/>
<path d="M28.7763 20.9372C28.3986 20.9372 28.0924 20.631 28.0924 20.2533C28.0924 19.8755 28.3986 19.5693 28.7763 19.5693C29.154 19.5693 29.4602 19.8755 29.4602 20.2533C29.4602 20.631 29.154 20.9372 28.7763 20.9372Z" fill="#2D2442"/>
<path d="M26.613 20.9372C26.2353 20.9372 25.9291 20.631 25.9291 20.2533C25.9291 19.8755 26.2353 19.5693 26.613 19.5693C26.9907 19.5693 27.2969 19.8755 27.2969 20.2533C27.2969 20.631 26.9907 20.9372 26.613 20.9372Z" fill="#2D2442"/>
<path d="M153.814 47.1579C153.436 47.1579 153.13 46.8517 153.13 46.474C153.13 46.0962 153.436 45.79 153.814 45.79C154.192 45.79 154.498 46.0962 154.498 46.474C154.498 46.8517 154.192 47.1579 153.814 47.1579Z" fill="#2D2442"/>
<path d="M151.651 47.1579C151.273 47.1579 150.967 46.8517 150.967 46.474C150.967 46.0962 151.273 45.79 151.651 45.79C152.028 45.79 152.334 46.0962 152.334 46.474C152.334 46.8517 152.028 47.1579 151.651 47.1579Z" fill="#2D2442"/>
<path d="M149.485 47.1579C149.107 47.1579 148.801 46.8517 148.801 46.474C148.801 46.0962 149.107 45.79 149.485 45.79C149.862 45.79 150.168 46.0962 150.168 46.474C150.168 46.8517 149.862 47.1579 149.485 47.1579Z" fill="#2D2442"/>
</g>
<defs>
<clipPath id="clip0_28_5242">
<rect width="172" height="118" fill="white" transform="matrix(-1 0 0 1 172 0)"/>
</clipPath>
</defs>
</svg>
