<svg width="50" height="24" viewBox="0 0 50 24" fill="none" xmlns="http://www.w3.org/2000/svg">
<g clip-path="url(#clip0_138_1098)">
<path d="M25 23.4144C38.8071 23.4144 50 18.1729 50 11.7072C50 5.2415 38.8071 0 25 0C11.1929 0 0 5.2415 0 11.7072C0 18.1729 11.1929 23.4144 25 23.4144Z" fill="#07E5CA"/>
<path d="M25.2108 15.6585L21.9441 14.3017L18.3864 16.6055L31.9485 22.9559C40.3553 21.8191 46.9399 18.6718 49.1757 14.6977L31.9346 6.62402L16.1582 8.65774L23.0847 11.8943L22.7307 12.6322L28.1715 15.0962C28.1715 15.0962 26.302 15.753 25.2108 15.6585V15.6585Z" fill="#00B59B"/>
<path d="M31.9347 6.62413C30.368 5.8065 27.7513 5.31836 24.935 5.31836C24.3643 5.31836 23.7918 5.34292 23.2336 5.39135L23.0616 5.40621C21.348 5.55447 19.7955 5.92334 18.5719 6.47285C17.373 7.01165 16.572 7.68838 16.2555 8.42983L16.1582 8.6578L21.944 8.86281L22.0617 8.7204C22.3971 8.31477 23.2055 8.01079 24.1714 7.92715L24.3434 7.91228C25.4346 7.81789 26.5552 7.99026 27.2685 8.36251C28.2143 8.8559 28.1198 9.64856 27.0621 10.0935C26.5498 10.3091 24.0279 10.558 23.1891 10.5416L22.7308 10.5324V12.6323L23.1891 12.6231C24.0335 12.6065 26.55 12.8557 27.0622 13.0712C28.1198 13.5162 28.2143 14.3088 27.2684 14.8023C26.5552 15.1745 25.4345 15.3469 24.3433 15.2524L24.1715 15.2376C23.2055 15.1539 22.3971 14.85 22.0617 14.4443L21.944 14.3019L16.1582 14.5069L16.2555 14.7349C16.5719 15.4763 17.3729 16.1531 18.572 16.6919C19.7954 17.2414 21.348 17.6102 23.0616 17.7585L23.2334 17.7734C23.7918 17.8218 24.3643 17.8464 24.935 17.8464C27.7513 17.8464 30.368 17.3582 31.9346 16.5406C34.5744 15.1631 34.45 13.0215 31.7093 11.5824C34.45 10.1432 34.5745 8.0016 31.9347 6.62413V6.62413Z" fill="#F8FFFB"/>
<path d="M31.709 11.5817C34.4502 13.0209 34.5742 15.1625 31.9346 16.5404C30.3799 17.3512 27.792 17.8382 25 17.8455V15.2768C25.8672 15.269 26.6992 15.0994 27.2686 14.8017C28.2139 14.3082 28.1201 13.5157 27.0625 13.0707C26.7793 12.9518 25.8857 12.8224 25 12.7332V10.4302C25.8857 10.341 26.7793 10.2121 27.0625 10.0932C28.1201 9.6482 28.2139 8.85568 27.2686 8.36223C26.6992 8.06452 25.8672 7.89486 25 7.88709V5.31836C27.792 5.32568 30.3799 5.81226 31.9346 6.62353C34.5742 8.00096 34.4502 10.1426 31.709 11.5817Z" fill="#D8D8D8"/>
</g>
<defs>
<clipPath id="clip0_138_1098">
<rect width="50" height="23.4144" fill="white"/>
</clipPath>
</defs>
</svg>
