<svg width="70" height="1134" viewBox="0 0 70 1134" fill="none" xmlns="http://www.w3.org/2000/svg">
<rect y="1063.63" width="70" height="70" rx="10" fill="#E6FFF3"/>
<g clip-path="url(#clip0_138_1241)">
<path d="M35 0C26.7157 0 20 3.14489 20 7.02431C20 10.9037 26.7157 14.0486 35 14.0486C43.2842 14.0486 49.9999 10.9037 49.9999 7.02431C49.9911 3.14663 43.2806 0.00414521 35 0ZM41.317 7.24812C41.2132 7.34567 41.0444 7.42475 40.836 7.47338V7.47588L32.2646 9.48283C31.7353 9.60669 31.0918 9.50618 30.8272 9.25829C30.752 9.18782 30.7133 9.11003 30.7142 9.03127V5.01738C30.714 4.74027 31.1934 4.51555 31.7852 4.5154C31.9516 4.51537 32.1158 4.53348 32.2646 4.56832L40.836 6.57528C41.3656 6.69887 41.581 7.00012 41.317 7.24812Z" fill="#00C968"/>
</g>
<defs>
<clipPath id="clip0_138_1241">
<rect width="30" height="14.0487" fill="white" transform="translate(20)"/>
</clipPath>
</defs>
</svg>
