<svg width="50" height="24" viewBox="0 0 50 24" fill="none" xmlns="http://www.w3.org/2000/svg">
<g clip-path="url(#clip0_138_995)">
<path d="M25 23.4144C38.8071 23.4144 50 18.1729 50 11.7072C50 5.2415 38.8071 0 25 0C11.1929 0 0 5.2415 0 11.7072C0 18.1729 11.1929 23.4144 25 23.4144Z" fill="#FF3333"/>
<path d="M31.7838 22.9783C41.8902 21.647 49.4028 17.4153 49.9658 12.3226L35.3027 5.45605L17.9952 6.15163L15.9424 8.10847L26.629 13.2863L21.0342 17.9444L31.7838 22.9783Z" fill="#C60000"/>
<path d="M35.3027 5.45605L26.9688 17.9444H21.0342L27.5986 8.10847H15.9424V5.45605H35.3027Z" fill="#F8FFFB"/>
<path d="M35.3027 5.45605L26.9688 17.9444H25V12.002L27.5986 8.10847H25V5.45605H35.3027Z" fill="#D8D8D8"/>
</g>
<defs>
<clipPath id="clip0_138_995">
<rect width="50" height="23.4144" fill="white"/>
</clipPath>
</defs>
</svg>
