<svg width="44" height="44" viewBox="0 0 44 44" fill="none" xmlns="http://www.w3.org/2000/svg">
<rect width="44" height="44" rx="6" fill="#F2E6FF"/>
<path d="M18.46 21.2895L24.12 15.6395C24.213 15.5458 24.3236 15.4714 24.4454 15.4207C24.5673 15.3699 24.698 15.3438 24.83 15.3438C24.962 15.3438 25.0927 15.3699 25.2146 15.4207C25.3365 15.4714 25.4471 15.5458 25.54 15.6395C25.7263 15.8269 25.8308 16.0804 25.8308 16.3445C25.8308 16.6087 25.7263 16.8622 25.54 17.0495L20.59 22.0495L25.54 26.9995C25.7263 27.1869 25.8308 27.4404 25.8308 27.7045C25.8308 27.9687 25.7263 28.2222 25.54 28.4095C25.4474 28.504 25.337 28.5792 25.2151 28.6307C25.0932 28.6822 24.9623 28.709 24.83 28.7095C24.6977 28.709 24.5668 28.6822 24.445 28.6307C24.3231 28.5792 24.2126 28.504 24.12 28.4095L18.46 22.7595C18.3585 22.6659 18.2775 22.5523 18.2221 22.4258C18.1667 22.2993 18.1381 22.1626 18.1381 22.0245C18.1381 21.8864 18.1667 21.7498 18.2221 21.6233C18.2775 21.4968 18.3585 21.3832 18.46 21.2895V21.2895Z" fill="#9C4DF4"/>
</svg>
