<svg width="50" height="24" viewBox="0 0 50 24" fill="none" xmlns="http://www.w3.org/2000/svg">
<g clip-path="url(#clip0_138_1012)">
<path d="M25 23.4144C38.8071 23.4144 50 18.1729 50 11.7072C50 5.2415 38.8071 0 25 0C11.1929 0 0 5.2415 0 11.7072C0 18.1729 11.1929 23.4144 25 23.4144Z" fill="#FF6529"/>
<path d="M49.4274 14.2053L32.2287 6.15137C32.2287 6.15137 19.2437 6.12571 19.2437 11.7254C19.2437 17.3251 19.2437 17.3251 19.2437 17.3251L31.4148 23.0247C40.4231 21.9079 47.4359 18.4956 49.4274 14.2053Z" fill="#E53B07"/>
<path d="M24.9753 9.9273C23.8243 9.9273 22.7235 10.0297 21.7121 10.216C21.7912 9.69956 22.2407 9.21266 23 8.83062C24.3809 8.13587 26.5645 7.91558 28.4336 8.28262L30.0391 8.5978L32.2291 6.15163L30.6236 5.83645C26.5748 5.0415 21.8448 5.51862 18.8539 7.02354C17.0356 7.9384 16.0342 9.13052 16.0342 10.3803V13.9299V14.1143C16.0342 16.423 20.0452 18.3013 24.9754 18.3013C29.9055 18.3013 33.9165 16.4231 33.9165 14.1143C33.9164 11.8056 29.9054 9.9273 24.9753 9.9273V9.9273ZM24.9753 15.6489C23.1684 15.6489 21.6982 14.9605 21.6982 14.1143C21.6982 13.2681 23.1684 12.5797 24.9753 12.5797H24.9754C26.7823 12.5797 28.2524 13.2681 28.2524 14.1143C28.2523 14.9605 26.7822 15.6489 24.9753 15.6489V15.6489Z" fill="#F8FFFB"/>
<path d="M28.4336 8.2825L30.0391 8.59759L32.2285 6.15142L30.623 5.83633C28.8125 5.481 26.8662 5.37993 25 5.51118V8.22716C26.0986 8.05338 27.3223 8.0639 28.4336 8.2825V8.2825ZM25 9.927V12.5794C25.8936 12.5826 26.7041 12.7546 27.291 13.0294C27.8848 13.3075 28.252 13.6911 28.252 14.1142C28.252 14.9565 26.7959 15.6425 25 15.6489V18.3013C29.9189 18.2949 33.916 16.419 33.916 14.1142C33.916 11.8088 29.9189 9.9334 25 9.927V9.927Z" fill="#D8D8D8"/>
</g>
<defs>
<clipPath id="clip0_138_1012">
<rect width="50" height="23.4144" fill="white"/>
</clipPath>
</defs>
</svg>
