<svg width="60" height="60" viewBox="0 0 60 60" fill="none" xmlns="http://www.w3.org/2000/svg">
<circle cx="30" cy="30" r="30" fill="#9C4DF4"/>
<path d="M34.9999 31.4098L30.7099 27.1698C30.617 27.0761 30.5064 27.0017 30.3845 26.9509C30.2627 26.9002 30.132 26.874 29.9999 26.874C29.8679 26.874 29.7372 26.9002 29.6154 26.9509C29.4935 27.0017 29.3829 27.0761 29.2899 27.1698L25.0499 31.4098C24.9562 31.5028 24.8818 31.6134 24.8311 31.7352C24.7803 31.8571 24.7542 31.9878 24.7542 32.1198C24.7542 32.2518 24.7803 32.3825 24.8311 32.5044C24.8818 32.6263 24.9562 32.7369 25.0499 32.8298C25.2373 33.0161 25.4908 33.1206 25.7549 33.1206C26.0191 33.1206 26.2726 33.0161 26.4599 32.8298L29.9999 29.2898L33.5399 32.8298C33.7262 33.0146 33.9776 33.1187 34.2399 33.1198C34.3716 33.1206 34.502 33.0954 34.6239 33.0456C34.7457 32.9958 34.8565 32.9225 34.9499 32.8298C35.047 32.7402 35.1254 32.6322 35.1805 32.5122C35.2356 32.3921 35.2664 32.2623 35.271 32.1302C35.2757 31.9982 35.2541 31.8666 35.2076 31.7429C35.161 31.6193 35.0905 31.506 34.9999 31.4098Z" fill="white"/>
</svg>
