<svg width="50" height="50" viewBox="0 0 50 50" fill="none" xmlns="http://www.w3.org/2000/svg">
<path d="M25 50C38.8071 50 50 38.8071 50 25C50 11.1929 38.8071 0 25 0C11.1929 0 0 11.1929 0 25C0 38.8071 11.1929 50 25 50Z" fill="#07E5CA"/>
<path d="M30.9623 49.2827C41.228 46.7707 49.0052 37.9204 49.9104 27.1145L34.4463 11.6504L19.493 13.2487L15.4856 26.252L21.6319 32.2354L17.8489 36.21L30.9623 49.2827Z" fill="#00B59B"/>
<path d="M22.8601 17.3145L22.3259 20.4453L24.5808 20.3389C27.1492 20.2168 29.6873 20.9854 31.5447 22.7637C35.1267 26.1934 35.4314 31.8525 32.238 35.6465C30.3806 37.8535 27.6589 39.0908 24.8357 39.0908C24.2146 39.0908 23.5886 39.0312 22.9656 38.9082L22.7673 38.8691C20.8884 38.499 19.1873 37.5791 17.8484 36.21C16.5388 34.8701 15.6677 33.1943 15.323 31.3555L21.0496 30.8936C21.4939 32.1172 22.5603 33.0557 23.863 33.3125L24.0613 33.3516C25.4919 33.6338 26.9646 33.1152 27.9041 31.999C29.1794 30.4844 29.0583 28.2246 27.6277 26.8545C26.8855 26.1436 25.8718 25.7656 24.8464 25.8125L15.4851 26.252L18.1296 11.6504H34.4458V17.3145H22.8601V17.3145Z" fill="#F8FFFB"/>
<path d="M31.5449 22.7632C35.127 26.1929 35.4316 31.8521 32.2383 35.646C30.417 37.8101 27.7646 39.0425 25 39.0884V33.4234C26.1104 33.3785 27.1699 32.8706 27.9043 31.9986C29.1797 30.4839 29.0586 28.2242 27.6279 26.854C26.9229 26.1783 25.9727 25.8033 25 25.8081V20.3267C27.4238 20.3032 29.7881 21.0816 31.5449 22.7632V22.7632Z" fill="#D8D8D8"/>
<path d="M25 11.6504H34.4463V17.3145H25V11.6504Z" fill="#D8D8D8"/>
</svg>
