<svg width="50" height="24" viewBox="0 0 50 24" fill="none" xmlns="http://www.w3.org/2000/svg">
<g clip-path="url(#clip0_138_980)">
<path d="M25 23.4144C38.8071 23.4144 50 18.1729 50 11.7072C50 5.2415 38.8071 0 25 0C11.1929 0 0 5.2415 0 11.7072C0 18.1729 11.1929 23.4144 25 23.4144Z" fill="#FFB54A"/>
<path d="M48.9232 15.1139L31.267 6.84565C31.267 6.84565 21.7557 6.56011 20.6558 9.25336C19.556 11.9467 18.9443 17.142 18.9443 17.142L31.4865 23.0153C39.8151 21.9703 46.4275 18.9618 48.9232 15.1139Z" fill="#F9880D"/>
<path d="M31.5404 11.4962C32.5263 10.8673 33.1103 10.0922 33.1103 9.25399C33.1103 7.15982 29.4721 5.45605 25.0001 5.45605C20.5281 5.45605 16.8899 7.15982 16.8899 9.25399C16.8899 10.0922 17.4739 10.8674 18.4598 11.4962C16.9421 12.1925 15.998 13.162 15.998 14.2332C15.998 16.3076 19.6019 17.9953 24.0317 17.9953H25.9687C30.3984 17.9953 34.0023 16.3077 34.0023 14.2332C34.0022 13.162 33.0581 12.1925 31.5404 11.4962ZM25.0001 8.10847C26.3488 8.10847 27.4462 8.62235 27.4462 9.25399C27.4462 9.88559 26.3489 10.3995 25.0001 10.3995C23.6513 10.3995 22.554 9.88563 22.554 9.25399C22.554 8.62235 23.6514 8.10847 25.0001 8.10847ZM25.9686 15.3428H24.0316C22.725 15.3428 21.662 14.8451 21.662 14.2332C21.662 13.5818 22.7937 13.0518 24.1846 13.0518H25.8155C27.2064 13.0518 28.3381 13.5818 28.3381 14.2332C28.3382 14.8451 27.2752 15.3428 25.9686 15.3428Z" fill="#F8FFFB"/>
<path d="M31.54 11.4962C32.5264 10.8674 33.1104 10.0923 33.1104 9.25404C33.1104 7.16 29.4717 5.45605 25 5.45605V8.10847C26.3486 8.10847 27.4463 8.62249 27.4463 9.25404C27.4463 9.88559 26.3486 10.3996 25 10.3996V13.052H25.8154C27.2061 13.052 28.3379 13.5816 28.3379 14.2333C28.3379 14.8451 27.2754 15.3427 25.9688 15.3427H25V17.9951H25.9688C30.3984 17.9951 34.002 16.3076 34.002 14.2333C34.002 13.1618 33.0576 12.1927 31.54 11.4962V11.4962Z" fill="#D8D8D8"/>
</g>
<defs>
<clipPath id="clip0_138_980">
<rect width="50" height="23.4144" fill="white"/>
</clipPath>
</defs>
</svg>
