<svg width="190" height="2082" viewBox="0 0 190 2082" fill="none" xmlns="http://www.w3.org/2000/svg">
<g filter="url(#filter0_d_138_921)">
<rect x="70" y="1936.06" width="50" height="50" rx="5" fill="white"/>
</g>
<g clip-path="url(#clip0_138_921)">
<path d="M81.7578 0L83.6211 12.2954L95.0117 14.0487L106.402 12.2954L108.266 0H81.7578Z" fill="#FF7816"/>
<path d="M108.266 0L106.402 12.2954L95.0117 14.0487V0H108.266Z" fill="#FF4B00"/>
<path d="M103.291 3.73129H90.2656L90.5819 5.7892H102.975L102.219 10.772L95.0117 11.8998L87.8047 10.772L87.5586 9.10929H91.0743L91.1445 9.56203L95.0117 10.1629L98.8789 9.56203L99.1952 7.43552H87.295L86.4863 2.08496H103.537L103.291 3.73129Z" fill="#ECECF1"/>
<path d="M102.975 5.78906L102.219 10.7719L95.0117 11.8997V10.1628L98.8789 9.56189L99.1952 7.43539H95.0117V5.78906H102.975Z" fill="#E2E2E7"/>
<path d="M103.537 2.08496L103.291 3.73129H95.0117V2.08496H103.537Z" fill="#E2E2E7"/>
</g>
<defs>
<filter id="filter0_d_138_921" x="0" y="1891.06" width="190" height="190" filterUnits="userSpaceOnUse" color-interpolation-filters="sRGB">
<feFlood flood-opacity="0" result="BackgroundImageFix"/>
<feColorMatrix in="SourceAlpha" type="matrix" values="0 0 0 0 0 0 0 0 0 0 0 0 0 0 0 0 0 0 127 0" result="hardAlpha"/>
<feOffset dy="25"/>
<feGaussianBlur stdDeviation="35"/>
<feColorMatrix type="matrix" values="0 0 0 0 0.0392157 0 0 0 0 0.0117647 0 0 0 0 0.235294 0 0 0 0.15 0"/>
<feBlend mode="normal" in2="BackgroundImageFix" result="effect1_dropShadow_138_921"/>
<feBlend mode="normal" in="SourceGraphic" in2="effect1_dropShadow_138_921" result="shape"/>
</filter>
<clipPath id="clip0_138_921">
<rect width="30" height="14.0487" fill="white" transform="translate(80)"/>
</clipPath>
</defs>
</svg>
