<svg width="44" height="44" viewBox="0 0 44 44" fill="none" xmlns="http://www.w3.org/2000/svg">
<rect width="44" height="44" rx="6" transform="matrix(-1 0 0 1 44 0)" fill="#9C4DF4"/>
<path d="M25.54 21.2895L19.88 15.6395C19.787 15.5458 19.6764 15.4714 19.5546 15.4207C19.4327 15.3699 19.302 15.3438 19.17 15.3438C19.038 15.3438 18.9073 15.3699 18.7854 15.4207C18.6635 15.4714 18.5529 15.5458 18.46 15.6395C18.2737 15.8269 18.1692 16.0804 18.1692 16.3445C18.1692 16.6087 18.2737 16.8622 18.46 17.0495L23.41 22.0495L18.46 26.9995C18.2737 27.1869 18.1692 27.4404 18.1692 27.7045C18.1692 27.9687 18.2737 28.2222 18.46 28.4095C18.5526 28.504 18.663 28.5792 18.7849 28.6307C18.9068 28.6822 19.0377 28.709 19.17 28.7095C19.3023 28.709 19.4332 28.6822 19.555 28.6307C19.6769 28.5792 19.7874 28.504 19.88 28.4095L25.54 22.7595C25.6415 22.6659 25.7225 22.5523 25.7779 22.4258C25.8333 22.2993 25.8619 22.1626 25.8619 22.0245C25.8619 21.8864 25.8333 21.7498 25.7779 21.6233C25.7225 21.4968 25.6415 21.3832 25.54 21.2895V21.2895Z" fill="white"/>
</svg>
