<svg width="50" height="50" viewBox="0 0 50 50" fill="none" xmlns="http://www.w3.org/2000/svg">
<path d="M25 50C38.8071 50 50 38.8071 50 25C50 11.1929 38.8071 0 25 0C11.1929 0 0 11.1929 0 25C0 38.8071 11.1929 50 25 50Z" fill="#424242"/>
<path d="M27.6941 49.8551C38.4397 48.7034 47.1468 40.744 49.4188 30.3745L33.2989 14.2546C33.2989 14.2546 20.1108 13.8901 15.3472 21.7251L22.367 28.7627L16.1159 38.3495L27.6941 49.8551Z" fill="#232323"/>
<path d="M35.3983 38.3493H16.1161V31.8406L28.4996 22.4653C30.07 21.2765 29.6915 19.6187 29.5382 19.139C29.3905 18.6769 28.7616 17.1644 26.8716 17.1092C26.8295 17.108 26.7554 17.1073 26.7257 17.1071H24.5361C21.3106 17.1071 21.06 20.6416 21.06 21.7249H15.3474C15.3474 15.6425 19.1259 11.3945 24.5361 11.3945L26.7581 11.3946C26.7581 11.3946 26.9448 11.3963 27.0377 11.3989C30.7317 11.5068 33.8488 13.8622 34.9796 17.3994C36.1249 20.9822 34.9349 24.7584 31.9479 27.0198L24.5288 32.6367H35.3984V38.3493H35.3983Z" fill="#F8FFFB"/>
<path d="M31.9477 27.0203L25.3783 31.9942V24.8289L28.4995 22.466C30.0695 21.2772 29.6913 19.6195 29.5385 19.1399C29.3908 18.6771 28.7614 17.1651 26.8713 17.1101C26.829 17.1091 26.7551 17.1081 26.7255 17.1081H25.3782V11.3955H26.7581C26.7581 11.3955 26.9442 11.3975 27.0377 11.3994C30.7312 11.5077 33.8485 13.8627 34.9793 17.4006C36.1248 20.9827 34.935 24.759 31.9477 27.0203V27.0203Z" fill="#D8D8D8"/>
<path d="M25.3792 32.6377H35.3989V38.3503H25.3792V32.6377Z" fill="#D8D8D8"/>
</svg>
