<svg width="18" height="18" viewBox="0 0 18 18" fill="none" xmlns="http://www.w3.org/2000/svg">
<circle cx="9" cy="9" r="9" fill="white"/>
<path d="M8.99999 9.41634C8.87314 9.41486 8.74887 9.45227 8.64392 9.52355C8.53898 9.59483 8.45838 9.69654 8.413 9.81501C8.36761 9.93348 8.3596 10.063 8.39005 10.1862C8.4205 10.3093 8.48795 10.4202 8.58332 10.5038V11.083C8.58332 11.1935 8.62722 11.2995 8.70536 11.3776C8.7835 11.4558 8.88948 11.4997 8.99999 11.4997C9.1105 11.4997 9.21648 11.4558 9.29462 11.3776C9.37276 11.2995 9.41666 11.1935 9.41666 11.083V10.5038C9.51203 10.4202 9.57948 10.3093 9.60993 10.1862C9.64038 10.063 9.63237 9.93348 9.58698 9.81501C9.5416 9.69654 9.461 9.59483 9.35606 9.52355C9.25111 9.45227 9.12684 9.41486 8.99999 9.41634V9.41634ZM11.0833 7.74967V6.91634C11.0833 6.36381 10.8638 5.8339 10.4731 5.4432C10.0824 5.0525 9.55252 4.83301 8.99999 4.83301C8.44746 4.83301 7.91755 5.0525 7.52685 5.4432C7.13615 5.8339 6.91666 6.36381 6.91666 6.91634V7.74967C6.58514 7.74967 6.26719 7.88137 6.03277 8.11579C5.79835 8.35021 5.66666 8.66815 5.66666 8.99967V11.9163C5.66666 12.2479 5.79835 12.5658 6.03277 12.8002C6.26719 13.0346 6.58514 13.1663 6.91666 13.1663H11.0833C11.4148 13.1663 11.7328 13.0346 11.9672 12.8002C12.2016 12.5658 12.3333 12.2479 12.3333 11.9163V8.99967C12.3333 8.66815 12.2016 8.35021 11.9672 8.11579C11.7328 7.88137 11.4148 7.74967 11.0833 7.74967ZM7.74999 6.91634C7.74999 6.58482 7.88169 6.26688 8.11611 6.03246C8.35053 5.79804 8.66847 5.66634 8.99999 5.66634C9.33151 5.66634 9.64945 5.79804 9.88387 6.03246C10.1183 6.26688 10.25 6.58482 10.25 6.91634V7.74967H7.74999V6.91634ZM11.5 11.9163C11.5 12.0268 11.4561 12.1328 11.378 12.211C11.2998 12.2891 11.1938 12.333 11.0833 12.333H6.91666C6.80615 12.333 6.70017 12.2891 6.62203 12.211C6.54389 12.1328 6.49999 12.0268 6.49999 11.9163V8.99967C6.49999 8.88917 6.54389 8.78319 6.62203 8.70505C6.70017 8.62691 6.80615 8.58301 6.91666 8.58301H11.0833C11.1938 8.58301 11.2998 8.62691 11.378 8.70505C11.4561 8.78319 11.5 8.88917 11.5 8.99967V11.9163Z" fill="#954AE9"/>
</svg>
