<svg width="18" height="18" viewBox="0 0 18 18" fill="none" xmlns="http://www.w3.org/2000/svg">
<path d="M16.4407 8.7C14.9257 5.1825 12.0757 3 9.00066 3C5.92566 3 3.07566 5.1825 1.56066 8.7C1.51936 8.79462 1.49805 8.89676 1.49805 9C1.49805 9.10324 1.51936 9.20537 1.56066 9.3C3.07566 12.8175 5.92566 15 9.00066 15C12.0757 15 14.9257 12.8175 16.4407 9.3C16.482 9.20537 16.5033 9.10324 16.5033 9C16.5033 8.89676 16.482 8.79462 16.4407 8.7V8.7ZM9.00066 13.5C6.62316 13.5 4.37316 11.7825 3.07566 9C4.37316 6.2175 6.62316 4.5 9.00066 4.5C11.3782 4.5 13.6282 6.2175 14.9257 9C13.6282 11.7825 11.3782 13.5 9.00066 13.5ZM9.00066 6C8.40732 6 7.8273 6.17595 7.33395 6.50559C6.8406 6.83524 6.45608 7.30377 6.22902 7.85195C6.00196 8.40013 5.94255 9.00333 6.0583 9.58527C6.17406 10.1672 6.45978 10.7018 6.87934 11.1213C7.2989 11.5409 7.83345 11.8266 8.41539 11.9424C8.99733 12.0581 9.60053 11.9987 10.1487 11.7716C10.6969 11.5446 11.1654 11.1601 11.4951 10.6667C11.8247 10.1734 12.0007 9.59334 12.0007 9C12.0007 8.20435 11.6846 7.44129 11.122 6.87868C10.5594 6.31607 9.79631 6 9.00066 6V6ZM9.00066 10.5C8.70399 10.5 8.41398 10.412 8.16731 10.2472C7.92063 10.0824 7.72837 9.84811 7.61484 9.57402C7.50131 9.29994 7.47161 8.99834 7.52948 8.70736C7.58736 8.41639 7.73022 8.14912 7.94 7.93934C8.14978 7.72956 8.41705 7.5867 8.70803 7.52882C8.999 7.47094 9.3006 7.50065 9.57469 7.61418C9.84878 7.72771 10.083 7.91997 10.2479 8.16664C10.4127 8.41332 10.5007 8.70333 10.5007 9C10.5007 9.39782 10.3426 9.77935 10.0613 10.0607C9.78002 10.342 9.39849 10.5 9.00066 10.5Z" fill="#5D5A6F"/>
</svg>
