<svg width="190" height="2019" viewBox="0 0 190 2019" fill="none" xmlns="http://www.w3.org/2000/svg">
<g filter="url(#filter0_d_138_944)">
<rect x="70" y="1873.32" width="50" height="50" rx="5" fill="white"/>
</g>
<g clip-path="url(#clip0_138_944)">
<path d="M94.8513 2.60311C93.4651 3.05967 91.894 3.57713 91.0522 4.43326C89.5901 5.92689 94.0442 7.55613 94.2345 7.62476C94.2788 7.6407 94.3317 7.64865 94.3845 7.64865C94.4406 7.64865 94.4967 7.63968 94.5423 7.62179C94.6307 7.58716 94.6558 7.52833 94.6027 7.48043C94.5866 7.46588 92.9878 6.01162 93.0472 4.96834C93.0683 4.60497 94.1542 4.19275 95.3038 3.75634C96.3567 3.35661 97.5503 2.90357 98.2486 2.37358C99.7817 1.20699 98.0778 0.0598815 98.0604 0.048412C97.9927 0.00390614 97.8678 -0.0122005 97.7609 0.00972318C97.6542 0.031784 97.5951 0.0858112 97.6195 0.139235C97.623 0.146835 97.9543 0.905411 97.0323 1.68695C96.6525 2.00991 95.8178 2.28479 94.8513 2.60311Z" fill="#DB380E"/>
<path d="M100.692 3.1173C100.789 3.08281 100.818 3.01989 100.759 2.96968C100.7 2.91947 100.571 2.89732 100.456 2.91768C100.221 2.95961 94.6897 3.95803 94.6897 5.16438C94.6897 5.99597 95.4483 6.43526 96.0021 6.75608C96.2194 6.88191 96.407 6.99057 96.4688 7.08334C96.6428 7.35068 96.2305 7.83388 96.0572 7.99753C96.0072 8.04456 96.0317 8.10157 96.1167 8.13593C96.1626 8.1545 96.22 8.16394 96.2774 8.16394C96.3263 8.16394 96.3754 8.15714 96.4178 8.14331C96.5129 8.11236 98.7421 7.37431 98.3423 6.48509C98.1933 6.1471 97.8387 5.90015 97.5257 5.68223C97.0409 5.3446 96.6907 5.10072 97.222 4.65028C97.8443 4.12488 100.663 3.12729 100.692 3.1173Z" fill="#DB380E"/>
<path d="M86.2941 8.18297C86.1993 8.31591 86.2441 8.44779 86.4234 8.56446C87.023 8.95428 89.1469 9.16891 92.404 9.16891C92.4042 9.16891 92.4043 9.16891 92.4044 9.16891C92.8457 9.16891 93.3117 9.16485 93.7889 9.15683C98.9964 9.06955 100.928 8.30982 101.008 8.27753C101.094 8.24232 101.118 8.18371 101.064 8.1363C101.01 8.08891 100.893 8.0651 100.782 8.07945C98.9479 8.31394 95.5233 8.39719 93.1479 8.39719C90.4899 8.39719 89.1363 8.30752 88.8049 8.24131C88.9749 8.13196 90.0237 7.93671 91.3234 7.81699C91.4476 7.80558 91.533 7.75185 91.5207 7.69286C91.5084 7.63387 91.4026 7.58887 91.2759 7.58887C90.5141 7.58887 86.6935 7.61751 86.2941 8.18297Z" fill="#73A1FB"/>
<path d="M103.719 7.40039C102.645 7.40039 101.627 7.6525 101.584 7.66317C101.485 7.68809 101.434 7.74143 101.461 7.79269C101.489 7.84386 101.587 7.87983 101.7 7.87989C101.723 7.87989 103.991 7.88858 104.196 8.4955C104.378 9.01909 102.05 9.86745 101.138 10.1502C101.039 10.1807 101.001 10.2397 101.047 10.2907C101.086 10.3342 101.176 10.3613 101.273 10.3613C101.29 10.3613 101.307 10.3605 101.325 10.3588C101.541 10.3371 106.622 9.81282 106.085 8.42757C105.757 7.57861 104.617 7.40039 103.719 7.40039Z" fill="#73A1FB"/>
<path d="M100.235 9.98043C100.253 9.93607 100.214 9.89093 100.135 9.865L98.9164 9.46541C98.857 9.44593 98.7819 9.43981 98.7122 9.44845C98.6995 9.44996 97.4255 9.6068 95.576 9.70297C94.8419 9.74152 94.0197 9.76188 93.1981 9.76188C91.349 9.76188 90.14 9.66014 89.9639 9.58551C89.9406 9.56454 89.948 9.55502 89.9521 9.54973C89.9841 9.50808 90.1556 9.45858 90.2661 9.43898C90.3881 9.41783 90.4539 9.35576 90.416 9.29748C90.3781 9.23912 90.2497 9.20479 90.123 9.21903C88.901 9.35713 88.3035 9.55025 88.3469 9.793C88.4242 10.2234 90.553 10.4443 92.3527 10.5027C92.6115 10.511 92.8914 10.5152 93.1845 10.5152C93.1846 10.5152 93.1848 10.5152 93.1849 10.5152C96.1776 10.5152 100.014 10.0755 100.052 10.071C100.146 10.0603 100.217 10.0249 100.235 9.98043Z" fill="#73A1FB"/>
<path d="M91.0509 10.9039C91.1432 10.8759 91.1841 10.8224 91.1513 10.7732C91.1187 10.724 91.0204 10.6917 90.9101 10.6924C90.7463 10.6944 89.3076 10.7248 89.2068 11.1538C89.1764 11.282 89.2548 11.3991 89.44 11.5019C89.9565 11.7886 91.351 11.959 93.7022 12.0228C93.9803 12.0306 94.2629 12.0345 94.5421 12.0345C97.5312 12.0345 99.5444 11.5962 99.6287 11.5776C99.7105 11.5595 99.7644 11.5219 99.7692 11.4796C99.774 11.4373 99.7289 11.3972 99.6518 11.3752L98.1122 10.935C98.0588 10.9198 97.9949 10.9147 97.9339 10.9206C97.9242 10.9215 96.9467 11.0165 95.4715 11.1103C95.1923 11.128 94.8428 11.1371 94.4326 11.1371C92.959 11.1371 91.3199 11.0243 91.0055 10.9505C91.0009 10.9367 91.0067 10.9192 91.0509 10.9039Z" fill="#73A1FB"/>
<path d="M93.1489 13.3587C99.9959 13.356 103.671 12.7858 104.379 12.427C104.629 12.3001 104.656 12.1799 104.635 12.1014C104.582 11.9082 104.207 11.7899 104.164 11.7771C104.061 11.7462 103.923 11.7543 103.843 11.7976C103.763 11.8408 103.761 11.9041 103.842 11.9474C103.885 11.9734 103.91 12.017 103.783 12.0761C103.5 12.1999 100.646 12.5756 95.8935 12.6885C95.2424 12.7043 94.5596 12.7124 93.864 12.7125C89.6087 12.7125 86.4945 12.4395 86.0857 12.2805C86.2433 12.1745 87.3448 12.0051 88.5163 11.9093C88.6483 11.8985 88.7375 11.8402 88.717 11.7782C88.6966 11.7162 88.5745 11.6736 88.4411 11.6816C88.4081 11.6838 88.2959 11.6869 88.1661 11.6906C86.2332 11.7459 83.9995 11.8691 83.883 12.3354C83.8476 12.4775 83.9378 12.6066 84.1511 12.7188C84.6731 12.9935 86.1735 13.3587 93.1487 13.3587C93.1488 13.3587 93.1488 13.3587 93.1489 13.3587Z" fill="#73A1FB"/>
<path d="M105.723 12.5273C105.627 12.5063 105.512 12.5169 105.44 12.5534C105.43 12.5585 104.401 13.0625 101.305 13.3586C100.12 13.4697 97.8962 13.5261 94.6944 13.5261C91.4867 13.5261 88.4344 13.467 88.4039 13.4664C88.2764 13.4635 88.1674 13.5069 88.1501 13.5657C88.1327 13.6244 88.2135 13.6798 88.3366 13.6935C88.3684 13.697 91.5672 14.048 95.9409 14.048C98.0386 14.048 100.08 13.9682 102.008 13.8107C105.604 13.5156 105.855 12.6807 105.864 12.6453C105.877 12.5959 105.82 12.5482 105.723 12.5273Z" fill="#73A1FB"/>
</g>
<defs>
<filter id="filter0_d_138_944" x="0" y="1828.32" width="190" height="190" filterUnits="userSpaceOnUse" color-interpolation-filters="sRGB">
<feFlood flood-opacity="0" result="BackgroundImageFix"/>
<feColorMatrix in="SourceAlpha" type="matrix" values="0 0 0 0 0 0 0 0 0 0 0 0 0 0 0 0 0 0 127 0" result="hardAlpha"/>
<feOffset dy="25"/>
<feGaussianBlur stdDeviation="35"/>
<feColorMatrix type="matrix" values="0 0 0 0 0.0392157 0 0 0 0 0.0117647 0 0 0 0 0.235294 0 0 0 0.15 0"/>
<feBlend mode="normal" in2="BackgroundImageFix" result="effect1_dropShadow_138_944"/>
<feBlend mode="normal" in="SourceGraphic" in2="effect1_dropShadow_138_944" result="shape"/>
</filter>
<clipPath id="clip0_138_944">
<rect width="30" height="14.0487" fill="white" transform="translate(80)"/>
</clipPath>
</defs>
</svg>
