<svg width="140" height="20" viewBox="0 0 140 20" fill="none" xmlns="http://www.w3.org/2000/svg">
<g clip-path="url(#clip0_130_704)">
<path d="M133.537 9.3847L121.229 0.154016C120.998 -0.0213665 120.684 -0.0490586 120.424 0.0817094C120.163 0.212477 119.998 0.478629 119.998 0.769395V19.2308C119.998 19.5215 120.163 19.7877 120.423 19.9184C120.532 19.9723 120.651 20 120.768 20C120.931 20 121.094 19.9477 121.229 19.8461L133.537 10.6155C133.73 10.4708 133.844 10.2416 133.844 10.0001C133.844 9.75854 133.73 9.52931 133.537 9.3847Z" fill="white"/>
<path d="M139.229 0H137.69C137.266 0 136.921 0.344612 136.921 0.769223V19.2306C136.921 19.6552 137.266 19.9998 137.69 19.9998H139.229C139.653 19.9998 139.998 19.6552 139.998 19.2306V0.769223C139.998 0.344612 139.653 0 139.229 0Z" fill="white"/>
</g>
<path d="M72.4158 0H76.7583C77.0285 0 77.2476 0.219084 77.2476 0.489297V19.5107C77.2476 19.7809 77.0285 20 76.7583 20H72.4158C72.1456 20 71.9265 19.7809 71.9265 19.5107V0.489297C71.9265 0.219084 72.1456 0 72.4158 0Z" fill="white"/>
<path d="M63.2412 0H67.5838C67.854 0 68.0731 0.219084 68.0731 0.489297V19.5107C68.0731 19.7809 67.854 20 67.5838 20H63.2412C62.971 20 62.752 19.7809 62.752 19.5107V0.489297C62.752 0.219084 62.971 0 63.2412 0Z" fill="white"/>
<g clip-path="url(#clip1_130_704)">
<path d="M6.46338 9.3847L18.771 0.154016C19.0017 -0.0213665 19.3156 -0.0490586 19.5756 0.0817094C19.8371 0.212477 20.0017 0.478629 20.0017 0.769395V19.2308C20.0017 19.5215 19.8371 19.7877 19.5771 19.9184C19.4679 19.9723 19.3494 20 19.2325 20C19.0694 20 18.9063 19.9477 18.771 19.8461L6.46338 10.6155C6.26953 10.4708 6.15569 10.2416 6.15569 10.0001C6.15569 9.75854 6.26953 9.52931 6.46338 9.3847Z" fill="white"/>
<path d="M0.771186 0H2.30963C2.73425 0 3.07886 0.344612 3.07886 0.769223V19.2306C3.07886 19.6552 2.73425 19.9998 2.30963 19.9998H0.771186C0.346575 19.9998 0.00196266 19.6552 0.00196266 19.2306V0.769223C0.00196266 0.344612 0.346575 0 0.771186 0Z" fill="white"/>
</g>
<defs>
<clipPath id="clip0_130_704">
<rect width="20" height="20" fill="white" transform="translate(120)"/>
</clipPath>
<clipPath id="clip1_130_704">
<rect width="20" height="20" fill="white" transform="matrix(-1 0 0 1 20 0)"/>
</clipPath>
</defs>
</svg>
