<svg width="70" height="70" viewBox="0 0 70 70" fill="none" xmlns="http://www.w3.org/2000/svg">
<rect width="70" height="70" rx="10" fill="#E6FFF3"/>
<g clip-path="url(#clip0_162_529)">
<path d="M35 20C26.7157 20 20 26.7157 20 35C20 43.2842 26.7157 49.9999 35 49.9999C43.2842 49.9999 49.9999 43.2842 49.9999 35C49.9911 26.7194 43.2806 20.0089 35 20ZM41.317 35.4779C41.2132 35.6862 41.0444 35.8551 40.836 35.9589V35.9643L32.2646 40.25C31.7353 40.5145 31.0918 40.2998 30.8272 39.7705C30.752 39.62 30.7133 39.4539 30.7142 39.2857V30.7143C30.714 30.1225 31.1934 29.6427 31.7852 29.6423C31.9516 29.6423 32.1158 29.681 32.2646 29.7553L40.836 34.0411C41.3656 34.305 41.581 34.9483 41.317 35.4779Z" fill="#00C968"/>
</g>
<defs>
<clipPath id="clip0_162_529">
<rect width="30" height="30" fill="white" transform="translate(20 20)"/>
</clipPath>
</defs>
</svg>
