<svg width="20" height="20" viewBox="0 0 20 20" fill="none" xmlns="http://www.w3.org/2000/svg">
<rect width="20" height="20" rx="5" fill="#FF6652"/>
<path d="M5.83547 5.41602C5.83515 5.41602 5.83478 5.41602 5.83446 5.41602C5.72097 5.41602 5.61422 5.46026 5.53361 5.54066C5.45212 5.62196 5.40723 5.7302 5.40723 5.84543V12.2844C5.40723 12.5206 5.60008 12.7131 5.83717 12.7137C6.83669 12.7161 8.51128 12.9244 9.66652 14.1334V7.39477C9.66652 7.31473 9.64607 7.23954 9.60749 7.17731C8.65932 5.65036 6.83725 5.41836 5.83547 5.41602Z" fill="white"/>
<path d="M14.5932 12.2845V5.84543C14.5932 5.7302 14.5483 5.62196 14.4668 5.54066C14.3862 5.46026 14.2794 5.41602 14.166 5.41602C14.1657 5.41602 14.1653 5.41602 14.165 5.41602C13.1632 5.4184 11.3412 5.6504 10.393 7.17735C10.3544 7.23958 10.334 7.31477 10.334 7.39481V14.1334C11.4892 12.9244 13.1638 12.7161 14.1633 12.7137C14.4004 12.7131 14.5932 12.5206 14.5932 12.2845Z" fill="white"/>
<path d="M15.5708 6.90039H15.2594V12.2839C15.2594 12.8868 14.7682 13.3784 14.1644 13.3798C13.3166 13.3819 11.9187 13.5476 10.9287 14.4847C12.641 14.0654 14.446 14.338 15.4747 14.5724C15.6031 14.6016 15.7358 14.5714 15.8387 14.4894C15.9413 14.4076 16.0001 14.2853 16.0001 14.154V7.32973C16.0002 7.093 15.8075 6.90039 15.5708 6.90039Z" fill="white"/>
<path d="M4.74069 12.2839V6.90039H4.42933C4.19265 6.90039 4 7.093 4 7.32973V14.1539C4 14.2852 4.05883 14.4074 4.16137 14.4893C4.2642 14.5712 4.39681 14.6016 4.52546 14.5723C5.55415 14.3378 7.3592 14.0653 9.07137 14.4845C8.08139 13.5476 6.68348 13.3818 5.83568 13.3798C5.23192 13.3784 4.74069 12.8868 4.74069 12.2839Z" fill="white"/>
</svg>
